<?xml version="1.0" encoding="UTF-8"?><svg id="Camada_1" xmlns="http://www.w3.org/2000/svg" viewBox="0 0 123 61"><defs><style>.cls-1{fill:#fff;}.cls-2{fill:#1b8992;}</style></defs><rect class="cls-2" width="123" height="61" rx="15.25" ry="15.25"/><g><path class="cls-1" d="M13.45,33.63h3.14v1.85h-5.53v-9.83h2.39v7.98Z"/><path class="cls-1" d="M25.46,27.66v7.81h-2.39v-1.06c-.24,.35-.57,.62-.99,.83-.42,.21-.88,.32-1.38,.32-.6,0-1.12-.13-1.58-.4-.46-.27-.81-.65-1.06-1.15s-.38-1.1-.38-1.78v-4.56h2.38v4.24c0,.52,.14,.93,.41,1.22,.27,.29,.63,.43,1.09,.43s.83-.14,1.11-.43c.27-.29,.41-.7,.41-1.22v-4.24h2.39Z"/><path class="cls-1" d="M39.48,28.46c.57,.59,.86,1.4,.86,2.45v4.56h-2.38v-4.24c0-.5-.13-.89-.4-1.17-.27-.28-.63-.41-1.1-.41s-.83,.14-1.1,.41-.4,.67-.4,1.17v4.24h-2.38v-4.24c0-.5-.13-.89-.4-1.17-.27-.28-.63-.41-1.1-.41s-.83,.14-1.1,.41c-.27,.28-.4,.67-.4,1.17v4.24h-2.39v-7.81h2.39v.98c.24-.33,.56-.59,.95-.78,.39-.19,.83-.29,1.33-.29,.59,0,1.11,.13,1.58,.38s.82,.61,1.08,1.08c.27-.43,.64-.78,1.11-1.05,.47-.27,.98-.41,1.53-.41,.97,0,1.74,.29,2.32,.88Z"/><path class="cls-1" d="M42.22,26.48c-.27-.25-.4-.55-.4-.92s.13-.68,.4-.93,.61-.37,1.03-.37,.75,.12,1.01,.37,.4,.56,.4,.93-.13,.67-.4,.92-.6,.37-1.01,.37-.76-.12-1.03-.37Zm2.22,1.18v7.81h-2.39v-7.81h2.39Z"/><path class="cls-1" d="M53.14,28.47c.55,.59,.82,1.41,.82,2.44v4.56h-2.38v-4.24c0-.52-.13-.93-.41-1.22-.27-.29-.63-.43-1.09-.43s-.82,.14-1.09,.43-.41,.7-.41,1.22v4.24h-2.39v-7.81h2.39v1.04c.24-.34,.57-.62,.98-.82,.41-.2,.87-.3,1.39-.3,.92,0,1.65,.3,2.19,.89Z"/><path class="cls-1" d="M57.13,35.1c-.61-.33-1.09-.79-1.44-1.4-.35-.61-.53-1.32-.53-2.13s.18-1.51,.53-2.12,.84-1.08,1.46-1.41c.62-.33,1.31-.49,2.07-.49s1.46,.16,2.07,.49c.62,.33,1.1,.79,1.46,1.41,.35,.61,.53,1.32,.53,2.12s-.18,1.51-.54,2.12-.85,1.08-1.47,1.41-1.31,.49-2.08,.49-1.45-.16-2.06-.49Zm3.23-2.09c.32-.34,.48-.82,.48-1.44s-.16-1.11-.47-1.44c-.31-.34-.7-.5-1.16-.5s-.85,.17-1.16,.5c-.31,.33-.46,.81-.46,1.45s.15,1.11,.46,1.44c.3,.34,.68,.5,1.14,.5s.85-.17,1.17-.5Z"/><path class="cls-1" d="M65.92,35.24c-.53-.23-.95-.55-1.26-.96-.31-.41-.48-.86-.52-1.36h2.37c.03,.27,.15,.49,.38,.66,.22,.17,.5,.25,.83,.25,.3,0,.53-.06,.69-.17,.16-.12,.25-.27,.25-.46,0-.22-.12-.39-.35-.5-.23-.11-.61-.23-1.13-.36-.56-.13-1.03-.27-1.4-.41-.37-.14-.7-.37-.97-.69-.27-.31-.41-.73-.41-1.27,0-.45,.12-.86,.37-1.22,.25-.37,.61-.66,1.09-.88s1.05-.32,1.71-.32c.98,0,1.75,.24,2.32,.73,.56,.49,.89,1.13,.97,1.93h-2.21c-.04-.27-.16-.49-.36-.64-.2-.16-.46-.24-.79-.24-.28,0-.49,.05-.64,.16-.15,.11-.22,.25-.22,.44,0,.22,.12,.39,.36,.5s.61,.22,1.11,.34c.58,.15,1.05,.3,1.41,.44s.68,.38,.96,.7c.28,.32,.42,.75,.43,1.3,0,.46-.13,.87-.38,1.22s-.63,.64-1.11,.85-1.04,.31-1.67,.31c-.68,0-1.29-.12-1.82-.35Z"/><path class="cls-1" d="M72.55,26.48c-.27-.25-.4-.55-.4-.92s.13-.68,.4-.93,.61-.37,1.03-.37,.75,.12,1.01,.37,.4,.56,.4,.93-.13,.67-.4,.92-.6,.37-1.01,.37-.76-.12-1.03-.37Zm2.22,1.18v7.81h-2.39v-7.81h2.39Z"/><path class="cls-1" d="M76.49,29.44c.3-.61,.72-1.07,1.24-1.4,.52-.33,1.11-.49,1.75-.49,.51,0,.98,.11,1.41,.32s.76,.5,1,.87v-3.63h2.39v10.36h-2.39v-1.12c-.22,.37-.54,.67-.96,.9-.42,.22-.9,.34-1.45,.34-.64,0-1.23-.17-1.75-.5s-.94-.8-1.24-1.41c-.3-.61-.46-1.32-.46-2.12s.15-1.51,.46-2.11Zm4.9,.71c-.33-.34-.74-.52-1.21-.52s-.88,.17-1.21,.51c-.33,.34-.5,.81-.5,1.41s.17,1.07,.5,1.42c.33,.35,.73,.53,1.21,.53s.88-.17,1.21-.52c.33-.34,.5-.82,.5-1.41s-.17-1.07-.5-1.41Z"/><path class="cls-1" d="M86.01,29.44c.3-.61,.72-1.07,1.24-1.4,.52-.33,1.11-.49,1.75-.49,.55,0,1.03,.11,1.45,.34,.42,.22,.73,.52,.96,.88v-1.11h2.39v7.81h-2.39v-1.11c-.23,.36-.56,.66-.97,.88-.42,.22-.9,.34-1.45,.34-.63,0-1.21-.17-1.74-.5s-.94-.8-1.24-1.41c-.3-.61-.46-1.32-.46-2.12s.15-1.51,.46-2.11Zm4.9,.71c-.33-.34-.74-.52-1.21-.52s-.88,.17-1.21,.51c-.33,.34-.5,.81-.5,1.41s.17,1.07,.5,1.42c.33,.35,.73,.53,1.21,.53s.88-.17,1.21-.52c.33-.34,.5-.82,.5-1.41s-.17-1.07-.5-1.41Z"/><path class="cls-1" d="M95.52,29.44c.3-.61,.72-1.07,1.24-1.4,.52-.33,1.11-.49,1.75-.49,.51,0,.98,.11,1.41,.32s.76,.5,1,.87v-3.63h2.39v10.36h-2.39v-1.12c-.22,.37-.54,.67-.96,.9-.42,.22-.9,.34-1.45,.34-.64,0-1.23-.17-1.75-.5s-.94-.8-1.24-1.41c-.3-.61-.46-1.32-.46-2.12s.15-1.51,.46-2.11Zm4.9,.71c-.33-.34-.74-.52-1.21-.52s-.88,.17-1.21,.51c-.33,.34-.5,.81-.5,1.41s.17,1.07,.5,1.42c.33,.35,.73,.53,1.21,.53s.88-.17,1.21-.52c.33-.34,.5-.82,.5-1.41s-.17-1.07-.5-1.41Z"/><path class="cls-1" d="M112.38,32.14h-5.42c.04,.49,.19,.86,.47,1.11s.61,.38,1.01,.38c.6,0,1.01-.25,1.25-.76h2.55c-.13,.51-.37,.98-.71,1.39-.34,.41-.77,.73-1.28,.97-.51,.23-1.09,.35-1.72,.35-.77,0-1.45-.16-2.04-.49s-1.06-.79-1.4-1.4c-.34-.61-.5-1.32-.5-2.13s.17-1.52,.5-2.13c.33-.61,.8-1.07,1.39-1.4,.6-.33,1.28-.49,2.06-.49s1.43,.16,2.02,.48c.59,.32,1.05,.77,1.38,1.36,.33,.59,.5,1.27,.5,2.06,0,.22-.01,.46-.04,.7Zm-2.41-1.33c0-.41-.14-.74-.42-.98-.28-.24-.63-.36-1.05-.36s-.74,.12-1.01,.35-.45,.57-.51,.99h3Z"/></g></svg>