<?xml version="1.0" encoding="UTF-8"?><svg id="Camada_1" xmlns="http://www.w3.org/2000/svg" viewBox="0 0 123 61"><defs><style>.cls-1{fill:#fff;}.cls-2{fill:#2f5579;}</style></defs><rect class="cls-2" width="123" height="61" rx="15.25" ry="15.25"/><g><path class="cls-1" d="M42.03,25.65v1.92h-4v2.07h3v1.86h-3v3.98h-2.39v-9.83h6.4Z"/><path class="cls-1" d="M42.96,29.44c.3-.61,.72-1.07,1.24-1.4,.52-.33,1.11-.49,1.75-.49,.55,0,1.03,.11,1.45,.34,.42,.22,.73,.52,.96,.88v-1.11h2.39v7.81h-2.39v-1.11c-.23,.36-.56,.66-.97,.88-.42,.22-.9,.34-1.45,.34-.63,0-1.21-.17-1.74-.5-.52-.33-.94-.8-1.24-1.41s-.46-1.32-.46-2.12,.15-1.51,.46-2.11Zm4.9,.71c-.33-.34-.74-.52-1.21-.52s-.88,.17-1.21,.51c-.33,.34-.5,.81-.5,1.41s.17,1.07,.5,1.42c.33,.35,.73,.52,1.21,.52s.88-.17,1.21-.52c.33-.35,.5-.82,.5-1.41s-.17-1.07-.5-1.41Z"/><path class="cls-1" d="M56.78,33.45v2.03h-1.22c-.87,0-1.54-.21-2.03-.64-.49-.42-.73-1.12-.73-2.08v-3.11h-.95v-1.99h.95v-1.9h2.39v1.9h1.57v1.99h-1.57v3.14c0,.23,.06,.4,.17,.5,.11,.1,.3,.15,.56,.15h.85Z"/><path class="cls-1" d="M59.43,35.1c-.61-.33-1.09-.79-1.44-1.4-.35-.61-.52-1.32-.52-2.13s.18-1.51,.53-2.12c.36-.61,.84-1.08,1.46-1.41,.62-.33,1.31-.49,2.07-.49s1.46,.16,2.07,.49c.62,.33,1.1,.8,1.46,1.41,.35,.61,.53,1.32,.53,2.12s-.18,1.51-.54,2.12c-.36,.61-.85,1.08-1.47,1.41-.62,.33-1.31,.49-2.08,.49s-1.45-.16-2.06-.49Zm3.23-2.09c.32-.34,.48-.82,.48-1.44s-.16-1.11-.47-1.44c-.31-.34-.7-.5-1.16-.5s-.85,.17-1.16,.5c-.31,.33-.46,.81-.46,1.45s.15,1.11,.46,1.44,.68,.5,1.14,.5,.85-.17,1.17-.5Z"/><path class="cls-1" d="M70.28,27.95c.42-.25,.89-.37,1.4-.37v2.53h-.66c-.6,0-1.04,.13-1.34,.38-.3,.26-.45,.71-.45,1.35v3.63h-2.39v-7.81h2.39v1.3c.28-.43,.63-.77,1.05-1.02Z"/><path class="cls-1" d="M79.97,32.14h-5.42c.04,.49,.19,.86,.47,1.11,.28,.26,.61,.39,1.01,.39,.6,0,1.01-.25,1.25-.76h2.55c-.13,.51-.37,.97-.71,1.39s-.77,.73-1.28,.97c-.51,.23-1.09,.35-1.72,.35-.76,0-1.45-.16-2.04-.49-.6-.33-1.06-.79-1.4-1.4s-.5-1.32-.5-2.13,.17-1.52,.5-2.13c.33-.61,.79-1.07,1.39-1.4,.6-.33,1.28-.49,2.06-.49s1.43,.16,2.02,.48,1.05,.77,1.38,1.36c.33,.59,.5,1.27,.5,2.06,0,.22-.01,.46-.04,.7Zm-2.41-1.33c0-.41-.14-.74-.42-.98-.28-.24-.63-.36-1.05-.36s-.74,.12-1.02,.35-.45,.56-.51,.99h3Z"/><path class="cls-1" d="M82.65,35.24c-.53-.23-.95-.55-1.26-.96s-.48-.86-.52-1.37h2.37c.03,.27,.15,.49,.38,.66,.22,.17,.5,.25,.83,.25,.3,0,.53-.06,.69-.17,.16-.12,.25-.27,.25-.46,0-.22-.12-.39-.35-.5s-.61-.23-1.13-.36c-.56-.13-1.03-.27-1.4-.41-.37-.14-.7-.37-.97-.69s-.41-.74-.41-1.27c0-.45,.12-.86,.37-1.23,.25-.37,.61-.66,1.09-.88,.48-.21,1.05-.32,1.71-.32,.98,0,1.75,.24,2.32,.73,.57,.49,.89,1.13,.97,1.93h-2.21c-.04-.27-.16-.48-.36-.64-.2-.16-.46-.24-.79-.24-.28,0-.5,.05-.64,.16-.15,.11-.22,.25-.22,.44,0,.22,.12,.39,.36,.5,.24,.11,.61,.22,1.11,.34,.58,.15,1.05,.3,1.41,.44,.36,.15,.68,.38,.96,.7,.27,.32,.42,.75,.43,1.29,0,.46-.13,.87-.38,1.23-.26,.36-.63,.64-1.11,.85s-1.04,.31-1.67,.31c-.68,0-1.29-.12-1.82-.35Z"/></g></svg>