<?xml version="1.0" encoding="UTF-8"?><svg id="Camada_1" xmlns="http://www.w3.org/2000/svg" viewBox="0 0 123 61"><defs><style>.cls-1{fill:#fff;}.cls-2{fill:#1b8992;}</style></defs><rect class="cls-2" width="123" height="61" rx="15.25" ry="15.25"/><g><path class="cls-1" d="M22.34,25.52v1.92h-2.6v7.91h-2.39v-7.91h-2.6v-1.92h7.6Z"/><path class="cls-1" d="M29.61,32.02h-5.42c.04,.49,.19,.86,.47,1.11,.28,.26,.61,.39,1.01,.39,.6,0,1.01-.25,1.25-.76h2.55c-.13,.51-.37,.98-.71,1.39-.34,.41-.77,.73-1.28,.97-.51,.23-1.09,.35-1.72,.35-.77,0-1.45-.16-2.04-.49s-1.06-.79-1.4-1.4c-.34-.61-.5-1.32-.5-2.13s.17-1.52,.5-2.13c.33-.61,.8-1.07,1.39-1.4,.6-.33,1.28-.49,2.06-.49s1.43,.16,2.02,.48c.59,.32,1.05,.77,1.38,1.36,.33,.59,.5,1.27,.5,2.06,0,.22-.01,.46-.04,.7Zm-2.41-1.33c0-.41-.14-.74-.42-.98-.28-.24-.63-.36-1.05-.36s-.74,.12-1.01,.35-.45,.56-.51,.99h3Z"/><path class="cls-1" d="M43.22,28.34c.57,.59,.86,1.4,.86,2.45v4.56h-2.38v-4.24c0-.5-.13-.89-.4-1.17-.27-.27-.63-.41-1.1-.41s-.83,.14-1.1,.41c-.27,.28-.4,.67-.4,1.17v4.24h-2.38v-4.24c0-.5-.13-.89-.4-1.17-.27-.27-.63-.41-1.1-.41s-.83,.14-1.1,.41c-.27,.28-.4,.67-.4,1.17v4.24h-2.39v-7.81h2.39v.98c.24-.33,.56-.59,.95-.78,.39-.19,.83-.29,1.33-.29,.59,0,1.11,.13,1.58,.38s.82,.61,1.08,1.08c.27-.43,.64-.78,1.11-1.05,.47-.27,.98-.41,1.53-.41,.97,0,1.74,.29,2.32,.88Z"/><path class="cls-1" d="M49.15,27.76c.41-.22,.89-.34,1.44-.34,.64,0,1.23,.16,1.75,.49s.94,.79,1.24,1.4c.3,.61,.46,1.31,.46,2.11s-.15,1.51-.46,2.12c-.3,.61-.72,1.08-1.24,1.41-.52,.33-1.11,.5-1.75,.5-.54,0-1.02-.11-1.43-.34-.42-.22-.74-.51-.97-.87v4.82h-2.39v-11.54h2.39v1.11c.23-.36,.56-.66,.97-.88Zm1.95,2.26c-.33-.34-.74-.51-1.22-.51s-.88,.17-1.21,.52-.5,.82-.5,1.41,.17,1.07,.5,1.41c.33,.35,.74,.52,1.21,.52s.88-.17,1.22-.52,.5-.82,.5-1.42-.17-1.07-.5-1.41Z"/><path class="cls-1" d="M62.63,32.02h-5.42c.04,.49,.19,.86,.47,1.11,.28,.26,.61,.39,1.01,.39,.6,0,1.01-.25,1.25-.76h2.55c-.13,.51-.37,.98-.71,1.39-.34,.41-.77,.73-1.28,.97-.51,.23-1.09,.35-1.72,.35-.77,0-1.45-.16-2.04-.49s-1.06-.79-1.4-1.4c-.34-.61-.5-1.32-.5-2.13s.17-1.52,.5-2.13c.33-.61,.8-1.07,1.39-1.4,.6-.33,1.28-.49,2.06-.49s1.43,.16,2.02,.48c.59,.32,1.05,.77,1.38,1.36,.33,.59,.5,1.27,.5,2.06,0,.22-.01,.46-.04,.7Zm-2.41-1.33c0-.41-.14-.74-.42-.98-.28-.24-.63-.36-1.05-.36s-.74,.12-1.01,.35-.45,.56-.51,.99h3Z"/><path class="cls-1" d="M67.41,27.83c.42-.25,.89-.37,1.4-.37v2.53h-.66c-.6,0-1.04,.13-1.34,.38-.3,.26-.45,.71-.45,1.35v3.63h-2.39v-7.81h2.39v1.3c.28-.43,.63-.77,1.05-1.02Z"/><path class="cls-1" d="M69.65,29.32c.3-.61,.72-1.07,1.24-1.4s1.11-.49,1.75-.49c.55,0,1.03,.11,1.45,.34,.42,.22,.73,.52,.96,.88v-1.11h2.39v7.81h-2.39v-1.11c-.23,.36-.56,.66-.97,.88-.42,.22-.9,.34-1.45,.34-.63,0-1.21-.17-1.74-.5-.52-.33-.94-.8-1.24-1.41-.3-.61-.46-1.32-.46-2.12s.15-1.51,.46-2.11Zm4.9,.71c-.33-.35-.74-.52-1.21-.52s-.88,.17-1.21,.51c-.33,.34-.5,.81-.5,1.41s.17,1.07,.5,1.42c.33,.35,.73,.52,1.21,.52s.88-.17,1.21-.52c.33-.35,.5-.82,.5-1.41s-.17-1.07-.5-1.41Z"/><path class="cls-1" d="M83.45,33.32v2.03h-1.22c-.87,0-1.54-.21-2.03-.64-.49-.42-.73-1.12-.73-2.08v-3.11h-.95v-1.99h.95v-1.9h2.39v1.9h1.57v1.99h-1.57v3.14c0,.23,.06,.4,.17,.5,.11,.1,.3,.15,.56,.15h.85Z"/><path class="cls-1" d="M92.51,27.54v7.81h-2.39v-1.06c-.24,.35-.57,.62-.99,.83-.42,.21-.88,.31-1.38,.31-.6,0-1.12-.13-1.58-.4-.46-.27-.81-.65-1.06-1.16-.25-.5-.38-1.1-.38-1.78v-4.56h2.38v4.24c0,.52,.14,.93,.41,1.22,.27,.29,.63,.43,1.09,.43s.83-.14,1.11-.43c.27-.29,.41-.7,.41-1.22v-4.24h2.39Z"/><path class="cls-1" d="M97.69,27.83c.42-.25,.89-.37,1.4-.37v2.53h-.66c-.6,0-1.04,.13-1.34,.38-.3,.26-.45,.71-.45,1.35v3.63h-2.39v-7.81h2.39v1.3c.28-.43,.63-.77,1.05-1.02Z"/><path class="cls-1" d="M99.94,29.32c.3-.61,.72-1.07,1.24-1.4s1.11-.49,1.75-.49c.55,0,1.03,.11,1.45,.34,.42,.22,.73,.52,.96,.88v-1.11h2.39v7.81h-2.39v-1.11c-.23,.36-.56,.66-.97,.88-.42,.22-.9,.34-1.45,.34-.63,0-1.21-.17-1.74-.5-.52-.33-.94-.8-1.24-1.41-.3-.61-.46-1.32-.46-2.12s.15-1.51,.46-2.11Zm4.9,.71c-.33-.35-.74-.52-1.21-.52s-.88,.17-1.21,.51c-.33,.34-.5,.81-.5,1.41s.17,1.07,.5,1.42c.33,.35,.73,.52,1.21,.52s.88-.17,1.21-.52c.33-.35,.5-.82,.5-1.41s-.17-1.07-.5-1.41Z"/></g></svg>