<?xml version="1.0" encoding="UTF-8"?><svg id="Camada_1" xmlns="http://www.w3.org/2000/svg" viewBox="0 0 123 61"><defs><style>.cls-1{fill:#fff;}.cls-2{fill:#1b8992;}</style></defs><rect class="cls-2" width="123" height="61" rx="15.25" ry="15.25"/><g><path class="cls-1" d="M31.7,25.52v5.88c0,.59,.14,1.04,.43,1.36,.29,.32,.71,.48,1.27,.48s.99-.16,1.29-.48,.45-.77,.45-1.36v-5.88h2.39v5.87c0,.88-.19,1.62-.56,2.23-.37,.61-.88,1.06-1.5,1.37-.63,.31-1.33,.46-2.11,.46s-1.47-.15-2.08-.46-1.09-.76-1.45-1.37c-.36-.61-.53-1.36-.53-2.23v-5.87h2.39Z"/><path class="cls-1" d="M51.5,28.34c.57,.59,.86,1.4,.86,2.45v4.56h-2.38v-4.24c0-.5-.13-.89-.4-1.17-.27-.27-.63-.41-1.1-.41s-.83,.14-1.1,.41c-.27,.28-.4,.67-.4,1.17v4.24h-2.38v-4.24c0-.5-.13-.89-.4-1.17-.27-.27-.63-.41-1.1-.41s-.83,.14-1.1,.41c-.27,.28-.4,.67-.4,1.17v4.24h-2.39v-7.81h2.39v.98c.24-.33,.56-.59,.95-.78,.39-.19,.83-.29,1.33-.29,.59,0,1.11,.13,1.58,.38s.82,.61,1.08,1.08c.27-.43,.64-.78,1.11-1.05,.47-.27,.98-.41,1.53-.41,.97,0,1.74,.29,2.32,.88Z"/><path class="cls-1" d="M54.25,26.36c-.27-.25-.4-.55-.4-.92s.13-.68,.4-.93c.27-.25,.61-.37,1.03-.37s.75,.12,1.01,.37c.27,.25,.4,.56,.4,.93s-.13,.67-.4,.92c-.27,.25-.6,.37-1.01,.37s-.76-.12-1.03-.37Zm2.22,1.18v7.81h-2.39v-7.81h2.39Z"/><path class="cls-1" d="M58.2,29.32c.3-.61,.72-1.07,1.24-1.4s1.11-.49,1.75-.49c.51,0,.98,.11,1.41,.32,.42,.21,.76,.5,1,.87v-3.63h2.39v10.36h-2.39v-1.12c-.22,.37-.54,.67-.96,.9-.42,.22-.9,.34-1.45,.34-.64,0-1.23-.17-1.75-.5-.52-.33-.94-.8-1.24-1.41-.3-.61-.46-1.32-.46-2.12s.15-1.51,.46-2.11Zm4.9,.71c-.33-.35-.74-.52-1.21-.52s-.88,.17-1.21,.51c-.33,.34-.5,.81-.5,1.41s.17,1.07,.5,1.42c.33,.35,.73,.52,1.21,.52s.88-.17,1.21-.52c.33-.35,.5-.82,.5-1.41s-.17-1.07-.5-1.41Z"/><path class="cls-1" d="M67.72,29.32c.3-.61,.72-1.07,1.24-1.4s1.11-.49,1.75-.49c.55,0,1.03,.11,1.45,.34,.42,.22,.73,.52,.96,.88v-1.11h2.39v7.81h-2.39v-1.11c-.23,.36-.56,.66-.97,.88-.42,.22-.9,.34-1.45,.34-.63,0-1.21-.17-1.74-.5-.52-.33-.94-.8-1.24-1.41-.3-.61-.46-1.32-.46-2.12s.15-1.51,.46-2.11Zm4.9,.71c-.33-.35-.74-.52-1.21-.52s-.88,.17-1.21,.51c-.33,.34-.5,.81-.5,1.41s.17,1.07,.5,1.42c.33,.35,.73,.52,1.21,.52s.88-.17,1.21-.52c.33-.35,.5-.82,.5-1.41s-.17-1.07-.5-1.41Z"/><path class="cls-1" d="M77.22,29.32c.3-.61,.72-1.07,1.24-1.4s1.11-.49,1.75-.49c.51,0,.98,.11,1.41,.32,.42,.21,.76,.5,1,.87v-3.63h2.39v10.36h-2.39v-1.12c-.22,.37-.54,.67-.96,.9-.42,.22-.9,.34-1.45,.34-.64,0-1.23-.17-1.75-.5-.52-.33-.94-.8-1.24-1.41-.3-.61-.46-1.32-.46-2.12s.15-1.51,.46-2.11Zm4.9,.71c-.33-.35-.74-.52-1.21-.52s-.88,.17-1.21,.51c-.33,.34-.5,.81-.5,1.41s.17,1.07,.5,1.42c.33,.35,.73,.52,1.21,.52s.88-.17,1.21-.52c.33-.35,.5-.82,.5-1.41s-.17-1.07-.5-1.41Z"/><path class="cls-1" d="M94.08,32.02h-5.42c.04,.49,.19,.86,.47,1.11,.28,.26,.61,.39,1.01,.39,.6,0,1.01-.25,1.25-.76h2.55c-.13,.51-.37,.98-.71,1.39-.34,.41-.77,.73-1.28,.97-.51,.23-1.09,.35-1.72,.35-.77,0-1.45-.16-2.04-.49s-1.06-.79-1.4-1.4c-.34-.61-.5-1.32-.5-2.13s.17-1.52,.5-2.13c.33-.61,.8-1.07,1.39-1.4,.6-.33,1.28-.49,2.06-.49s1.43,.16,2.02,.48c.59,.32,1.05,.77,1.38,1.36,.33,.59,.5,1.27,.5,2.06,0,.22-.01,.46-.04,.7Zm-2.41-1.33c0-.41-.14-.74-.42-.98-.28-.24-.63-.36-1.05-.36s-.74,.12-1.01,.35-.45,.56-.51,.99h3Z"/></g></svg>