<?xml version="1.0" encoding="UTF-8"?><svg id="Camada_1" xmlns="http://www.w3.org/2000/svg" viewBox="0 0 123 61"><defs><style>.cls-1{fill:#fff;}.cls-2{fill:#29696d;}</style></defs><rect class="cls-2" width="123" height="61" rx="15.25" ry="15.25"/><g><path class="cls-1" d="M24.43,25.65v9.83h-2.39v-9.83h2.39Z"/><path class="cls-1" d="M33.13,28.47c.55,.59,.82,1.41,.82,2.44v4.56h-2.38v-4.24c0-.52-.14-.93-.41-1.22-.27-.29-.63-.43-1.09-.43s-.82,.14-1.09,.43c-.27,.29-.41,.7-.41,1.22v4.24h-2.39v-7.81h2.39v1.04c.24-.35,.57-.62,.98-.82,.41-.2,.87-.3,1.39-.3,.91,0,1.65,.3,2.19,.89Z"/><path class="cls-1" d="M39.88,33.45v2.03h-1.22c-.87,0-1.54-.21-2.03-.64-.49-.42-.73-1.12-.73-2.08v-3.11h-.95v-1.99h.95v-1.9h2.39v1.9h1.57v1.99h-1.57v3.14c0,.23,.06,.4,.17,.5,.11,.1,.3,.15,.56,.15h.85Z"/><path class="cls-1" d="M44.66,27.95c.42-.25,.89-.37,1.4-.37v2.53h-.66c-.6,0-1.05,.13-1.34,.38s-.45,.71-.45,1.35v3.63h-2.39v-7.81h2.39v1.3c.28-.43,.63-.77,1.05-1.01Z"/><path class="cls-1" d="M50.22,25.72l-3.37,1.41v-1.65l3.37-1.62v1.86Zm-.43,1.95v7.81h-2.39v-7.81h2.39Z"/><path class="cls-1" d="M58.64,28.47c.55,.59,.82,1.41,.82,2.44v4.56h-2.38v-4.24c0-.52-.14-.93-.41-1.22-.27-.29-.63-.43-1.09-.43s-.82,.14-1.09,.43c-.27,.29-.41,.7-.41,1.22v4.24h-2.39v-7.81h2.39v1.04c.24-.35,.57-.62,.98-.82,.41-.2,.87-.3,1.39-.3,.91,0,1.65,.3,2.19,.89Z"/><path class="cls-1" d="M62.48,35.24c-.53-.23-.95-.55-1.26-.96-.31-.41-.48-.86-.52-1.37h2.37c.03,.27,.15,.49,.38,.66s.5,.25,.83,.25c.3,0,.53-.06,.69-.18,.16-.12,.24-.27,.24-.46,0-.22-.12-.39-.35-.5s-.61-.23-1.13-.36c-.56-.13-1.03-.27-1.4-.41-.37-.14-.7-.37-.97-.69-.27-.31-.41-.74-.41-1.27,0-.45,.12-.86,.37-1.22,.25-.37,.61-.66,1.09-.88,.48-.21,1.05-.32,1.71-.32,.98,0,1.75,.24,2.32,.73,.56,.49,.89,1.13,.97,1.93h-2.21c-.04-.27-.16-.49-.36-.64-.2-.16-.46-.24-.79-.24-.28,0-.5,.05-.64,.16-.15,.11-.22,.25-.22,.44,0,.22,.12,.39,.36,.5,.24,.11,.61,.22,1.11,.34,.58,.15,1.05,.3,1.41,.44,.36,.14,.68,.38,.96,.7,.28,.32,.42,.75,.43,1.29,0,.46-.13,.87-.38,1.22-.26,.36-.62,.64-1.11,.85-.48,.21-1.04,.31-1.67,.31-.68,0-1.29-.12-1.82-.35Z"/><path class="cls-1" d="M76.27,32.14h-5.42c.04,.49,.19,.86,.47,1.11s.61,.38,1.01,.38c.6,0,1.01-.25,1.25-.76h2.55c-.13,.51-.37,.98-.71,1.39-.34,.41-.77,.73-1.28,.97-.51,.23-1.09,.35-1.72,.35-.77,0-1.45-.16-2.04-.49-.6-.33-1.06-.79-1.4-1.4-.34-.61-.5-1.32-.5-2.13s.17-1.52,.5-2.13c.33-.61,.8-1.07,1.39-1.4,.6-.33,1.28-.49,2.06-.49s1.43,.16,2.02,.48c.59,.32,1.05,.77,1.38,1.36,.33,.59,.5,1.27,.5,2.06,0,.22-.01,.46-.04,.7Zm-2.41-1.33c0-.41-.14-.74-.42-.98-.28-.24-.63-.36-1.05-.36s-.74,.12-1.01,.35-.45,.56-.51,.99h3Z"/><path class="cls-1" d="M77.62,29.44c.33-.61,.79-1.07,1.39-1.4,.59-.33,1.27-.49,2.04-.49,.98,0,1.8,.26,2.46,.77,.66,.51,1.09,1.24,1.3,2.17h-2.55c-.21-.6-.63-.9-1.25-.9-.44,0-.79,.17-1.05,.51-.26,.34-.39,.83-.39,1.46s.13,1.12,.39,1.46c.26,.34,.61,.51,1.05,.51,.62,0,1.03-.3,1.25-.9h2.55c-.21,.92-.64,1.63-1.3,2.16-.66,.52-1.48,.78-2.45,.78-.76,0-1.44-.16-2.04-.49-.59-.33-1.06-.79-1.39-1.4-.33-.61-.5-1.32-.5-2.13s.17-1.52,.5-2.13Z"/><path class="cls-1" d="M87.49,35.1c-.61-.33-1.09-.79-1.44-1.4-.35-.61-.53-1.32-.53-2.13s.18-1.51,.53-2.12,.84-1.08,1.46-1.41c.62-.33,1.31-.49,2.07-.49s1.46,.16,2.07,.49c.62,.33,1.1,.8,1.46,1.41,.35,.61,.53,1.32,.53,2.12s-.18,1.51-.54,2.12c-.36,.61-.85,1.08-1.47,1.41-.62,.33-1.31,.49-2.08,.49s-1.45-.16-2.06-.49Zm3.23-2.09c.32-.34,.48-.82,.48-1.44s-.16-1.11-.47-1.44c-.31-.34-.7-.5-1.16-.5s-.85,.17-1.16,.5-.46,.81-.46,1.45,.15,1.11,.46,1.44c.3,.34,.68,.5,1.14,.5s.85-.17,1.17-.5Z"/><path class="cls-1" d="M96.25,35.24c-.53-.23-.95-.55-1.26-.96-.31-.41-.48-.86-.52-1.37h2.37c.03,.27,.15,.49,.38,.66,.22,.17,.5,.25,.83,.25,.3,0,.53-.06,.69-.18,.16-.12,.25-.27,.25-.46,0-.22-.12-.39-.35-.5-.23-.11-.61-.23-1.13-.36-.56-.13-1.03-.27-1.4-.41-.37-.14-.7-.37-.97-.69-.27-.31-.41-.74-.41-1.27,0-.45,.12-.86,.37-1.22,.25-.37,.61-.66,1.09-.88s1.05-.32,1.71-.32c.98,0,1.75,.24,2.32,.73,.56,.49,.89,1.13,.97,1.93h-2.21c-.04-.27-.16-.49-.36-.64-.2-.16-.46-.24-.79-.24-.28,0-.49,.05-.64,.16s-.22,.25-.22,.44c0,.22,.12,.39,.36,.5,.24,.11,.61,.22,1.11,.34,.58,.15,1.05,.3,1.41,.44s.68,.38,.96,.7c.28,.32,.42,.75,.43,1.29,0,.46-.13,.87-.38,1.22s-.63,.64-1.11,.85c-.48,.21-1.04,.31-1.67,.31-.68,0-1.29-.12-1.82-.35Z"/></g></svg>