<?xml version="1.0" encoding="UTF-8"?><svg id="Camada_1" xmlns="http://www.w3.org/2000/svg" viewBox="0 0 123 61"><defs><style>.cls-1{fill:#fff;}.cls-2{fill:#1b8992;}</style></defs><rect class="cls-2" width="123" height="61" rx="15.25" ry="15.25"/><g><path class="cls-1" d="M32.7,25.65l-3.49,9.83h-3l-3.49-9.83h2.55l2.44,7.42,2.45-7.42h2.53Z"/><path class="cls-1" d="M40.27,32.14h-5.42c.04,.49,.19,.86,.47,1.11s.61,.38,1.01,.38c.6,0,1.01-.25,1.25-.76h2.55c-.13,.51-.37,.98-.71,1.39-.34,.41-.77,.73-1.28,.97-.51,.23-1.09,.35-1.72,.35-.77,0-1.45-.16-2.04-.49s-1.06-.79-1.4-1.4c-.34-.61-.5-1.32-.5-2.13s.17-1.52,.5-2.13c.33-.61,.8-1.07,1.39-1.4,.6-.33,1.28-.49,2.06-.49s1.43,.16,2.02,.48c.59,.32,1.05,.77,1.38,1.36,.33,.59,.5,1.27,.5,2.06,0,.22-.01,.46-.04,.7Zm-2.41-1.33c0-.41-.14-.74-.42-.98-.28-.24-.63-.36-1.05-.36s-.74,.12-1.01,.35-.45,.57-.51,.99h3Z"/><path class="cls-1" d="M48.55,28.47c.55,.59,.82,1.41,.82,2.44v4.56h-2.38v-4.24c0-.52-.13-.93-.41-1.22-.27-.29-.63-.43-1.09-.43s-.82,.14-1.09,.43-.41,.7-.41,1.22v4.24h-2.39v-7.81h2.39v1.04c.24-.34,.57-.62,.98-.82,.41-.2,.87-.3,1.39-.3,.92,0,1.65,.3,2.19,.89Z"/><path class="cls-1" d="M55.33,33.45v2.03h-1.22c-.87,0-1.54-.21-2.03-.64s-.73-1.12-.73-2.08v-3.11h-.95v-1.99h.95v-1.9h2.39v1.9h1.57v1.99h-1.57v3.14c0,.23,.06,.4,.17,.5,.11,.1,.3,.15,.56,.15h.85Z"/><path class="cls-1" d="M56.85,26.48c-.27-.25-.4-.55-.4-.92s.13-.68,.4-.93,.61-.37,1.03-.37,.75,.12,1.01,.37,.4,.56,.4,.93-.13,.67-.4,.92-.6,.37-1.01,.37-.76-.12-1.03-.37Zm2.22,1.18v7.81h-2.39v-7.81h2.39Z"/><path class="cls-1" d="M63.21,25.12v10.36h-2.39v-10.36h2.39Z"/><path class="cls-1" d="M64.94,29.44c.3-.61,.72-1.07,1.24-1.4,.52-.33,1.11-.49,1.75-.49,.55,0,1.03,.11,1.45,.34,.42,.22,.73,.52,.96,.88v-1.11h2.39v7.81h-2.39v-1.11c-.23,.36-.56,.66-.97,.88-.42,.22-.9,.34-1.45,.34-.63,0-1.21-.17-1.74-.5s-.94-.8-1.24-1.41c-.3-.61-.46-1.32-.46-2.12s.15-1.51,.46-2.11Zm4.9,.71c-.33-.34-.74-.52-1.21-.52s-.88,.17-1.21,.51c-.33,.34-.5,.81-.5,1.41s.17,1.07,.5,1.42c.33,.35,.73,.53,1.21,.53s.88-.17,1.21-.52c.33-.34,.5-.82,.5-1.41s-.17-1.07-.5-1.41Z"/><path class="cls-1" d="M79.12,32.65h2.55c-.18,.79-.53,1.44-1.06,1.95s-1.19,.82-1.99,.94v.52c.49,0,.91,.13,1.27,.4,.36,.27,.55,.67,.55,1.2s-.19,.94-.57,1.21-.84,.41-1.37,.41h-2.16v-1.32h1.83c.19,0,.33-.03,.42-.08,.09-.06,.14-.15,.14-.28s-.05-.22-.14-.27c-.09-.05-.23-.08-.42-.08h-.99v-1.71c-.96-.15-1.73-.58-2.31-1.28-.58-.71-.87-1.6-.87-2.68,0-.81,.17-1.52,.5-2.13,.33-.61,.79-1.07,1.39-1.4,.59-.33,1.27-.49,2.04-.49,.98,0,1.8,.26,2.46,.77,.66,.51,1.09,1.24,1.3,2.17h-2.55c-.21-.6-.63-.9-1.25-.9-.44,0-.79,.17-1.05,.51-.26,.34-.39,.83-.39,1.46s.13,1.12,.39,1.46c.26,.34,.61,.51,1.05,.51,.62,0,1.03-.3,1.25-.9Z"/><path class="cls-1" d="M82.82,29.44c.3-.61,.72-1.07,1.24-1.4,.52-.33,1.11-.49,1.75-.49,.55,0,1.03,.11,1.45,.34,.42,.22,.73,.52,.96,.88v-1.11h2.39v7.81h-2.39v-1.11c-.23,.36-.56,.66-.97,.88-.42,.22-.9,.34-1.45,.34-.63,0-1.21-.17-1.74-.5s-.94-.8-1.24-1.41c-.3-.61-.46-1.32-.46-2.12s.15-1.51,.46-2.11Zm3.09-4.51c.21,0,.39,.03,.54,.09,.15,.06,.34,.15,.57,.27,.17,.09,.3,.16,.41,.2,.1,.04,.21,.06,.32,.06,.35,0,.55-.21,.6-.63h1.23c-.22,1.38-.87,2.07-1.93,2.07-.21,0-.38-.03-.54-.09-.15-.06-.34-.15-.57-.27-.17-.09-.3-.16-.41-.2s-.21-.06-.32-.06c-.35,0-.55,.21-.62,.63h-1.22c.22-1.38,.87-2.07,1.93-2.07Zm1.81,5.22c-.33-.34-.74-.52-1.21-.52s-.88,.17-1.21,.51c-.33,.34-.5,.81-.5,1.41s.17,1.07,.5,1.42c.33,.35,.73,.53,1.21,.53s.88-.17,1.21-.52c.33-.34,.5-.82,.5-1.41s-.17-1.07-.5-1.41Z"/><path class="cls-1" d="M93.84,35.1c-.61-.33-1.09-.79-1.44-1.4-.35-.61-.53-1.32-.53-2.13s.18-1.51,.53-2.12,.84-1.08,1.46-1.41c.62-.33,1.31-.49,2.07-.49s1.46,.16,2.07,.49c.62,.33,1.1,.79,1.46,1.41,.35,.61,.53,1.32,.53,2.12s-.18,1.51-.54,2.12-.85,1.08-1.47,1.41-1.31,.49-2.08,.49-1.45-.16-2.06-.49Zm3.23-2.09c.32-.34,.48-.82,.48-1.44s-.16-1.11-.47-1.44c-.31-.34-.7-.5-1.16-.5s-.85,.17-1.16,.5c-.31,.33-.46,.81-.46,1.45s.15,1.11,.46,1.44c.3,.34,.68,.5,1.14,.5s.85-.17,1.17-.5Z"/></g></svg>