<?xml version="1.0" encoding="UTF-8"?><svg xmlns="http://www.w3.org/2000/svg" viewBox="0 0 159 196"><defs><style>.cls-1{fill:#c3c4ca;}.cls-1,.cls-2{mix-blend-mode:multiply;}.cls-3{fill:#fff;}.cls-4{isolation:isolate;}.cls-5{fill:#b3def5;}.cls-2{fill:#e2e4e7;}.cls-6{fill:#93ced5;}.cls-7{fill:#00446c;}.cls-8{fill:#56abd4;}.cls-9{fill:#d3d5d9;}</style></defs><g class="cls-4"><g id="Camada_1"><rect class="cls-6" x="0" y="0" width="159" height="196"/><g><g><path class="cls-7" d="M80.6,57.58c0-6,4.83-10.87,10.79-10.87h47.26c5.96,0,10.79,4.87,10.79,10.87v89.15c0,6-4.83,10.86-10.79,10.86h-47.26c-5.96,0-10.79-4.87-10.79-10.86V57.58Z"/><g><g><path class="cls-5" d="M130.1,57.88c2.57-1.94,6.21-1.41,8.14,1.17,1.93,2.59,1.41,6.26-1.16,8.2-2.57,1.94-6.21,1.42-8.14-1.17-1.92-2.59-1.41-6.25,1.16-8.2Z"/><path class="cls-8" d="M138.68,59.75c-.13-.24-.27-.48-.44-.71-.17-.22-.36-.43-.55-.62l-9.2,6.95c.13,.24,.28,.48,.44,.71,.17,.22,.36,.43,.55,.62l9.19-6.95Z"/></g><g><path class="cls-5" d="M111.57,57.88c2.57-1.94,6.21-1.41,8.14,1.17,1.93,2.59,1.41,6.26-1.16,8.2-2.57,1.94-6.21,1.42-8.14-1.17-1.93-2.59-1.41-6.25,1.16-8.2Z"/><path class="cls-8" d="M120.15,59.75c-.13-.24-.27-.48-.44-.71-.17-.22-.36-.43-.55-.62l-9.2,6.95c.13,.24,.28,.48,.45,.71,.17,.22,.35,.43,.55,.62l9.2-6.95Z"/></g><g><path class="cls-5" d="M93.04,57.88c2.57-1.94,6.22-1.41,8.14,1.17,1.92,2.59,1.41,6.26-1.16,8.2-2.57,1.94-6.21,1.42-8.14-1.17-1.93-2.59-1.41-6.25,1.16-8.2Z"/><path class="cls-8" d="M101.63,59.75c-.13-.24-.28-.48-.44-.71-.17-.22-.36-.43-.55-.62l-9.2,6.95c.13,.24,.27,.48,.44,.71,.17,.22,.35,.43,.54,.62l9.2-6.95Z"/></g></g><g><g><path class="cls-5" d="M130.1,77.25c2.57-1.94,6.21-1.41,8.14,1.17,1.93,2.59,1.41,6.25-1.16,8.2-2.57,1.94-6.21,1.42-8.14-1.17-1.92-2.59-1.41-6.25,1.16-8.2Z"/><path class="cls-8" d="M138.68,79.12c-.13-.24-.27-.48-.44-.71-.17-.22-.36-.43-.55-.62l-9.2,6.95c.13,.24,.28,.48,.44,.71,.17,.22,.36,.43,.55,.62l9.19-6.95Z"/></g><g><path class="cls-5" d="M111.57,77.25c2.57-1.94,6.21-1.41,8.14,1.17,1.93,2.59,1.41,6.25-1.16,8.2-2.57,1.94-6.21,1.42-8.14-1.17-1.93-2.59-1.41-6.25,1.16-8.2Z"/><path class="cls-8" d="M120.15,79.12c-.13-.24-.27-.48-.44-.71-.17-.22-.36-.43-.55-.62l-9.2,6.95c.13,.24,.28,.48,.45,.71,.17,.22,.35,.43,.55,.62l9.2-6.95Z"/></g><g><path class="cls-5" d="M93.04,77.25c2.57-1.94,6.22-1.41,8.14,1.17,1.92,2.59,1.41,6.25-1.16,8.2-2.57,1.94-6.21,1.42-8.14-1.17-1.93-2.59-1.41-6.25,1.16-8.2Z"/><path class="cls-8" d="M101.63,79.12c-.13-.24-.28-.48-.44-.71-.17-.22-.36-.43-.55-.62l-9.2,6.95c.13,.24,.27,.48,.44,.71,.17,.22,.35,.43,.54,.62l9.2-6.95Z"/></g></g><g><g><path class="cls-5" d="M130.1,96.62c2.57-1.94,6.21-1.41,8.14,1.17,1.93,2.59,1.41,6.25-1.16,8.2-2.57,1.94-6.21,1.42-8.14-1.17-1.92-2.59-1.41-6.25,1.16-8.2Z"/><path class="cls-8" d="M138.68,98.49c-.13-.24-.27-.48-.44-.71-.17-.22-.36-.43-.55-.62l-9.2,6.95c.13,.24,.28,.48,.44,.71,.17,.22,.36,.43,.55,.62l9.19-6.95Z"/></g><g><path class="cls-5" d="M111.57,96.62c2.57-1.94,6.21-1.41,8.14,1.17,1.93,2.59,1.41,6.25-1.16,8.2-2.57,1.94-6.21,1.42-8.14-1.17-1.93-2.59-1.41-6.25,1.16-8.2Z"/><path class="cls-8" d="M120.15,98.49c-.13-.24-.27-.48-.44-.71-.17-.22-.36-.43-.55-.62l-9.2,6.95c.13,.24,.28,.48,.45,.71,.17,.22,.35,.43,.55,.62l9.2-6.95Z"/></g><g><path class="cls-5" d="M93.04,96.62c2.57-1.94,6.22-1.41,8.14,1.17,1.92,2.59,1.41,6.25-1.16,8.2-2.57,1.94-6.21,1.42-8.14-1.17-1.93-2.59-1.41-6.25,1.16-8.2Z"/><path class="cls-8" d="M101.63,98.49c-.13-.24-.28-.48-.44-.71-.17-.22-.36-.43-.55-.62l-9.2,6.95c.13,.24,.27,.48,.44,.71,.17,.22,.35,.43,.54,.62l9.2-6.95Z"/></g></g><g><g><path class="cls-5" d="M130.1,115.99c2.57-1.94,6.21-1.41,8.14,1.17,1.93,2.59,1.41,6.25-1.16,8.2-2.57,1.94-6.21,1.42-8.14-1.17-1.92-2.59-1.41-6.26,1.16-8.2Z"/><path class="cls-8" d="M138.68,117.87c-.13-.24-.27-.48-.44-.7-.17-.22-.36-.43-.55-.62l-9.2,6.95c.13,.24,.28,.48,.44,.71,.17,.22,.36,.43,.55,.62l9.19-6.95Z"/></g><g><path class="cls-5" d="M111.57,115.99c2.57-1.94,6.21-1.41,8.14,1.17,1.93,2.59,1.41,6.25-1.16,8.2-2.57,1.94-6.21,1.42-8.14-1.17-1.93-2.59-1.41-6.26,1.16-8.2Z"/><path class="cls-8" d="M120.15,117.87c-.13-.24-.27-.48-.44-.7-.17-.22-.36-.43-.55-.62l-9.2,6.95c.13,.24,.28,.48,.45,.71,.17,.22,.35,.43,.55,.62l9.2-6.95Z"/></g><g><path class="cls-5" d="M93.04,115.99c2.57-1.94,6.22-1.41,8.14,1.17,1.92,2.59,1.41,6.25-1.16,8.2-2.57,1.94-6.21,1.42-8.14-1.17-1.93-2.59-1.41-6.26,1.16-8.2Z"/><path class="cls-8" d="M101.63,117.87c-.13-.24-.28-.48-.44-.7-.17-.22-.36-.43-.55-.62l-9.2,6.95c.13,.24,.27,.48,.44,.71,.17,.22,.35,.43,.54,.62l9.2-6.95Z"/></g></g><g><g><path class="cls-5" d="M130.1,135.36c2.57-1.94,6.21-1.41,8.14,1.17,1.93,2.59,1.41,6.26-1.16,8.2-2.57,1.94-6.21,1.42-8.14-1.17-1.92-2.59-1.41-6.25,1.16-8.2Z"/><path class="cls-8" d="M138.68,137.24c-.13-.24-.27-.48-.44-.71-.17-.22-.36-.43-.55-.62l-9.2,6.95c.13,.24,.28,.48,.44,.71,.17,.22,.36,.43,.55,.62l9.19-6.95Z"/></g><g><path class="cls-5" d="M111.57,135.36c2.57-1.94,6.21-1.41,8.14,1.17,1.93,2.59,1.41,6.26-1.16,8.2-2.57,1.94-6.21,1.42-8.14-1.17-1.93-2.59-1.41-6.25,1.16-8.2Z"/><path class="cls-8" d="M120.15,137.24c-.13-.24-.27-.48-.44-.71-.17-.22-.36-.43-.55-.62l-9.2,6.95c.13,.24,.28,.48,.45,.71,.17,.22,.35,.43,.55,.62l9.2-6.95Z"/></g><g><path class="cls-5" d="M93.04,135.36c2.57-1.94,6.22-1.41,8.14,1.17,1.92,2.59,1.41,6.26-1.16,8.2-2.57,1.94-6.21,1.42-8.14-1.17-1.93-2.59-1.41-6.25,1.16-8.2Z"/><path class="cls-8" d="M101.63,137.24c-.13-.24-.28-.48-.44-.71-.17-.22-.36-.43-.55-.62l-9.2,6.95c.13,.24,.27,.48,.44,.71,.17,.22,.35,.43,.54,.62l9.2-6.95Z"/></g></g><path class="cls-2" d="M91.42,157.59h11.87c-9.06-11.58-14.53-26.09-14.53-41.7,0-33.23,24.72-61.51,56.37-66.99-1.8-1.36-4.02-2.19-6.44-2.19h-47.27c-5.96,0-10.79,4.87-10.79,10.87v89.15c0,6,4.83,10.86,10.79,10.86Z"/><path class="cls-2" d="M91.42,157.59h3.52c-6.47-10.4-10.24-22.61-10.24-35.58,0-35.92,28.88-66.07,64.18-67.87-1.43-4.31-5.43-7.44-10.19-7.44h-47.27c-5.96,0-10.79,4.87-10.79,10.87v89.15c0,6,4.83,10.86,10.79,10.86Z"/></g><g><rect class="cls-3" x="9.55" y="99.76" width="74.57" height="71.46"/><g><path class="cls-3" d="M101.56,102.15h-17.45v66.66h17.45c3.21,0,5.8-2.62,5.8-5.84v-54.98c0-3.23-2.6-5.85-5.8-5.85Z"/><rect class="cls-9" x="84.12" y="102.15" width="2.23" height="66.66"/></g><rect class="cls-6" x="12.8" y="104.37" width="68.07" height="27.44"/><polygon class="cls-3" points="35.31 115.61 29.03 115.61 29.03 109.28 24.11 109.28 24.11 115.61 17.83 115.61 17.83 120.56 24.11 120.56 24.11 126.89 29.03 126.89 29.03 120.56 35.31 120.56 35.31 115.61"/><g><rect class="cls-1" x="40.57" y="108.42" width="24.77" height="1.89"/><rect class="cls-1" x="40.57" y="111.66" width="24.77" height="1.89"/><rect class="cls-1" x="40.57" y="114.91" width="13.41" height="1.89"/></g><path class="cls-2" d="M54.66,156.98c-15.71-8.29-26.36-24.08-31.21-40.88-1.57-5.43-2.09-10.95-1.72-16.34H9.55v71.46H84.12v-5.41c-10.28-1.45-18.98-3.31-29.45-8.83Z"/><path class="cls-2" d="M39.84,158.94c-7.47-4.45-13.4-10.42-17.82-17.94-1.67-3.98-3.34-7.96-5-11.94-2.63-9.63-2.28-19.91,.84-29.3H9.55v71.46H78.22c-13.63-1.12-27.43-4.26-38.38-12.28Z"/></g></g></g></g></svg>