<?xml version="1.0" encoding="utf-8"?>
<!-- Generator: Adobe Illustrator 26.3.1, SVG Export Plug-In . SVG Version: 6.00 Build 0)  -->
<svg version="1.1" id="Camada_1" xmlns="http://www.w3.org/2000/svg" xmlns:xlink="http://www.w3.org/1999/xlink" x="0px" y="0px"
	 viewBox="0 0 613.5 160.1" style="enable-background:new 0 0 613.5 160.1;" xml:space="preserve">
<style type="text/css">
	.st0{fill:#54BFCD;}
	.st1{fill:#FFFFFF;}
	.st2{fill:#1B8992;}
	.st3{fill:#29696D;}
	.st4{fill:#2F5579;}
	.st5{fill:#108141;}
	.st6{fill:#FFA800;}
</style>
<g>
	<path class="st0" d="M2.9,0h63.9c1.6,0,2.9,1.3,2.9,2.9v63.9c0,1.6-1.3,2.9-2.9,2.9H2.9c-1.6,0-2.9-1.3-2.9-2.9V2.9
		C0,1.3,1.3,0,2.9,0z"/>
	<path class="st1" d="M52.2,50h17.5v14.1H52.2c-3.2,0-5.8-2.6-5.8-5.8v-2.6C46.4,52.6,49,50,52.2,50z"/>
	<path class="st1" d="M30.2,27.2h-3.9v-7.6h12.4v26.8h-8.5V27.2z"/>
	<path id="Icon_awesome-arrow-right" class="st0" d="M58.7,52.7l0.5-0.5c0.2-0.2,0.6-0.2,0.8,0l0,0l4.5,4.5c0.2,0.2,0.2,0.6,0,0.8
		l0,0l-4.5,4.5c-0.2,0.2-0.6,0.2-0.8,0l0,0l-0.5-0.5c-0.2-0.2-0.2-0.6,0-0.8l0,0l2.8-2.6h-6.6c-0.3,0-0.5-0.2-0.5-0.5l0,0v-0.7
		c0-0.3,0.2-0.5,0.5-0.5h6.6l-2.8-2.6C58.4,53.3,58.4,53,58.7,52.7L58.7,52.7L58.7,52.7z"/>
</g>
<g>
	<path class="st2" d="M220.4,0h63.9c1.6,0,2.9,1.3,2.9,2.9v63.9c0,1.6-1.3,2.9-2.9,2.9h-63.9c-1.6,0-2.9-1.3-2.9-2.9V2.9
		C217.6,1.3,218.8,0,220.4,0z"/>
	<path class="st1" d="M269.7,50h17.5v14.1h-17.5c-3.2,0-5.8-2.6-5.8-5.8v-2.6C264,52.6,266.6,50,269.7,50z"/>
	<path class="st1" d="M254.6,19c5.9,0,9.1,3.3,9.1,7.5c0,3.8-2.4,5.5-3.9,6v0.2c2.5,1,4.4,2.8,4.4,6.1c0,4.7-3.4,7.9-9.1,7.9
		c-6,0-10.2-2.6-10.3-9.4h7.9c-0.1,1.7,0.4,2.7,2,2.7c0.9,0,1.5-0.7,1.5-1.8c0-1.3-0.7-2.1-3-2.1H252v-6.6h1.3c0.7,0,2.5,0.1,2.5-2
		c0-1.3-0.7-1.8-1.4-1.8c-1.2,0-1.4,1.2-1.4,2.3h-7.9C245.3,22.1,248.6,19,254.6,19L254.6,19z"/>
	<path id="Icon_awesome-arrow-right-2" class="st2" d="M276.2,52.7l0.5-0.5c0.2-0.2,0.6-0.2,0.8,0l0,0l4.5,4.5
		c0.2,0.2,0.2,0.6,0,0.8l0,0l-4.5,4.5c-0.2,0.2-0.6,0.2-0.8,0l0,0l-0.5-0.5c-0.2-0.2-0.2-0.6,0-0.8l0,0L279,58h-6.6
		c-0.3,0-0.5-0.2-0.5-0.5l0,0v-0.7c0-0.3,0.2-0.5,0.5-0.5h6.6l-2.8-2.6C276,53.3,276,53,276.2,52.7L276.2,52.7L276.2,52.7z"/>
</g>
<g>
	<path class="st3" d="M438,0h63.9c1.6,0,2.9,1.3,2.9,2.9v63.9c0,1.6-1.3,2.9-2.9,2.9H438c-1.6,0-2.9-1.3-2.9-2.9V2.9
		C435.1,1.3,436.4,0,438,0z"/>
	<path class="st1" d="M487.3,50h17.5v14.1h-17.5c-3.2,0-5.8-2.6-5.8-5.8v-2.6C481.6,52.6,484.1,50,487.3,50z"/>
	<path class="st1" d="M482.5,19.6v7.1h-10.6v3.1c0.9-0.8,2.5-1.4,4.3-1.4c5.2,0,7.6,4.1,7.6,8.6c0,5.9-3.5,9.3-9.3,9.3
		c-6.4,0-10.2-3.6-10-8.6h7.9c0,0.6,0.3,1.6,1.7,1.6c1.3,0,1.8-1,1.8-2.5s-0.7-2.2-1.9-2.2c-1.1,0-1.6,0.6-1.6,1.2h-7.9V19.6H482.5
		L482.5,19.6z"/>
	<path id="Icon_awesome-arrow-right-3" class="st3" d="M493.8,52.7l0.5-0.5c0.2-0.2,0.6-0.2,0.8,0l0,0l4.5,4.5
		c0.2,0.2,0.2,0.6,0,0.8l0,0l-4.5,4.5c-0.2,0.2-0.6,0.2-0.8,0l0,0l-0.5-0.5c-0.2-0.2-0.2-0.6,0-0.8l0,0l2.8-2.6h-6.6
		c-0.3,0-0.5-0.2-0.5-0.5l0,0v-0.7c0-0.3,0.2-0.5,0.5-0.5h6.6l-2.8-2.6C493.5,53.3,493.5,53,493.8,52.7L493.8,52.7L493.8,52.7z"/>
</g>
<g>
	<path class="st4" d="M2.9,90.4h63.9c1.6,0,2.9,1.3,2.9,2.9v63.9c0,1.6-1.3,2.9-2.9,2.9H2.9c-1.6,0-2.9-1.3-2.9-2.9V93.3
		C0,91.7,1.3,90.4,2.9,90.4z"/>
	<path class="st1" d="M52.2,140.5h17.5v14.1H52.2c-3.2,0-5.8-2.6-5.8-5.8v-2.6C46.5,143,49,140.5,52.2,140.5z"/>
	<path class="st1" d="M44.4,110v6L36,136.8h-8.4l8.4-19.8h-9.5v-7H44.4L44.4,110z"/>
	<path id="Icon_awesome-arrow-right-4" class="st4" d="M58.7,143.1l0.5-0.5c0.2-0.2,0.6-0.2,0.8,0l0,0l4.5,4.5
		c0.2,0.2,0.2,0.6,0,0.8l0,0l-4.5,4.5c-0.2,0.2-0.6,0.2-0.8,0l0,0l-0.5-0.5c-0.2-0.2-0.2-0.6,0-0.8l0,0l2.8-2.6h-6.6
		c-0.3,0-0.5-0.2-0.5-0.6l0,0v-0.7c0-0.3,0.2-0.5,0.5-0.5h6.6l-2.8-2.6C58.4,143.7,58.4,143.4,58.7,143.1L58.7,143.1L58.7,143.1z"/>
</g>
<g>
	<path class="st5" d="M220.4,90.4h63.9c1.6,0,2.9,1.3,2.9,2.9v63.9c0,1.6-1.3,2.9-2.9,2.9h-63.9c-1.6,0-2.9-1.3-2.9-2.9V93.3
		C217.6,91.7,218.8,90.4,220.4,90.4z"/>
	<path class="st1" d="M269.7,140.5h17.5v14.1h-17.5c-3.2,0-5.8-2.6-5.8-5.8v-2.6C264,143,266.6,140.5,269.7,140.5z"/>
	<path class="st1" d="M252.8,128.4c0.3,1.4,0.8,2.1,2,2.1c2,0,2.2-2.2,2.2-5.8c-0.9,1.3-2.6,2.2-4.7,2.2c-4.5,0-7.7-2.8-7.7-8.5
		s3.7-9,9.5-9c8.3,0,10.3,5.5,10.3,13.1c0,9.2-2.4,14.5-9.7,14.5c-6.1,0-9.2-4.3-9.5-8.6L252.8,128.4L252.8,128.4z M256.5,118.7
		c0-1.5-0.8-2.2-2.2-2.2s-2.2,0.7-2.2,2.2c0,1.4,0.9,2.1,2.2,2.1S256.5,120,256.5,118.7z"/>
	<path id="Icon_awesome-arrow-right-5" class="st5" d="M276.2,143.1l0.5-0.5c0.2-0.2,0.6-0.2,0.8,0l0,0l4.5,4.5
		c0.2,0.2,0.2,0.6,0,0.8l0,0l-4.5,4.5c-0.2,0.2-0.6,0.2-0.8,0l0,0l-0.5-0.5c-0.2-0.2-0.2-0.6,0-0.8l0,0l2.8-2.6h-6.6
		c-0.3,0-0.5-0.2-0.5-0.6l0,0v-0.7c0-0.3,0.2-0.5,0.5-0.5h6.6l-2.8-2.6C276,143.7,276,143.4,276.2,143.1L276.2,143.1L276.2,143.1z"
		/>
</g>
<g>
	<path class="st6" d="M438,90.4h63.9c1.6,0,2.9,1.3,2.9,2.9v63.9c0,1.6-1.3,2.9-2.9,2.9H438c-1.6,0-2.9-1.3-2.9-2.9V93.3
		C435.1,91.7,436.4,90.4,438,90.4z"/>
	<path class="st1" d="M487.3,140.5h17.5v14.1h-17.5c-3.2,0-5.8-2.6-5.8-5.8v-2.6C481.5,143,484.1,140.5,487.3,140.5z"/>
	<g>
		<path class="st1" d="M456.8,117.6h-3.9V110h12.4v26.8h-8.5V117.6z"/>
		<path class="st1" d="M471.4,117.6h-3.9V110h12.4v26.8h-8.5V117.6z"/>
	</g>
	<path id="Icon_awesome-arrow-right-6" class="st6" d="M493.8,143.1l0.5-0.5c0.2-0.2,0.6-0.2,0.8,0l0,0l4.5,4.5
		c0.2,0.2,0.2,0.6,0,0.8l0,0l-4.5,4.5c-0.2,0.2-0.6,0.2-0.8,0l0,0l-0.5-0.5c-0.2-0.2-0.2-0.6,0-0.8l0,0l2.8-2.6h-6.6
		c-0.3,0-0.5-0.2-0.5-0.6l0,0v-0.7c0-0.3,0.2-0.5,0.5-0.5h6.6l-2.8-2.6C493.5,143.7,493.5,143.4,493.8,143.1L493.8,143.1
		L493.8,143.1z"/>
</g>
<g>
	<path class="st0" d="M111.6,0h63.9c1.6,0,2.9,1.3,2.9,2.9v63.9c0,1.6-1.3,2.9-2.9,2.9h-63.9c-1.6,0-2.9-1.3-2.9-2.9V2.9
		C108.8,1.3,110.1,0,111.6,0z"/>
	<path class="st1" d="M161,50h17.5v14.1H161c-3.2,0-5.8-2.6-5.8-5.8v-2.6C155.2,52.6,157.8,50,161,50z"/>
	<path class="st1" d="M135.8,39.9c5.2-3.9,10.6-8.4,10.6-12.2c0-1.2-0.6-1.8-1.4-1.8c-0.8,0-1.6,0.9-1.5,3h-7.9
		c0.3-7.1,4.9-9.9,9.9-9.9c6.7,0,9.1,3.8,9.1,8c0,5.3-4,9.8-8.3,12.4h8.4V46h-19V39.9z"/>
	<path id="Icon_awesome-arrow-right-7" class="st0" d="M167.4,52.7l0.5-0.5c0.2-0.2,0.6-0.2,0.8,0l0,0l4.5,4.5
		c0.2,0.2,0.2,0.6,0,0.8l0,0l-4.5,4.5c-0.2,0.2-0.6,0.2-0.8,0l0,0l-0.5-0.5c-0.2-0.2-0.2-0.6,0-0.8l0,0l2.8-2.6h-6.6
		c-0.3,0-0.6-0.2-0.6-0.6l0,0v-0.7c0-0.3,0.2-0.6,0.6-0.6h6.6l-2.8-2.6C167.2,53.3,167.2,52.9,167.4,52.7L167.4,52.7L167.4,52.7z"/>
</g>
<g>
	<path class="st2" d="M329.2,0h63.9c1.6,0,2.9,1.3,2.9,2.9v63.9c0,1.6-1.3,2.9-2.9,2.9h-63.9c-1.6,0-2.9-1.3-2.9-2.9V2.9
		C326.3,1.3,327.6,0,329.2,0z"/>
	<path class="st1" d="M378.5,50H396v14.1h-17.5c-3.2,0-5.8-2.6-5.8-5.8v-2.6C372.8,52.6,375.3,50,378.5,50z"/>
	<path class="st1" d="M365.7,42.3h-11.5v-6.8L365.1,20h8.8v15.3h2.6v7h-2.6v4h-8.2V42.3L365.7,42.3z M366.3,35.3v-6.1l-4,6.1H366.3z
		"/>
	<path id="Icon_awesome-arrow-right-8" class="st2" d="M385,52.7l0.5-0.5c0.2-0.2,0.6-0.2,0.8,0l0,0l4.5,4.5c0.2,0.2,0.2,0.6,0,0.8
		l0,0l-4.5,4.5c-0.2,0.2-0.6,0.2-0.8,0l0,0l-0.5-0.5c-0.2-0.2-0.2-0.6,0-0.8l0,0l2.8-2.6h-6.6c-0.3,0-0.5-0.2-0.5-0.6l0,0v-0.7
		c0-0.3,0.2-0.6,0.5-0.6h6.6l-2.8-2.6C384.8,53.3,384.7,52.9,385,52.7L385,52.7L385,52.7z"/>
</g>
<g>
	<path class="st3" d="M546.8,0h63.9c1.6,0,2.9,1.3,2.9,2.9v63.9c0,1.6-1.3,2.9-2.9,2.9h-63.9c-1.6,0-2.9-1.3-2.9-2.9V2.9
		C543.9,1.3,545.2,0,546.8,0z"/>
	<path class="st1" d="M596.1,50h17.5v14.1h-17.5c-3.2,0-5.8-2.6-5.8-5.8v-2.6C590.3,52.6,592.9,50,596.1,50z"/>
	<path class="st1" d="M583.2,27.7c-0.3-1.4-0.7-2.1-1.9-2.1c-2,0-2.3,2.2-2.3,5.8c0.9-1.3,2.6-2.2,4.7-2.2c4.6,0,7.7,2.8,7.7,8.4
		s-3.6,9-9.5,9c-8.3,0-10.2-5.9-10.2-13.5c0-9.9,2.9-14.1,10-14.1c6.3,0,8.8,4.3,9,8.6L583.2,27.7L583.2,27.7z M579.5,37.5
		c0,1.5,0.8,2.2,2.2,2.2s2.2-0.7,2.2-2.2c0-1.4-0.9-2.1-2.2-2.1C580.4,35.4,579.5,36.1,579.5,37.5L579.5,37.5z"/>
	<path id="Icon_awesome-arrow-right-9" class="st3" d="M602.5,52.7l0.5-0.5c0.2-0.2,0.6-0.2,0.8,0l0,0l4.5,4.5
		c0.2,0.2,0.2,0.6,0,0.8l0,0l-4.5,4.5c-0.2,0.2-0.6,0.2-0.8,0l0,0l-0.5-0.5c-0.2-0.2-0.2-0.6,0-0.8l0,0l2.8-2.6h-6.6
		c-0.3,0-0.5-0.2-0.5-0.6l0,0v-0.7c0-0.3,0.2-0.6,0.5-0.6h6.6l-2.8-2.6C602.3,53.3,602.3,52.9,602.5,52.7L602.5,52.7L602.5,52.7z"/>
</g>
<g>
	<path class="st4" d="M111.6,90.4h63.9c1.6,0,2.9,1.3,2.9,2.9v63.9c0,1.6-1.3,2.9-2.9,2.9h-63.9c-1.6,0-2.9-1.3-2.9-2.9V93.3
		C108.8,91.7,110.1,90.4,111.6,90.4z"/>
	<path class="st1" d="M161,140.5h17.5v14.1H161c-3.2,0-5.8-2.6-5.8-5.8v-2.6C155.2,143,157.8,140.5,161,140.5z"/>
	<path class="st1" d="M137.1,116.6c0-3.8,3-7.2,9.7-7.2s9.7,3.4,9.7,7.2c0,2.6-1.2,4.4-3.1,5.5c2.5,1.4,3.7,3.6,3.7,6.5
		c0,5.8-4.8,8.6-10.3,8.6s-10.3-2.9-10.3-8.6c0-2.9,1.2-5.1,3.7-6.5C138.3,121,137.1,119.2,137.1,116.6L137.1,116.6z M144.4,128.1
		c0,1.4,0.8,2.5,2.4,2.5s2.4-1.1,2.4-2.5c0-1.5-0.9-2.5-2.4-2.5S144.4,126.6,144.4,128.1z M148.5,117.9c0-1.4-0.7-2.2-1.7-2.2
		s-1.7,0.8-1.7,2.2c0,1.5,0.8,2.2,1.7,2.2S148.5,119.4,148.5,117.9z"/>
	<path id="Icon_awesome-arrow-right-10" class="st4" d="M167.4,143.1l0.5-0.5c0.2-0.2,0.6-0.2,0.8,0l0,0l4.5,4.5
		c0.2,0.2,0.2,0.6,0,0.8l0,0l-4.5,4.5c-0.2,0.2-0.6,0.2-0.8,0l0,0l-0.5-0.5c-0.2-0.2-0.2-0.6,0-0.8l0,0l2.8-2.6h-6.6
		c-0.3,0-0.5-0.2-0.5-0.6l0,0v-0.7c0-0.3,0.2-0.6,0.5-0.6h6.6l-2.8-2.6C167.2,143.7,167.2,143.4,167.4,143.1L167.4,143.1
		L167.4,143.1z"/>
</g>
<g>
	<path class="st5" d="M329.2,90.4h63.9c1.6,0,2.9,1.3,2.9,2.9v63.9c0,1.6-1.3,2.9-2.9,2.9h-63.9c-1.6,0-2.9-1.3-2.9-2.9V93.3
		C326.3,91.7,327.6,90.4,329.2,90.4z"/>
	<path class="st1" d="M378.5,140.5H396v14.1h-17.5c-3.2,0-5.8-2.6-5.8-5.8v-2.6C372.8,143,375.3,140.5,378.5,140.5z"/>
	<g>
		<path class="st1" d="M344.3,117.6h-3.9V110h12.4v26.8h-8.5L344.3,117.6L344.3,117.6z"/>
		<path class="st1" d="M366.9,109.4c7.7,0,11,5.6,11,13.6s-3.3,13.6-11,13.6s-11-5.6-11-13.6S359.1,109.4,366.9,109.4z M366.9,117.1
			c-2.7,0-3,2.6-3,5.9s0.3,5.9,3,5.9s3-2.6,3-5.9S369.5,117.1,366.9,117.1z"/>
	</g>
	<path id="Icon_awesome-arrow-right-11" class="st5" d="M385,143.1l0.5-0.5c0.2-0.2,0.6-0.2,0.8,0l0,0l4.5,4.5
		c0.2,0.2,0.2,0.6,0,0.8l0,0l-4.5,4.5c-0.2,0.2-0.6,0.2-0.8,0l0,0l-0.5-0.5c-0.2-0.2-0.2-0.6,0-0.8l0,0l2.8-2.6h-6.6
		c-0.3,0-0.5-0.2-0.5-0.6l0,0v-0.7c0-0.3,0.2-0.6,0.5-0.6h6.6l-2.8-2.6C384.8,143.7,384.8,143.4,385,143.1L385,143.1L385,143.1z"/>
</g>
<g>
	<path class="st6" d="M546.8,90.4h63.9c1.6,0,2.9,1.3,2.9,2.9v63.9c0,1.6-1.3,2.9-2.9,2.9h-63.9c-1.6,0-2.9-1.3-2.9-2.9V93.3
		C543.9,91.7,545.2,90.4,546.8,90.4z"/>
	<path class="st1" d="M596.1,140.5h17.5v14.1h-17.5c-3.2,0-5.8-2.6-5.8-5.8v-2.6C590.3,143,592.9,140.5,596.1,140.5z"/>
	<g>
		<path class="st1" d="M561.9,117.6H558V110h12.4v26.8h-8.5V117.6L561.9,117.6z"/>
		<path class="st1" d="M573.3,130.3c5.2-3.9,10.6-8.4,10.6-12.2c0-1.2-0.5-1.8-1.4-1.8s-1.6,0.9-1.5,3h-7.9c0.3-7.1,4.9-9.9,9.9-9.9
			c6.7,0,9.1,3.8,9.1,8c0,5.3-4,9.8-8.3,12.4h8.4v6.6h-19L573.3,130.3L573.3,130.3z"/>
	</g>
	<path id="Icon_awesome-arrow-right-12" class="st6" d="M602.5,143.1l0.5-0.5c0.2-0.2,0.6-0.2,0.8,0l0,0l4.5,4.5
		c0.2,0.2,0.2,0.6,0,0.8l0,0l-4.5,4.5c-0.2,0.2-0.6,0.2-0.8,0l0,0l-0.5-0.5c-0.2-0.2-0.2-0.6,0-0.8l0,0l2.8-2.6h-6.6
		c-0.3,0-0.5-0.2-0.5-0.6l0,0v-0.7c0-0.3,0.2-0.6,0.5-0.6h6.6l-2.8-2.6C602.3,143.7,602.3,143.4,602.5,143.1L602.5,143.1
		L602.5,143.1z"/>
</g>
</svg>
