<?xml version="1.0" encoding="UTF-8"?><svg xmlns="http://www.w3.org/2000/svg" xmlns:xlink="http://www.w3.org/1999/xlink" viewBox="0 0 714 403"><defs><style>.cls-1{fill:#fff;}.cls-2{fill:url(#_åçûìÿííûé_ãðàäèåíò_24-6);}.cls-2,.cls-3,.cls-4,.cls-5,.cls-6,.cls-7,.cls-8,.cls-9,.cls-10,.cls-11,.cls-12,.cls-13{mix-blend-mode:multiply;}.cls-3{fill:url(#_åçûìÿííûé_ãðàäèåíò_24);}.cls-4{fill:url(#_åçûìÿííûé_ãðàäèåíò_24-2);}.cls-5{fill:url(#_åçûìÿííûé_ãðàäèåíò_24-10);}.cls-6{fill:url(#_åçûìÿííûé_ãðàäèåíò_24-4);}.cls-14{isolation:isolate;}.cls-7{fill:url(#_åçûìÿííûé_ãðàäèåíò_24-7);}.cls-8{fill:url(#_åçûìÿííûé_ãðàäèåíò_24-8);}.cls-15{fill:#314a5e;}.cls-9{fill:url(#_åçûìÿííûé_ãðàäèåíò_24-5);}.cls-10{fill:url(#_åçûìÿííûé_ãðàäèåíò_24-9);}.cls-16{fill:#41647d;}.cls-11{fill:url(#_åçûìÿííûé_ãðàäèåíò_24-11);}.cls-12{fill:url(#_åçûìÿííûé_ãðàäèåíò_24-3);}.cls-13{fill:url(#_åçûìÿííûé_ãðàäèåíò_24-12);}.cls-17{fill:#ffa800;}.cls-18{fill:#506d8f;}</style><radialGradient id="_åçûìÿííûé_ãðàäèåíò_24" cx="7557.74" cy="-626.71" fx="7557.74" fy="-626.71" r="8.26" gradientTransform="translate(899.07 12108.96) rotate(-90) scale(1.59 .62)" gradientUnits="userSpaceOnUse"><stop offset=".08" stop-color="#000"/><stop offset=".19" stop-color="#373737"/><stop offset=".3" stop-color="#6b6b6b"/><stop offset=".42" stop-color="#989898"/><stop offset=".54" stop-color="#bdbdbd"/><stop offset=".66" stop-color="#dadada"/><stop offset=".77" stop-color="#eee"/><stop offset=".89" stop-color="#fafafa"/><stop offset="1" stop-color="#fff"/></radialGradient><radialGradient id="_åçûìÿííûé_ãðàäèåíò_24-2" cx="8228.62" cy="792.79" fx="8228.62" fy="792.79" r="8.26" gradientTransform="translate(13684.43 -454.36) rotate(180) scale(1.6 -.68)" xlink:href="#_åçûìÿííûé_ãðàäèåíò_24"/><radialGradient id="_åçûìÿííûé_ãðàäèåíò_24-3" cx="7405.75" cy="-630.28" fx="7405.75" fy="-630.28" gradientTransform="translate(-11286.23 -75.77) scale(1.59 -.62)" xlink:href="#_åçûìÿííûé_ãðàäèåíò_24"/><radialGradient id="_åçûìÿííûé_ãðàäèåíò_24-4" cx="8266.71" cy="1135.3" fx="8266.71" fy="1135.3" r="8.26" gradientTransform="translate(1290.05 -12916.65) rotate(90) scale(1.6 .68)" xlink:href="#_åçûìÿííûé_ãðàäèåíò_24"/><radialGradient id="_åçûìÿííûé_ãðàäèåíò_24-5" cx="7492.09" cy="-537.35" fx="7492.09" fy="-537.35" r="8.26" gradientTransform="translate(-11355.93 525.61) scale(1.59 .62)" xlink:href="#_åçûìÿííûé_ãðàäèåíò_24"/><radialGradient id="_åçûìÿííûé_ãðàäèåíò_24-6" cx="8210.69" cy="960.95" fx="8210.69" fy="960.95" r="8.26" gradientTransform="translate(1215.02 13347.71) rotate(-90) scale(1.6 -.68)" xlink:href="#_åçûìÿííûé_ãðàäèåíò_24"/><radialGradient id="_åçûìÿííûé_ãðàäèåíò_24-7" cx="7560.22" cy="-1277.95" fx="7560.22" fy="-1277.95" gradientTransform="translate(-603.05 -11709.94) rotate(90) scale(1.59 .62)" xlink:href="#_åçûìÿííûé_ãðàäèåíò_24"/><radialGradient id="_åçûìÿííûé_ãðàäèåíò_24-8" cx="8474.37" cy="642.36" fx="8474.37" fy="642.36" r="8.26" gradientTransform="translate(-13375.34 754.4) scale(1.6 -.68)" xlink:href="#_åçûìÿííûé_ãðàäèåíò_24"/><radialGradient id="_åçûìÿííûé_ãðàäèåíò_24-9" cx="7403.5" cy="20.97" fx="7403.5" fy="20.97" gradientTransform="translate(183 -11702.45) rotate(90) scale(1.59 -.62)" xlink:href="#_åçûìÿííûé_ãðàäèåíò_24"/><radialGradient id="_åçûìÿííûé_ãðàäèåíò_24-10" cx="8020.9" cy="1285.21" fx="8020.9" fy="1285.21" r="8.26" gradientTransform="translate(-691.88 12925.8) rotate(-90) scale(1.6 .68)" xlink:href="#_åçûìÿííûé_ãðàäèåíò_24"/><radialGradient id="_åçûìÿííûé_ãðàäèåíò_24-11" cx="7296.14" cy="-955.58" fx="7296.14" fy="-955.58" r="8.26" gradientTransform="translate(11745.89 -383.4) rotate(-180) scale(1.59 .62)" xlink:href="#_åçûìÿííûé_ãðàäèåíò_24"/><radialGradient id="_åçûìÿííûé_ãðàäèåíò_24-12" cx="8416.26" cy="1310.55" fx="8416.26" fy="1310.55" r="8.26" gradientTransform="translate(-752.11 -13273.69) rotate(90) scale(1.6 -.68)" xlink:href="#_åçûìÿííûé_ãðàäèåíò_24"/></defs><g class="cls-14"><g id="Camada_1"><rect class="cls-18" x="249.77" y="43.82" width="205.27" height="38.36" rx="19.18" ry="19.18"/><g><path class="cls-1" d="M331.56,65.48c-1.39,0-2.38-.78-2.4-1.92h.97c.06,.58,.47,1.15,1.43,1.15,.88,0,1.39-.5,1.39-1.15,0-1.87-3.75-.68-3.75-3.25,0-1.14,.93-1.92,2.3-1.92s2.19,.73,2.3,1.78h-.99c-.06-.47-.5-.99-1.34-1-.75-.02-1.33,.37-1.33,1.11,0,1.79,3.74,.68,3.74,3.24,0,.98-.81,1.96-2.31,1.96Z"/><path class="cls-1" d="M338.93,59.21h-2.83v2.32h2.53v.75h-2.53v2.39h2.83v.75h-3.73v-6.94h3.73v.75Z"/><path class="cls-1" d="M341.2,58.48v6.2h2.43v.74h-3.33v-6.93h.91Z"/><path class="cls-1" d="M348.33,59.21h-2.83v2.32h2.53v.75h-2.53v2.39h2.83v.75h-3.73v-6.94h3.73v.75Z"/><path class="cls-1" d="M352.82,58.39c1.5,0,2.7,.76,3.21,2.1h-1.08c-.38-.84-1.11-1.3-2.13-1.3-1.45,0-2.54,1.05-2.54,2.76s1.08,2.75,2.54,2.75c1.01,0,1.75-.47,2.13-1.29h1.08c-.48,1.22-1.53,1.96-2.87,2.07v.53c.77-.01,1.28,.33,1.28,.98s-.51,1.02-1.21,1.02h-1.14v-.59h.97c.43,0,.64-.12,.64-.44s-.21-.43-.64-.43h-.5v-1.08c-1.81-.12-3.2-1.53-3.2-3.52s1.52-3.55,3.46-3.55Z"/><path class="cls-1" d="M361.47,63.87h-3.02l-.56,1.54h-.96l2.51-6.89h1.04l2.5,6.89h-.96l-.56-1.54Zm-1.98-6.98c.53,0,.73,.46,1.13,.46,.22,0,.4-.14,.44-.43h.52c-.08,.68-.48,1.03-1,1.03s-.74-.46-1.13-.46c-.22,0-.39,.14-.43,.44h-.53c.1-.69,.48-1.04,1-1.04Zm.47,2.75l-1.25,3.5h2.51l-1.25-3.5Z"/><path class="cls-1" d="M367.22,65.48c-1.95,0-3.48-1.46-3.48-3.54s1.53-3.54,3.48-3.54,3.48,1.46,3.48,3.54-1.52,3.54-3.48,3.54Zm0-.79c1.46,0,2.56-1.06,2.56-2.76s-1.09-2.76-2.56-2.76-2.56,1.05-2.56,2.76,1.09,2.76,2.56,2.76Z"/></g><rect class="cls-18" x="249.77" y="320.82" width="205.27" height="38.36" rx="19.18" ry="19.18"/><g><path class="cls-1" d="M311.13,340.87h-3.02l-.56,1.54h-.96l2.51-6.89h1.04l2.5,6.89h-.96l-.56-1.54Zm-1.51-4.24l-1.25,3.5h2.51l-1.25-3.5Z"/><path class="cls-1" d="M315.97,335.48c1.63,0,2.41,.91,2.41,2.04,0,.89-.49,1.73-1.65,1.99l1.74,2.91h-1.08l-1.65-2.84h-1.09v2.84h-.91v-6.93h2.24Zm0,.75h-1.33v2.63h1.33c1.02,0,1.47-.56,1.47-1.33s-.44-1.29-1.47-1.29Z"/><path class="cls-1" d="M319.78,335.53h.98l2.55,5.69,2.55-5.69h.96v6.88h-.91v-5.13l-2.29,5.13h-.64l-2.3-5.14v5.14h-.91v-6.88Z"/><path class="cls-1" d="M332.44,340.87h-3.02l-.56,1.54h-.96l2.51-6.89h1.04l2.5,6.89h-.96l-.56-1.54Zm-1.51-4.24l-1.25,3.5h2.51l-1.25-3.5Z"/><path class="cls-1" d="M339.17,336.19l-3.36,5.43h3.38v.79h-4.46v-.72l3.36-5.43h-3.32v-.79h4.4v.72Z"/><path class="cls-1" d="M344.16,336.21h-2.83v2.32h2.53v.75h-2.53v2.39h2.83v.75h-3.73v-6.94h3.73v.75Z"/><path class="cls-1" d="M350.98,335.47v6.94h-.91l-3.64-5.52v5.52h-.91v-6.94h.91l3.64,5.51v-5.51h.91Z"/><path class="cls-1" d="M356.61,340.87h-3.02l-.56,1.54h-.96l2.51-6.89h1.04l2.5,6.89h-.96l-.56-1.54Zm-1.51-4.24l-1.25,3.5h2.51l-1.25-3.5Z"/><path class="cls-1" d="M359.22,335.53h.97l2.55,5.69,2.55-5.69h.96v6.88h-.91v-5.13l-2.29,5.13h-.64l-2.3-5.14v5.14h-.91v-6.88Z"/><path class="cls-1" d="M371.51,336.21h-2.83v2.32h2.53v.75h-2.53v2.39h2.83v.75h-3.73v-6.94h3.73v.75Z"/><path class="cls-1" d="M378.33,335.47v6.94h-.91l-3.64-5.52v5.52h-.91v-6.94h.91l3.64,5.51v-5.51h.91Z"/><path class="cls-1" d="M379.44,335.48h4.7v.74h-1.89v6.2h-.91v-6.2h-1.9v-.74Z"/><path class="cls-1" d="M388.39,342.48c-1.95,0-3.48-1.46-3.48-3.54s1.53-3.54,3.48-3.54,3.48,1.46,3.48,3.54-1.52,3.54-3.48,3.54Zm0-.79c1.46,0,2.56-1.06,2.56-2.76s-1.09-2.76-2.56-2.76-2.56,1.05-2.56,2.76,1.09,2.76,2.56,2.76Z"/></g><rect class="cls-18" x="461.92" y="128.34" width="205.27" height="38.36" rx="19.18" ry="19.18"/><rect class="cls-18" x="41.82" y="128.34" width="205.27" height="38.36" rx="19.18" ry="19.18"/><g><path class="cls-1" d="M82.17,137.03h.91v4.39c0,1.27,.69,1.82,1.71,1.82s1.7-.55,1.7-1.82v-4.39h.91v4.38c0,1.8-1.18,2.63-2.62,2.63s-2.61-.83-2.61-2.63v-4.38Z"/><path class="cls-1" d="M88.47,137.03h4.7v.74h-1.89v6.2h-.91v-6.2h-1.9v-.74Z"/><path class="cls-1" d="M94.28,137.03h.91v6.93h-.91v-6.93Z"/><path class="cls-1" d="M97.63,137.03v6.2h2.43v.74h-3.33v-6.93h.91Z"/><path class="cls-1" d="M101.02,137.03h.91v6.93h-.91v-6.93Z"/><path class="cls-1" d="M107.6,137.75l-3.36,5.43h3.38v.79h-4.46v-.72l3.36-5.43h-3.32v-.79h4.4v.72Z"/><path class="cls-1" d="M112.95,142.43h-3.02l-.56,1.54h-.96l2.51-6.89h1.04l2.5,6.89h-.96l-.56-1.54Zm-1.51-4.24l-1.25,3.5h2.51l-1.25-3.5Z"/><path class="cls-1" d="M118.68,136.94c1.5,0,2.7,.76,3.21,2.1h-1.08c-.38-.84-1.11-1.3-2.13-1.3-1.45,0-2.54,1.05-2.54,2.76s1.08,2.75,2.54,2.75c1.01,0,1.75-.47,2.13-1.29h1.08c-.48,1.22-1.53,1.96-2.87,2.07v.53c.77-.01,1.28,.33,1.28,.98s-.51,1.02-1.21,1.02h-1.14v-.59h.97c.43,0,.64-.12,.64-.44s-.21-.43-.64-.43h-.5v-1.08c-1.81-.12-3.2-1.53-3.2-3.52s1.52-3.55,3.46-3.55Z"/><path class="cls-1" d="M127.33,142.43h-3.02l-.56,1.54h-.96l2.51-6.89h1.04l2.5,6.89h-.96l-.56-1.54Zm-1.98-6.98c.53,0,.73,.46,1.13,.46,.22,0,.4-.14,.44-.43h.52c-.08,.68-.48,1.03-.99,1.03s-.74-.46-1.13-.46c-.22,0-.39,.14-.43,.44h-.53c.1-.69,.48-1.04,1-1.04Zm.47,2.75l-1.25,3.5h2.51l-1.25-3.5Z"/><path class="cls-1" d="M133.07,144.04c-1.95,0-3.48-1.46-3.48-3.54s1.53-3.54,3.48-3.54,3.48,1.46,3.48,3.54-1.52,3.54-3.48,3.54Zm0-.79c1.46,0,2.56-1.06,2.56-2.76s-1.09-2.76-2.56-2.76-2.56,1.05-2.56,2.76,1.09,2.76,2.56,2.76Z"/><path class="cls-1" d="M138.04,139.77c-.35,0-.62-.27-.62-.62s.27-.62,.62-.62c.33,0,.6,.27,.6,.62s-.27,.62-.6,.62Zm0,4.26c-.35,0-.62-.27-.62-.62s.27-.62,.62-.62c.33,0,.6,.27,.6,.62s-.27,.62-.6,.62Z"/><path class="cls-1" d="M144.76,141.07h-1.33v2.9h-.91v-6.93h2.24c1.63,0,2.4,.9,2.4,2.03,0,1.05-.68,2.01-2.4,2.01Zm0-.75c1.03,0,1.47-.49,1.47-1.26s-.44-1.28-1.47-1.28h-1.33v2.55h1.33Z"/><path class="cls-1" d="M150.52,137.03c1.63,0,2.41,.91,2.41,2.04,0,.89-.49,1.73-1.65,1.99l1.74,2.9h-1.08l-1.65-2.84h-1.09v2.84h-.91v-6.93h2.24Zm0,.75h-1.33v2.63h1.33c1.02,0,1.47-.56,1.47-1.33s-.44-1.29-1.47-1.29Z"/><path class="cls-1" d="M158.05,137.77h-2.83v2.32h2.53v.75h-2.53v2.39h2.83v.75h-3.73v-6.94h3.73v.75Z"/><path class="cls-1" d="M161.62,144.04c-1.39,0-2.38-.78-2.4-1.92h.97c.06,.58,.47,1.15,1.43,1.15,.88,0,1.39-.5,1.39-1.15,0-1.87-3.75-.68-3.75-3.25,0-1.14,.93-1.92,2.3-1.92s2.19,.73,2.3,1.78h-.99c-.06-.47-.5-.99-1.34-1-.75-.02-1.33,.37-1.33,1.11,0,1.79,3.74,.68,3.74,3.24,0,.98-.81,1.96-2.31,1.96Z"/><path class="cls-1" d="M168.38,136.94c1.5,0,2.7,.76,3.21,2.1h-1.08c-.38-.84-1.11-1.3-2.13-1.3-1.45,0-2.54,1.05-2.54,2.76s1.08,2.75,2.54,2.75c1.01,0,1.75-.47,2.13-1.29h1.08c-.52,1.33-1.71,2.08-3.21,2.08-1.94,0-3.46-1.45-3.46-3.53s1.52-3.55,3.46-3.55Z"/><path class="cls-1" d="M175.18,137.03c1.63,0,2.41,.91,2.41,2.04,0,.89-.49,1.73-1.65,1.99l1.74,2.9h-1.08l-1.65-2.84h-1.09v2.84h-.91v-6.93h2.24Zm0,.75h-1.33v2.63h1.33c1.02,0,1.47-.56,1.47-1.33s-.44-1.29-1.47-1.29Z"/><path class="cls-1" d="M178.98,137.03h.91v6.93h-.91v-6.93Z"/><path class="cls-1" d="M184.55,136.94c1.5,0,2.7,.76,3.21,2.1h-1.08c-.38-.84-1.11-1.3-2.13-1.3-1.45,0-2.54,1.05-2.54,2.76s1.08,2.75,2.54,2.75c1.01,0,1.75-.47,2.13-1.29h1.08c-.48,1.22-1.53,1.96-2.87,2.07v.53c.77-.01,1.28,.33,1.28,.98s-.51,1.02-1.21,1.02h-1.14v-.59h.97c.43,0,.64-.12,.64-.44s-.21-.43-.64-.43h-.5v-1.08c-1.81-.12-3.2-1.53-3.2-3.52s1.52-3.55,3.46-3.55Z"/><path class="cls-1" d="M193.2,142.43h-3.02l-.56,1.54h-.96l2.51-6.89h1.04l2.5,6.89h-.96l-.56-1.54Zm-1.98-6.98c.53,0,.73,.46,1.13,.46,.22,0,.4-.14,.44-.43h.52c-.08,.68-.48,1.03-.99,1.03s-.74-.46-1.13-.46c-.22,0-.39,.14-.43,.44h-.53c.1-.69,.48-1.04,1-1.04Zm.47,2.75l-1.25,3.5h2.51l-1.25-3.5Z"/><path class="cls-1" d="M198.95,144.04c-1.95,0-3.48-1.46-3.48-3.54s1.53-3.54,3.48-3.54,3.48,1.46,3.48,3.54-1.52,3.54-3.48,3.54Zm0-.79c1.46,0,2.56-1.06,2.56-2.76s-1.09-2.76-2.56-2.76-2.56,1.05-2.56,2.76,1.09,2.76,2.56,2.76Z"/><path class="cls-1" d="M203.56,142.71h.99l-1.11,2.68h-.61l.73-2.68Z"/><path class="cls-1" d="M101.72,152.45c0,2.15-1.4,3.45-3.68,3.45h-2.16v-6.93h2.16c2.28,0,3.68,1.33,3.68,3.48Zm-3.68,2.71c1.81,0,2.76-1.01,2.76-2.71s-.94-2.75-2.76-2.75h-1.25v5.45h1.25Z"/><path class="cls-1" d="M102.91,148.97h.91v6.93h-.91v-6.93Z"/><path class="cls-1" d="M107.56,155.97c-1.39,0-2.38-.78-2.4-1.92h.97c.06,.58,.47,1.15,1.43,1.15,.88,0,1.39-.5,1.39-1.15,0-1.87-3.75-.68-3.75-3.25,0-1.14,.93-1.92,2.3-1.92s2.19,.73,2.3,1.78h-.99c-.06-.47-.5-.99-1.34-1-.75-.02-1.33,.37-1.33,1.11,0,1.79,3.74,.68,3.74,3.24,0,.98-.81,1.96-2.31,1.96Z"/><path class="cls-1" d="M113.43,153.01h-1.33v2.9h-.91v-6.93h2.24c1.63,0,2.4,.9,2.4,2.03,0,1.05-.68,2.01-2.4,2.01Zm0-.75c1.03,0,1.47-.49,1.47-1.26s-.44-1.28-1.47-1.28h-1.33v2.55h1.33Z"/><path class="cls-1" d="M120.68,149.7h-2.83v2.32h2.53v.75h-2.53v2.39h2.83v.75h-3.73v-6.94h3.73v.75Z"/><path class="cls-1" d="M127.51,148.96v6.94h-.91l-3.64-5.52v5.52h-.91v-6.94h.91l3.64,5.51v-5.51h.91Z"/><path class="cls-1" d="M131.24,155.97c-1.39,0-2.38-.78-2.4-1.92h.97c.06,.58,.47,1.15,1.43,1.15,.88,0,1.39-.5,1.39-1.15,0-1.87-3.75-.68-3.75-3.25,0-1.14,.93-1.92,2.3-1.92s2.19,.73,2.3,1.78h-.99c-.06-.47-.5-.99-1.34-1-.75-.02-1.33,.37-1.33,1.11,0,1.79,3.74,.68,3.74,3.24,0,.98-.81,1.96-2.31,1.96Z"/><path class="cls-1" d="M138.98,154.36h-3.02l-.56,1.54h-.96l2.51-6.89h1.04l2.5,6.89h-.96l-.56-1.54Zm-1.51-4.24l-1.25,3.5h2.51l-1.25-3.5Z"/><path class="cls-1" d="M144.71,148.88c1.5,0,2.7,.76,3.21,2.1h-1.08c-.38-.84-1.11-1.3-2.13-1.3-1.45,0-2.54,1.05-2.54,2.76s1.08,2.75,2.54,2.75c1.01,0,1.75-.47,2.13-1.29h1.08c-.48,1.22-1.53,1.96-2.87,2.07v.53c.77-.01,1.28,.33,1.28,.98s-.51,1.02-1.21,1.02h-1.14v-.59h.97c.43,0,.64-.12,.64-.44s-.21-.43-.64-.43h-.5v-1.08c-1.81-.12-3.2-1.53-3.2-3.52s1.52-3.55,3.46-3.55Z"/><path class="cls-1" d="M153.36,154.36h-3.02l-.56,1.54h-.96l2.51-6.89h1.04l2.5,6.89h-.96l-.56-1.54Zm-1.98-6.98c.53,0,.73,.46,1.13,.46,.22,0,.4-.14,.44-.43h.52c-.08,.68-.48,1.03-.99,1.03s-.74-.46-1.13-.46c-.22,0-.39,.14-.43,.44h-.53c.1-.69,.48-1.04,1-1.04Zm.47,2.75l-1.25,3.5h2.51l-1.25-3.5Z"/><path class="cls-1" d="M159.11,155.97c-1.95,0-3.48-1.46-3.48-3.54s1.53-3.54,3.48-3.54,3.48,1.46,3.48,3.54-1.52,3.54-3.48,3.54Zm0-.79c1.46,0,2.56-1.06,2.56-2.76s-1.09-2.76-2.56-2.76-2.56,1.05-2.56,2.76,1.09,2.76,2.56,2.76Z"/><path class="cls-1" d="M170.16,149.7h-2.83v2.32h2.53v.75h-2.53v2.39h2.83v.75h-3.73v-6.94h3.73v.75Z"/><path class="cls-1" d="M174.17,148.97h.91v4.39c0,1.27,.69,1.82,1.71,1.82s1.7-.55,1.7-1.82v-4.39h.91v4.38c0,1.8-1.18,2.63-2.62,2.63s-2.61-.83-2.61-2.63v-4.38Z"/><path class="cls-1" d="M183.1,155.97c-1.39,0-2.38-.78-2.4-1.92h.97c.06,.58,.47,1.15,1.43,1.15,.88,0,1.39-.5,1.39-1.15,0-1.87-3.75-.68-3.75-3.25,0-1.14,.93-1.92,2.3-1.92s2.19,.73,2.3,1.78h-.99c-.06-.47-.5-.99-1.34-1-.75-.02-1.33,.37-1.33,1.11,0,1.79,3.74,.68,3.74,3.24,0,.98-.81,1.96-2.31,1.96Z"/><path class="cls-1" d="M189.88,155.97c-1.95,0-3.48-1.46-3.48-3.54s1.53-3.54,3.48-3.54,3.48,1.46,3.48,3.54-1.52,3.54-3.48,3.54Zm0-.79c1.46,0,2.56-1.06,2.56-2.76s-1.09-2.76-2.56-2.76-2.56,1.05-2.56,2.76,1.09,2.76,2.56,2.76Z"/></g><rect class="cls-18" x="41.82" y="232.82" width="205.27" height="38.36" rx="19.18" ry="19.18"/><g><path class="cls-1" d="M117.74,250.96c0,2.15-1.4,3.45-3.68,3.45h-2.16v-6.93h2.16c2.28,0,3.68,1.33,3.68,3.48Zm-3.68,2.71c1.81,0,2.76-1.01,2.76-2.71s-.94-2.75-2.76-2.75h-1.25v5.45h1.25Z"/><path class="cls-1" d="M118.93,247.48h.91v6.93h-.91v-6.93Z"/><path class="cls-1" d="M123.58,254.48c-1.39,0-2.38-.78-2.4-1.92h.97c.06,.58,.47,1.15,1.43,1.15,.88,0,1.39-.5,1.39-1.15,0-1.87-3.75-.68-3.75-3.25,0-1.14,.93-1.92,2.3-1.92s2.19,.73,2.3,1.78h-.99c-.06-.47-.5-1-1.34-1-.75-.02-1.33,.37-1.33,1.11,0,1.79,3.74,.68,3.74,3.24,0,.99-.81,1.96-2.31,1.96Z"/><path class="cls-1" d="M126.79,247.48h4.7v.74h-1.89v6.2h-.91v-6.2h-1.9v-.74Z"/><path class="cls-1" d="M134.83,247.48c1.63,0,2.41,.91,2.41,2.04,0,.89-.49,1.73-1.65,1.99l1.74,2.91h-1.08l-1.65-2.84h-1.09v2.84h-.91v-6.93h2.24Zm0,.75h-1.33v2.63h1.33c1.02,0,1.47-.56,1.47-1.33s-.44-1.29-1.47-1.29Z"/><path class="cls-1" d="M138.64,247.48h.91v6.93h-.91v-6.93Z"/><path class="cls-1" d="M143.67,254.41h-2.59v-6.93h2.49c1.46,0,2.2,.8,2.2,1.76,0,.88-.55,1.38-1.21,1.6,.76,.13,1.37,.86,1.37,1.71,0,1.04-.83,1.86-2.26,1.86Zm-.18-6.19h-1.5v2.25h1.52c.85,0,1.33-.42,1.33-1.12s-.47-1.12-1.35-1.12Zm.07,3h-1.57v2.45h1.6c.9,0,1.43-.45,1.43-1.2s-.58-1.24-1.46-1.24Z"/><path class="cls-1" d="M147.16,247.48h.91v4.39c0,1.27,.69,1.82,1.71,1.82s1.7-.55,1.7-1.82v-4.39h.91v4.38c0,1.8-1.18,2.63-2.62,2.63s-2.61-.83-2.61-2.63v-4.38Z"/><path class="cls-1" d="M153.89,247.48h.91v6.93h-.91v-6.93Z"/><path class="cls-1" d="M159.47,247.39c1.5,0,2.7,.76,3.21,2.1h-1.08c-.38-.84-1.11-1.3-2.13-1.3-1.45,0-2.54,1.05-2.54,2.76s1.08,2.75,2.54,2.75c1.01,0,1.75-.47,2.13-1.29h1.08c-.48,1.22-1.53,1.96-2.87,2.07v.53c.77-.01,1.28,.33,1.28,.98s-.51,1.02-1.21,1.02h-1.14v-.59h.97c.43,0,.64-.12,.64-.44s-.21-.43-.64-.43h-.5v-1.08c-1.81-.12-3.2-1.53-3.2-3.52s1.52-3.55,3.46-3.55Z"/><path class="cls-1" d="M168.12,252.87h-3.02l-.56,1.54h-.96l2.51-6.89h1.04l2.5,6.89h-.96l-.56-1.54Zm-1.98-6.98c.53,0,.73,.46,1.13,.46,.22,0,.4-.14,.44-.43h.52c-.08,.68-.48,1.03-1,1.03s-.74-.46-1.13-.46c-.22,0-.39,.14-.43,.44h-.53c.1-.69,.48-1.04,1-1.04Zm.47,2.75l-1.25,3.5h2.51l-1.25-3.5Z"/><path class="cls-1" d="M173.86,254.48c-1.95,0-3.48-1.46-3.48-3.54s1.53-3.54,3.48-3.54,3.48,1.46,3.48,3.54-1.52,3.54-3.48,3.54Zm0-.79c1.46,0,2.56-1.06,2.56-2.76s-1.09-2.76-2.56-2.76-2.56,1.05-2.56,2.76,1.09,2.76,2.56,2.76Z"/></g><rect class="cls-18" x="461.92" y="232.82" width="205.27" height="38.36" rx="19.18" ry="19.18"/><g><rect class="cls-17" x="269.11" y="159" width="175.77" height="85" rx="42.5" ry="42.5"/><g><path class="cls-1" d="M321.23,174.08h-1.88c-.26-.47-.74-.72-1.37-.72-1.09,0-1.82,.78-1.82,1.99,0,1.29,.74,2.05,1.96,2.05,.85,0,1.43-.45,1.69-1.23h-2.16v-1.25h3.7v1.58c-.36,1.2-1.52,2.41-3.36,2.41-2.09,0-3.56-1.46-3.56-3.55s1.46-3.56,3.55-3.56c1.67,0,2.89,.86,3.25,2.29Z"/><path class="cls-1" d="M326.56,173.24h-2.58v1.41h2.28v1.31h-2.28v1.53h2.58v1.36h-4.28v-6.98h4.28v1.36Z"/><path class="cls-1" d="M330.52,171.88c1.71,0,2.57,.98,2.57,2.2,0,.88-.48,1.7-1.55,2.02l1.61,2.77h-1.92l-1.45-2.64h-.41v2.64h-1.7v-6.98h2.85Zm-.1,1.41h-1.05v1.73h1.05c.64,0,.93-.33,.93-.88,0-.52-.3-.86-.93-.86Z"/><path class="cls-1" d="M338.43,173.24h-2.58v1.41h2.28v1.31h-2.28v1.53h2.58v1.36h-4.28v-6.98h4.28v1.36Z"/><path class="cls-1" d="M345.78,171.88v6.98h-1.7l-2.84-4.31v4.31h-1.7v-6.98h1.7l2.84,4.33v-4.33h1.7Z"/><path class="cls-1" d="M350.23,171.8c1.66,0,2.92,.94,3.31,2.45h-1.87c-.29-.6-.82-.9-1.46-.9-1.04,0-1.76,.78-1.76,2.01s.72,2.01,1.76,2.01c.65,0,1.17-.3,1.46-.9h1.87c-.4,1.51-1.65,2.44-3.31,2.44-2.06,0-3.51-1.46-3.51-3.55s1.45-3.56,3.51-3.56Z"/><path class="cls-1" d="M354.58,171.88h1.7v6.98h-1.7v-6.98Z"/><path class="cls-1" d="M361.87,177.63h-2.61l-.42,1.23h-1.78l2.53-6.98h1.97l2.53,6.98h-1.8l-.42-1.23Zm-1.3-3.87l-.86,2.56h1.72l-.87-2.56Z"/><path class="cls-1" d="M364.85,171.88h2.01l1.96,4.83,1.94-4.83h2v6.98h-1.7v-4.19l-1.56,4.19h-1.37l-1.57-4.2v4.2h-1.7v-6.98Z"/><path class="cls-1" d="M378.25,173.24h-2.58v1.41h2.28v1.31h-2.28v1.53h2.58v1.36h-4.28v-6.98h4.28v1.36Z"/><path class="cls-1" d="M385.6,171.88v6.98h-1.7l-2.84-4.31v4.31h-1.7v-6.98h1.7l2.84,4.33v-4.33h1.7Z"/><path class="cls-1" d="M386.46,171.88h5.4v1.36h-1.85v5.62h-1.7v-5.62h-1.85v-1.36Z"/><path class="cls-1" d="M396.01,178.93c-1.98,0-3.59-1.48-3.59-3.58s1.61-3.57,3.59-3.57,3.57,1.47,3.57,3.57-1.59,3.58-3.57,3.58Zm0-1.55c1.11,0,1.84-.81,1.84-2.03s-.73-2.03-1.84-2.03-1.85,.79-1.85,2.03,.72,2.03,1.85,2.03Z"/><path class="cls-1" d="M315.53,183.81h4.55v1.36h-2.84v1.47h2.13v1.32h-2.13v2.83h-1.7v-6.98Z"/><path class="cls-1" d="M320.97,183.81h1.7v6.98h-1.7v-6.98Z"/><path class="cls-1" d="M330.15,183.81v6.98h-1.7l-2.84-4.31v4.31h-1.7v-6.98h1.7l2.84,4.33v-4.33h1.7Z"/><path class="cls-1" d="M335.73,189.56h-2.61l-.42,1.23h-1.78l2.53-6.98h1.97l2.53,6.98h-1.8l-.42-1.23Zm-1.3-3.87l-.86,2.56h1.72l-.87-2.56Z"/><path class="cls-1" d="M344.96,183.81v6.98h-1.7l-2.84-4.31v4.31h-1.7v-6.98h1.7l2.84,4.33v-4.33h1.7Z"/><path class="cls-1" d="M349.41,183.73c1.66,0,2.92,.94,3.31,2.45h-1.87c-.29-.6-.82-.9-1.46-.9-1.04,0-1.76,.78-1.76,2.01s.72,2.01,1.76,2.01c.65,0,1.17-.3,1.46-.9h1.87c-.4,1.51-1.65,2.44-3.31,2.44-2.06,0-3.51-1.46-3.51-3.55s1.45-3.56,3.51-3.56Z"/><path class="cls-1" d="M353.76,183.81h1.7v6.98h-1.7v-6.98Z"/><path class="cls-1" d="M361.05,189.56h-2.61l-.42,1.23h-1.78l2.53-6.98h1.97l2.53,6.98h-1.8l-.42-1.23Zm-1.3-3.87l-.86,2.56h1.72l-.87-2.56Z"/><path class="cls-1" d="M364.03,183.81h2.01l1.96,4.83,1.94-4.83h2v6.98h-1.7v-4.19l-1.56,4.19h-1.37l-1.57-4.2v4.2h-1.7v-6.98Z"/><path class="cls-1" d="M377.43,185.17h-2.58v1.41h2.28v1.31h-2.28v1.53h2.58v1.36h-4.28v-6.98h4.28v1.36Z"/><path class="cls-1" d="M384.78,183.81v6.98h-1.7l-2.84-4.31v4.31h-1.7v-6.98h1.7l2.84,4.33v-4.33h1.7Z"/><path class="cls-1" d="M385.64,183.81h5.4v1.36h-1.85v5.62h-1.7v-5.62h-1.85v-1.36Z"/><path class="cls-1" d="M395.19,190.86c-1.98,0-3.59-1.48-3.59-3.58s1.61-3.57,3.59-3.57,3.57,1.47,3.57,3.57-1.59,3.58-3.57,3.58Zm0-1.55c1.11,0,1.84-.81,1.84-2.03s-.73-2.03-1.84-2.03-1.85,.79-1.85,2.03,.72,2.03,1.85,2.03Z"/><path class="cls-1" d="M306.85,195.74c1.71,0,2.57,.98,2.57,2.2,0,.88-.48,1.7-1.55,2.02l1.61,2.77h-1.92l-1.45-2.64h-.41v2.64h-1.7v-6.98h2.85Zm-.1,1.41h-1.05v1.73h1.05c.64,0,.93-.33,.93-.88,0-.52-.3-.86-.93-.86Z"/><path class="cls-1" d="M314.76,197.1h-2.58v1.41h2.28v1.31h-2.28v1.53h2.58v1.36h-4.28v-6.98h4.28v1.36Z"/><path class="cls-1" d="M319.09,195.66c1.66,0,2.92,.94,3.31,2.45h-1.87c-.29-.6-.82-.9-1.46-.9-1.04,0-1.76,.78-1.76,2.01s.72,2.01,1.76,2.01c.65,0,1.17-.3,1.46-.9h1.87c-.4,1.51-1.65,2.44-3.31,2.44-2.06,0-3.51-1.46-3.51-3.55s1.45-3.56,3.51-3.56Z"/><path class="cls-1" d="M323.41,195.74h1.7v4.18c0,.83,.41,1.3,1.21,1.3s1.23-.48,1.23-1.3v-4.18h1.7v4.17c0,1.93-1.35,2.89-2.96,2.89s-2.88-.96-2.88-2.89v-4.17Z"/><path class="cls-1" d="M333.31,195.74c1.71,0,2.57,.98,2.57,2.2,0,.88-.48,1.7-1.55,2.02l1.61,2.77h-1.92l-1.45-2.64h-.41v2.64h-1.7v-6.98h2.85Zm-.1,1.41h-1.05v1.73h1.05c.64,0,.93-.33,.93-.88,0-.52-.3-.86-.93-.86Z"/><path class="cls-1" d="M339.46,202.8c-1.5,0-2.68-.75-2.73-2.16h1.81c.05,.54,.39,.8,.87,.8s.82-.25,.82-.66c0-1.29-3.49-.6-3.47-3.07,0-1.32,1.08-2.06,2.55-2.06s2.55,.76,2.62,2.09h-1.84c-.03-.45-.35-.72-.81-.73-.41,0-.72,.2-.72,.64,0,1.21,3.45,.67,3.45,3,0,1.17-.92,2.15-2.55,2.15Z"/><path class="cls-1" d="M346.35,202.8c-1.98,0-3.59-1.48-3.59-3.58s1.61-3.57,3.59-3.57,3.57,1.47,3.57,3.57-1.59,3.58-3.57,3.58Zm0-1.55c1.11,0,1.84-.81,1.84-2.03s-.73-2.03-1.84-2.03-1.85,.79-1.85,2.03,.72,2.03,1.85,2.03Z"/><path class="cls-1" d="M353.39,202.8c-1.5,0-2.68-.75-2.73-2.16h1.81c.05,.54,.39,.8,.87,.8s.82-.25,.82-.66c0-1.29-3.49-.6-3.47-3.07,0-1.32,1.08-2.06,2.55-2.06s2.55,.76,2.62,2.09h-1.84c-.03-.45-.35-.72-.81-.73-.41,0-.72,.2-.72,.64,0,1.21,3.45,.67,3.45,3,0,1.17-.92,2.15-2.55,2.15Z"/><path class="cls-1" d="M363.44,199.85h-2.65v2.88h-1.7v-6.98h1.7v2.74h2.65v-2.74h1.7v6.98h-1.7v-2.88Z"/><path class="cls-1" d="M366.33,195.74h1.7v4.18c0,.83,.41,1.3,1.21,1.3s1.23-.48,1.23-1.3v-4.18h1.7v4.17c0,1.93-1.35,2.89-2.96,2.89s-2.88-.96-2.88-2.89v-4.17Z"/><path class="cls-1" d="M373.37,195.74h2.01l1.96,4.83,1.94-4.83h2v6.98h-1.7v-4.19l-1.56,4.19h-1.37l-1.57-4.2v4.2h-1.7v-6.98Z"/><path class="cls-1" d="M386.84,201.49h-2.61l-.42,1.23h-1.78l2.53-6.98h1.97l2.53,6.98h-1.8l-.42-1.23Zm-1.3-3.87l-.86,2.56h1.72l-.87-2.56Z"/><path class="cls-1" d="M396.07,195.74v6.98h-1.7l-2.84-4.31v4.31h-1.7v-6.98h1.7l2.84,4.33v-4.33h1.7Z"/><path class="cls-1" d="M400.61,202.8c-1.98,0-3.59-1.48-3.59-3.58s1.61-3.57,3.59-3.57,3.57,1.47,3.57,3.57-1.59,3.58-3.57,3.58Zm0-1.55c1.11,0,1.84-.81,1.84-2.03s-.73-2.03-1.84-2.03-1.85,.79-1.85,2.03,.72,2.03,1.85,2.03Z"/><path class="cls-1" d="M407.64,202.8c-1.5,0-2.68-.75-2.73-2.16h1.81c.05,.54,.39,.8,.87,.8s.82-.25,.82-.66c0-1.29-3.49-.6-3.47-3.07,0-1.32,1.08-2.06,2.55-2.06s2.55,.76,2.62,2.09h-1.84c-.03-.45-.35-.72-.81-.73-.41,0-.72,.2-.72,.64,0,1.21,3.45,.67,3.45,3,0,1.17-.92,2.15-2.55,2.15Z"/><path class="cls-1" d="M290.49,214.73c-1.5,0-2.68-.75-2.73-2.16h1.81c.05,.54,.39,.8,.87,.8s.82-.25,.82-.66c0-1.29-3.49-.6-3.47-3.07,0-1.32,1.08-2.06,2.55-2.06s2.55,.76,2.62,2.09h-1.84c-.03-.45-.35-.72-.81-.73-.41,0-.72,.2-.72,.64,0,1.21,3.45,.67,3.45,3,0,1.17-.92,2.15-2.55,2.15Z"/><path class="cls-1" d="M294.08,207.67h1.7v6.98h-1.7v-6.98Z"/><path class="cls-1" d="M299.54,214.73c-1.5,0-2.68-.75-2.73-2.16h1.81c.05,.54,.39,.8,.87,.8s.82-.25,.82-.66c0-1.29-3.49-.6-3.47-3.07,0-1.32,1.08-2.06,2.55-2.06s2.55,.76,2.62,2.09h-1.84c-.03-.45-.35-.72-.81-.73-.41,0-.72,.2-.72,.64,0,1.21,3.45,.67,3.45,3,0,1.17-.92,2.15-2.55,2.15Z"/><path class="cls-1" d="M302.75,207.67h5.4v1.36h-1.85v5.62h-1.7v-5.62h-1.85v-1.36Z"/><path class="cls-1" d="M313.28,209.04h-2.58v1.41h2.28v1.31h-2.28v1.53h2.58v1.36h-4.28v-6.98h4.28v1.36Z"/><path class="cls-1" d="M314.38,207.67h2.01l1.96,4.83,1.94-4.83h2v6.98h-1.7v-4.19l-1.56,4.19h-1.37l-1.57-4.2v4.2h-1.7v-6.98Z"/><path class="cls-1" d="M327.86,213.42h-2.61l-.42,1.23h-1.78l2.53-6.98h1.97l2.53,6.98h-1.8l-.42-1.23Zm-1.3-3.87l-.86,2.56h1.72l-.87-2.56Z"/><path class="cls-1" d="M333.37,214.73c-1.5,0-2.68-.75-2.73-2.16h1.81c.05,.54,.39,.8,.87,.8s.82-.25,.82-.66c0-1.29-3.49-.6-3.47-3.07,0-1.32,1.08-2.06,2.55-2.06s2.55,.76,2.62,2.09h-1.84c-.03-.45-.35-.72-.81-.73-.41,0-.72,.2-.72,.64,0,1.21,3.45,.67,3.45,3,0,1.17-.92,2.15-2.55,2.15Z"/><path class="cls-1" d="M345.34,211.17c0,2.07-1.43,3.49-3.66,3.49h-2.62v-6.98h2.62c2.23,0,3.66,1.41,3.66,3.49Zm-3.77,2.02c1.28,0,2.04-.74,2.04-2.02s-.76-2.04-2.04-2.04h-.81v4.06h.81Z"/><path class="cls-1" d="M350.57,209.04h-2.58v1.41h2.28v1.31h-2.28v1.53h2.58v1.36h-4.28v-6.98h4.28v1.36Z"/><path class="cls-1" d="M353.78,207.67h1.7v6.98h-1.7v-6.98Z"/><path class="cls-1" d="M362.96,207.67v6.98h-1.7l-2.84-4.31v4.31h-1.7v-6.98h1.7l2.84,4.33v-4.33h1.7Z"/><path class="cls-1" d="M364.19,207.67h4.55v1.36h-2.84v1.47h2.13v1.32h-2.13v2.83h-1.7v-6.98Z"/><path class="cls-1" d="M372.93,214.73c-1.98,0-3.59-1.48-3.59-3.58s1.61-3.57,3.59-3.57,3.57,1.47,3.57,3.57-1.59,3.58-3.57,3.58Zm0-1.55c1.11,0,1.84-.81,1.84-2.03s-.73-2.03-1.84-2.03-1.85,.79-1.85,2.03,.72,2.03,1.85,2.03Z"/><path class="cls-1" d="M380.3,207.67c1.71,0,2.57,.98,2.57,2.2,0,.88-.48,1.7-1.55,2.02l1.61,2.77h-1.92l-1.45-2.64h-.41v2.64h-1.7v-6.98h2.85Zm-.1,1.41h-1.05v1.73h1.05c.64,0,.93-.33,.93-.88,0-.52-.3-.86-.93-.86Z"/><path class="cls-1" d="M383.93,207.67h2.01l1.96,4.83,1.94-4.83h2v6.98h-1.7v-4.19l-1.56,4.19h-1.37l-1.57-4.2v4.2h-1.7v-6.98Z"/><path class="cls-1" d="M397.41,213.42h-2.61l-.42,1.23h-1.78l2.53-6.98h1.97l2.53,6.98h-1.8l-.42-1.23Zm-1.3-3.87l-.86,2.56h1.72l-.87-2.56Z"/><path class="cls-1" d="M403.61,207.59c1.66,0,2.92,.94,3.31,2.45h-1.87c-.29-.6-.82-.9-1.46-.9-1.04,0-1.76,.78-1.76,2.01s.72,2.01,1.76,2.01c.65,0,1.17-.3,1.46-.9h1.87c-.36,1.34-1.38,2.23-2.78,2.41v.39c.6,0,1.29,.31,1.29,1.13s-.7,1.15-1.38,1.15h-1.53v-.94h1.3c.25,0,.4-.06,.4-.26s-.15-.25-.4-.25h-.71v-1.23c-1.8-.21-3.02-1.6-3.02-3.52,0-2.09,1.45-3.56,3.51-3.56Z"/><path class="cls-1" d="M411.27,214.73c-1.98,0-3.59-1.48-3.59-3.58s1.61-3.57,3.59-3.57,3.57,1.47,3.57,3.57-1.59,3.58-3.57,3.58Zm-.63-9.01c.6,0,.91,.45,1.3,.45,.23,0,.39-.14,.43-.45h.88c-.17,1.04-.68,1.47-1.37,1.47-.6,0-.91-.45-1.3-.45-.23,0-.39,.14-.44,.45h-.87c.17-1.04,.67-1.47,1.37-1.47Zm.63,7.46c1.11,0,1.84-.81,1.84-2.03s-.73-2.03-1.84-2.03-1.85,.79-1.85,2.03,.72,2.03,1.85,2.03Z"/><path class="cls-1" d="M420.06,209.04h-2.58v1.41h2.28v1.31h-2.28v1.53h2.58v1.36h-4.28v-6.98h4.28v1.36Z"/><path class="cls-1" d="M423.69,214.73c-1.5,0-2.68-.75-2.73-2.16h1.81c.05,.54,.39,.8,.87,.8s.82-.25,.82-.66c0-1.29-3.49-.6-3.47-3.07,0-1.32,1.08-2.06,2.55-2.06s2.55,.76,2.62,2.09h-1.84c-.03-.45-.35-.72-.81-.73-.41,0-.72,.2-.72,.64,0,1.21,3.45,.67,3.45,3,0,1.17-.92,2.15-2.55,2.15Z"/><path class="cls-1" d="M299.64,219.53c1.66,0,2.92,.93,3.31,2.45h-1.87c-.29-.6-.82-.9-1.46-.9-1.04,0-1.76,.78-1.76,2.01s.72,2.01,1.76,2.01c.65,0,1.17-.3,1.46-.9h1.87c-.4,1.51-1.65,2.44-3.31,2.44-2.06,0-3.51-1.46-3.51-3.55s1.45-3.56,3.51-3.56Z"/><path class="cls-1" d="M307.29,226.66c-1.98,0-3.59-1.48-3.59-3.58s1.61-3.57,3.59-3.57,3.57,1.47,3.57,3.57-1.59,3.58-3.57,3.58Zm0-1.55c1.11,0,1.84-.81,1.84-2.03s-.73-2.03-1.84-2.03-1.85,.79-1.85,2.03,.72,2.03,1.85,2.03Z"/><path class="cls-1" d="M318.05,219.61v6.98h-1.7l-2.84-4.31v4.31h-1.7v-6.98h1.7l2.84,4.33v-4.33h1.7Z"/><path class="cls-1" d="M318.91,219.61h5.4v1.36h-1.85v5.62h-1.7v-5.62h-1.85v-1.36Z"/><path class="cls-1" d="M328.01,219.61c1.71,0,2.57,.99,2.57,2.2,0,.88-.48,1.7-1.55,2.02l1.61,2.77h-1.92l-1.45-2.64h-.41v2.64h-1.7v-6.98h2.85Zm-.1,1.41h-1.05v1.73h1.05c.64,0,.93-.33,.93-.88,0-.52-.3-.86-.93-.86Z"/><path class="cls-1" d="M334.95,226.66c-1.98,0-3.59-1.48-3.59-3.58s1.61-3.57,3.59-3.57,3.57,1.47,3.57,3.57-1.59,3.58-3.57,3.58Zm0-1.55c1.11,0,1.84-.81,1.84-2.03s-.73-2.03-1.84-2.03-1.85,.79-1.85,2.03,.72,2.03,1.85,2.03Z"/><path class="cls-1" d="M341.16,219.61v5.67h2.23v1.31h-3.93v-6.98h1.7Z"/><path class="cls-1" d="M348.48,220.97h-2.58v1.41h2.28v1.31h-2.28v1.53h2.58v1.36h-4.28v-6.98h4.28v1.36Z"/><path class="cls-1" d="M355.97,220.97h-2.58v1.41h2.28v1.31h-2.28v1.53h2.58v1.36h-4.28v-6.98h4.28v1.36Z"/><path class="cls-1" d="M363.53,225.36h-2.61l-.42,1.23h-1.78l2.53-6.98h1.97l2.53,6.98h-1.8l-.42-1.23Zm-1.3-3.87l-.86,2.56h1.72l-.87-2.56Z"/><path class="cls-1" d="M371.26,219.61h1.8l-2.48,6.98h-2.13l-2.48-6.98h1.81l1.73,5.27,1.74-5.27Z"/><path class="cls-1" d="M378.11,225.36h-2.61l-.42,1.23h-1.78l2.53-6.98h1.97l2.53,6.98h-1.8l-.42-1.23Zm-1.3-3.87l-.86,2.56h1.72l-.87-2.56Z"/><path class="cls-1" d="M382.8,219.61v5.67h2.23v1.31h-3.93v-6.98h1.7Z"/><path class="cls-1" d="M385.84,219.61h1.7v6.98h-1.7v-6.98Z"/><path class="cls-1" d="M393.12,225.36h-2.61l-.42,1.23h-1.78l2.53-6.98h1.97l2.53,6.98h-1.8l-.42-1.23Zm-1.3-3.87l-.86,2.56h1.72l-.87-2.56Z"/><path class="cls-1" d="M399.32,219.53c1.66,0,2.92,.93,3.31,2.45h-1.87c-.29-.6-.82-.9-1.46-.9-1.04,0-1.76,.78-1.76,2.01s.72,2.01,1.76,2.01c.65,0,1.17-.3,1.46-.9h1.87c-.36,1.34-1.38,2.23-2.78,2.41v.39c.6,0,1.29,.31,1.29,1.13s-.7,1.15-1.38,1.15h-1.53v-.93h1.3c.25,0,.4-.06,.4-.26s-.15-.25-.4-.25h-.71v-1.23c-1.8-.21-3.02-1.6-3.02-3.52,0-2.09,1.45-3.56,3.51-3.56Z"/><path class="cls-1" d="M408.03,225.36h-2.61l-.42,1.23h-1.78l2.53-6.98h1.97l2.53,6.98h-1.8l-.42-1.23Zm-1.91-7.71c.6,0,.91,.45,1.3,.45,.23,0,.39-.14,.43-.45h.88c-.17,1.04-.68,1.47-1.37,1.47-.6,0-.91-.45-1.3-.45-.23,0-.39,.14-.44,.45h-.87c.17-1.04,.67-1.47,1.37-1.47Zm.61,3.84l-.86,2.56h1.72l-.87-2.56Z"/><path class="cls-1" d="M414.31,226.66c-1.98,0-3.59-1.48-3.59-3.58s1.61-3.57,3.59-3.57,3.57,1.47,3.57,3.57-1.59,3.58-3.57,3.58Zm0-1.55c1.11,0,1.84-.81,1.84-2.03s-.73-2.03-1.84-2.03-1.85,.79-1.85,2.03,.72,2.03,1.85,2.03Z"/></g></g><g><path class="cls-1" d="M528.78,146.04h-1.33v2.9h-.91v-6.93h2.24c1.63,0,2.4,.9,2.4,2.03,0,1.05-.68,2.01-2.4,2.01Zm0-.75c1.04,0,1.47-.49,1.47-1.26s-.44-1.28-1.47-1.28h-1.33v2.55h1.33Z"/><path class="cls-1" d="M534.54,142c1.63,0,2.41,.91,2.41,2.04,0,.89-.49,1.73-1.65,1.99l1.74,2.9h-1.08l-1.65-2.84h-1.09v2.84h-.91v-6.93h2.24Zm0,.75h-1.33v2.63h1.33c1.02,0,1.47-.56,1.47-1.33s-.44-1.29-1.47-1.29Z"/><path class="cls-1" d="M541.49,149c-1.95,0-3.48-1.46-3.48-3.54s1.53-3.54,3.48-3.54,3.48,1.46,3.48,3.54-1.52,3.54-3.48,3.54Zm0-.79c1.46,0,2.56-1.06,2.56-2.76s-1.09-2.76-2.56-2.76-2.56,1.05-2.56,2.76,1.09,2.76,2.56,2.76Z"/><path class="cls-1" d="M552.5,144.01h-1.08c-.38-.81-1.13-1.27-2.11-1.27-1.46,0-2.56,1.05-2.56,2.73s1.09,2.72,2.56,2.72c1.36,0,2.3-.88,2.44-2.25h-2.77v-.74h3.73v.7c-.16,1.72-1.52,3.1-3.4,3.1s-3.48-1.45-3.48-3.53,1.53-3.54,3.48-3.54c1.46,0,2.68,.76,3.19,2.09Z"/><path class="cls-1" d="M556.14,142c1.63,0,2.41,.91,2.41,2.04,0,.89-.49,1.73-1.65,1.99l1.74,2.9h-1.08l-1.65-2.84h-1.09v2.84h-.91v-6.93h2.24Zm0,.75h-1.33v2.63h1.33c1.03,0,1.47-.56,1.47-1.33s-.44-1.29-1.47-1.29Z"/><path class="cls-1" d="M564.04,147.39h-3.02l-.56,1.54h-.96l2.51-6.89h1.04l2.5,6.89h-.96l-.56-1.54Zm-1.51-4.24l-1.25,3.5h2.51l-1.25-3.5Z"/><path class="cls-1" d="M566.65,142.05h.98l2.55,5.69,2.55-5.69h.96v6.88h-.91v-5.13l-2.29,5.13h-.64l-2.3-5.14v5.14h-.91v-6.88Z"/><path class="cls-1" d="M579.31,147.39h-3.02l-.56,1.54h-.96l2.51-6.89h1.04l2.5,6.89h-.96l-.56-1.54Zm-1.51-4.24l-1.25,3.5h2.51l-1.25-3.5Z"/><path class="cls-1" d="M585.03,141.91c1.5,0,2.7,.76,3.21,2.1h-1.08c-.38-.84-1.11-1.3-2.13-1.3-1.45,0-2.54,1.05-2.54,2.76s1.08,2.75,2.54,2.75c1.01,0,1.75-.47,2.13-1.29h1.08c-.48,1.22-1.53,1.96-2.87,2.07v.53c.77-.01,1.28,.33,1.28,.98s-.51,1.02-1.21,1.02h-1.14v-.59h.97c.43,0,.64-.12,.64-.44s-.21-.43-.64-.43h-.5v-1.08c-1.81-.12-3.2-1.53-3.2-3.52s1.52-3.55,3.46-3.55Z"/><path class="cls-1" d="M593.68,147.39h-3.02l-.56,1.54h-.96l2.51-6.89h1.04l2.5,6.89h-.96l-.56-1.54Zm-1.98-6.98c.53,0,.73,.46,1.13,.46,.22,0,.4-.14,.44-.43h.52c-.08,.68-.48,1.03-.99,1.03s-.74-.46-1.13-.46c-.22,0-.39,.14-.43,.44h-.53c.1-.69,.48-1.04,1-1.04Zm.47,2.75l-1.25,3.5h2.51l-1.25-3.5Z"/><path class="cls-1" d="M599.43,149c-1.95,0-3.48-1.46-3.48-3.54s1.53-3.54,3.48-3.54,3.48,1.46,3.48,3.54-1.52,3.54-3.48,3.54Zm0-.79c1.46,0,2.56-1.06,2.56-2.76s-1.09-2.76-2.56-2.76-2.56,1.05-2.56,2.76,1.09,2.76,2.56,2.76Z"/></g><g><path class="cls-1" d="M542.34,254.98h-3.02l-.56,1.54h-.96l2.51-6.89h1.04l2.5,6.89h-.96l-.56-1.54Zm-1.51-4.24l-1.25,3.5h2.51l-1.25-3.5Z"/><path class="cls-1" d="M549.92,256.1l1.75,1.74h-1.17l-1.38-1.38c-.33,.09-.68,.14-1.03,.14-1.95,0-3.48-1.46-3.48-3.54s1.53-3.54,3.48-3.54,3.48,1.46,3.48,3.54c0,1.35-.65,2.45-1.64,3.04Zm-1.84-.29c1.46,0,2.56-1.06,2.56-2.76s-1.09-2.76-2.56-2.76-2.56,1.05-2.56,2.76,1.09,2.76,2.56,2.76Z"/><path class="cls-1" d="M552.75,249.59h.91v4.39c0,1.27,.69,1.82,1.71,1.82s1.7-.55,1.7-1.82v-4.39h.91v4.38c0,1.8-1.18,2.63-2.62,2.63s-2.61-.83-2.61-2.63v-4.38Z"/><path class="cls-1" d="M559.49,249.59h.91v6.93h-.91v-6.93Z"/><path class="cls-1" d="M564.13,256.59c-1.39,0-2.38-.78-2.4-1.92h.96c.06,.58,.47,1.15,1.43,1.15,.88,0,1.39-.5,1.39-1.15,0-1.87-3.75-.68-3.75-3.25,0-1.14,.92-1.92,2.3-1.92s2.19,.73,2.3,1.78h-.99c-.06-.47-.5-1-1.34-1-.75-.02-1.33,.37-1.33,1.11,0,1.79,3.74,.68,3.74,3.24,0,.99-.81,1.96-2.31,1.96Z"/><path class="cls-1" d="M567.77,249.59h.91v6.93h-.91v-6.93Z"/><path class="cls-1" d="M573.34,249.5c1.5,0,2.7,.76,3.21,2.1h-1.08c-.38-.84-1.11-1.3-2.13-1.3-1.45,0-2.54,1.05-2.54,2.76s1.08,2.75,2.54,2.75c1.01,0,1.75-.47,2.13-1.29h1.08c-.48,1.22-1.53,1.96-2.87,2.07v.53c.77-.01,1.28,.33,1.28,.98s-.51,1.02-1.21,1.02h-1.14v-.59h.96c.43,0,.64-.12,.64-.44s-.21-.43-.64-.43h-.5v-1.08c-1.81-.12-3.2-1.53-3.2-3.52s1.52-3.55,3.46-3.55Z"/><path class="cls-1" d="M581.99,254.98h-3.02l-.56,1.54h-.96l2.51-6.89h1.04l2.5,6.89h-.96l-.56-1.54Zm-1.98-6.98c.53,0,.73,.46,1.13,.46,.22,0,.4-.14,.44-.43h.52c-.08,.68-.48,1.03-1,1.03s-.74-.46-1.13-.46c-.22,0-.39,.14-.43,.44h-.53c.1-.69,.48-1.04,1-1.04Zm.47,2.75l-1.25,3.5h2.51l-1.25-3.5Z"/><path class="cls-1" d="M587.74,256.59c-1.95,0-3.48-1.46-3.48-3.54s1.53-3.54,3.48-3.54,3.48,1.46,3.48,3.54-1.52,3.54-3.48,3.54Zm0-.79c1.46,0,2.56-1.06,2.56-2.76s-1.09-2.76-2.56-2.76-2.56,1.05-2.56,2.76,1.09,2.76,2.56,2.76Z"/></g><g><g><ellipse class="cls-3" cx="507.44" cy="76.09" rx="5.16" ry="13.14" transform="translate(-.68 4.69) rotate(-.53)"/><ellipse class="cls-4" cx="498.69" cy="88.13" rx="13.23" ry="5.64" transform="translate(-6.1 128.64) rotate(-14.61)"/><polygon class="cls-16" points="506.33 83.59 490.76 91.02 526.27 98.27 508.78 66.56 506.33 83.59"/></g><polygon class="cls-15" points="526.27 98.27 506.33 83.59 490.76 91.02 526.27 98.27"/></g><g><g><ellipse class="cls-12" cx="504.64" cy="318.09" rx="13.14" ry="5.16" transform="translate(181.9 819.78) rotate(-89.47)"/><ellipse class="cls-6" cx="513.39" cy="330.13" rx="5.64" ry="13.23" transform="translate(64.44 743.65) rotate(-75.39)"/><polygon class="cls-16" points="505.75 325.59 521.32 333.02 485.81 340.27 503.31 308.56 505.75 325.59"/></g><polygon class="cls-15" points="485.81 340.27 505.75 325.59 521.32 333.02 485.81 340.27"/></g><g><g><ellipse class="cls-9" cx="572.42" cy="189.82" rx="13.14" ry="5.16" transform="translate(11.62 411.64) rotate(-39.93)"/><ellipse class="cls-2" cx="557.57" cy="190.7" rx="5.64" ry="13.23" transform="translate(75.6 529.76) rotate(-54.01)"/><polygon class="cls-16" points="565.92 193.72 550.3 186.41 567.23 218.45 580.64 184.8 565.92 193.72"/></g><polygon class="cls-15" points="567.23 218.45 565.92 193.72 550.3 186.41 567.23 218.45"/></g><g><g><g><ellipse class="cls-7" cx="195.56" cy="326.87" rx="5.16" ry="13.14" transform="translate(-6 3.67) rotate(-1.06)"/><ellipse class="cls-8" cx="204.19" cy="314.76" rx="13.23" ry="5.64" transform="translate(-75.11 64.25) rotate(-15.14)"/><polygon class="cls-16" points="196.6 319.37 212.1 311.79 176.52 304.87 194.31 336.42 196.6 319.37"/></g><polygon class="cls-15" points="176.52 304.87 196.6 319.37 212.1 311.79 176.52 304.87"/></g><g><g><path class="cls-10" d="M196.12,98c-2.85,0-5.16-5.88-5.16-13.14,0-7.26,2.31-13.14,5.16-13.14,2.85,0,5.16,5.88,5.16,13.14,0,7.26-2.31,13.14-5.16,13.14Z"/><ellipse class="cls-5" cx="187.26" cy="72.9" rx="5.64" ry="13.23" transform="translate(70.99 236.8) rotate(-75.92)"/><polygon class="cls-16" points="194.94 77.37 179.31 70.08 214.75 62.51 197.55 94.38 194.94 77.37"/></g><polygon class="cls-15" points="214.75 62.51 194.94 77.37 179.31 70.08 214.75 62.51"/></g><g><g><ellipse class="cls-11" cx="129.53" cy="213.75" rx="13.14" ry="5.16" transform="translate(-107.72 135.16) rotate(-40.46)"/><ellipse class="cls-13" cx="144.38" cy="212.73" rx="5.64" ry="13.23" transform="translate(-112.65 206.9) rotate(-54.54)"/><polygon class="cls-16" points="135.99 209.79 151.68 216.96 134.45 185.07 121.36 218.84 135.99 209.79"/></g><polygon class="cls-15" points="134.45 185.07 135.99 209.79 151.68 216.96 134.45 185.07"/></g></g></g></g></svg>