<?xml version="1.0" encoding="UTF-8"?><svg id="Camada_1" xmlns="http://www.w3.org/2000/svg" viewBox="0 0 370 315.74"><defs><style>.cls-1{fill:#54bfcd;}.cls-2{fill:#fff;}.cls-3{fill:#108141;}.cls-4{fill:#607d89;}.cls-5{fill:#1b8992;}.cls-6{fill:#ffa800;}</style></defs><path class="cls-6" d="M288.79,186.77c2.55-9.2,3.93-18.89,3.93-28.9s-1.37-19.7-3.93-28.9c-28.5-4.51-50.29-29.18-50.29-58.95,0-1.86,.1-3.69,.26-5.51-15.82-9.13-34.18-14.36-53.77-14.36s-37.94,5.23-53.77,14.36c.17,1.82,.26,3.65,.26,5.51,0,29.77-21.79,54.44-50.29,58.95-2.55,9.2-3.93,18.89-3.93,28.9s1.37,19.7,3.93,28.9c28.5,4.51,50.29,29.18,50.29,58.95,0,1.86-.1,3.69-.26,5.51,15.82,9.13,34.18,14.36,53.77,14.36s37.94-5.23,53.77-14.36c-.17-1.82-.26-3.65-.26-5.51,0-29.77,21.79-54.44,50.29-58.95Z"/><g><path class="cls-2" d="M141.54,151.65l2.16,2.59h-2.9l-1.26-1.7c-.35,.07-.71,.11-1.09,.11-2.79,0-5.06-2.09-5.06-5.04s2.27-5.03,5.06-5.03,5.03,2.07,5.03,5.03c0,1.72-.76,3.14-1.93,4.03Zm-3.1-1.18c1.57,0,2.59-1.13,2.59-2.86s-1.02-2.86-2.59-2.86-2.61,1.11-2.61,2.86,1.01,2.86,2.61,2.86Z"/><path class="cls-2" d="M144.78,142.73h2.4v5.88c0,1.16,.57,1.83,1.71,1.83s1.74-.67,1.74-1.83v-5.88h2.4v5.87c0,2.72-1.91,4.06-4.17,4.06s-4.06-1.34-4.06-4.06v-5.87Z"/><path class="cls-2" d="M160.82,150.82h-3.67l-.59,1.74h-2.51l3.56-9.83h2.77l3.56,9.83h-2.54l-.59-1.74Zm-1.83-5.45l-1.2,3.6h2.42l-1.22-3.6Z"/><path class="cls-2" d="M167.41,142.73v7.98h3.14v1.85h-5.53v-9.83h2.4Z"/><path class="cls-2" d="M171.69,142.73h2.4v9.83h-2.4v-9.83Z"/><path class="cls-2" d="M184.66,147.64c0,2.91-2.02,4.92-5.15,4.92h-3.68v-9.83h3.68c3.14,0,5.15,1.99,5.15,4.92Zm-5.31,2.84c1.81,0,2.87-1.04,2.87-2.84s-1.06-2.87-2.87-2.87h-1.13v5.71h1.13Z"/><path class="cls-2" d="M192.12,150.82h-3.67l-.59,1.74h-2.51l3.56-9.83h2.77l3.56,9.83h-2.54l-.59-1.74Zm-1.83-5.45l-1.21,3.6h2.42l-1.22-3.6Z"/><path class="cls-2" d="M205.16,147.64c0,2.91-2.02,4.92-5.16,4.92h-3.68v-9.83h3.68c3.14,0,5.16,1.99,5.16,4.92Zm-5.31,2.84c1.81,0,2.87-1.04,2.87-2.84s-1.06-2.87-2.87-2.87h-1.13v5.71h1.13Z"/><path class="cls-2" d="M212.52,144.65h-3.63v1.99h3.21v1.85h-3.21v2.16h3.63v1.92h-6.02v-9.83h6.02v1.92Z"/><path class="cls-2" d="M225.88,147.64c0,2.91-2.02,4.92-5.16,4.92h-3.68v-9.83h3.68c3.14,0,5.16,1.99,5.16,4.92Zm-5.31,2.84c1.81,0,2.87-1.04,2.87-2.84s-1.06-2.87-2.87-2.87h-1.13v5.71h1.13Z"/><path class="cls-2" d="M233.33,150.82h-3.67l-.59,1.74h-2.51l3.56-9.83h2.77l3.56,9.83h-2.54l-.59-1.74Zm-1.83-5.45l-1.2,3.6h2.42l-1.22-3.6Z"/><path class="cls-2" d="M132.47,165.83h-1.48v3.53h-2.4v-9.83h3.88c2.41,0,3.61,1.36,3.61,3.17,0,1.62-1.11,3.14-3.61,3.14Zm-.18-1.91c.95,0,1.36-.48,1.36-1.23s-.41-1.23-1.36-1.23h-1.3v2.46h1.3Z"/><path class="cls-2" d="M141.35,159.53c2.41,0,3.61,1.39,3.61,3.1,0,1.23-.67,2.4-2.19,2.84l2.27,3.89h-2.7l-2.05-3.71h-.57v3.71h-2.4v-9.83h4.02Zm-.14,1.99h-1.48v2.44h1.48c.9,0,1.32-.46,1.32-1.23,0-.73-.42-1.21-1.32-1.21Z"/><path class="cls-2" d="M151.11,169.46c-2.79,0-5.06-2.09-5.06-5.04s2.27-5.03,5.06-5.03,5.03,2.07,5.03,5.03-2.24,5.04-5.03,5.04Zm0-2.18c1.57,0,2.59-1.13,2.59-2.86s-1.02-2.86-2.59-2.86-2.61,1.11-2.61,2.86,1.01,2.86,2.61,2.86Z"/><path class="cls-2" d="M166.63,162.64h-2.65c-.36-.66-1.04-1.01-1.93-1.01-1.54,0-2.56,1.09-2.56,2.8,0,1.82,1.04,2.89,2.76,2.89,1.19,0,2.02-.63,2.38-1.74h-3.04v-1.76h5.21v2.23c-.5,1.7-2.14,3.39-4.73,3.39-2.94,0-5.01-2.06-5.01-5s2.06-5.01,5-5.01c2.35,0,4.06,1.2,4.58,3.22Z"/><path class="cls-2" d="M172.15,159.53c2.41,0,3.61,1.39,3.61,3.1,0,1.23-.67,2.4-2.19,2.84l2.27,3.89h-2.7l-2.05-3.71h-.57v3.71h-2.4v-9.83h4.02Zm-.14,1.99h-1.48v2.44h1.48c.9,0,1.32-.46,1.32-1.23,0-.73-.42-1.21-1.32-1.21Z"/><path class="cls-2" d="M183.38,167.62h-3.67l-.59,1.74h-2.51l3.56-9.83h2.77l3.56,9.83h-2.54l-.59-1.74Zm-1.83-5.45l-1.2,3.6h2.42l-1.22-3.6Z"/><path class="cls-2" d="M187.57,159.53h2.83l2.76,6.81,2.73-6.81h2.82v9.83h-2.4v-5.9l-2.2,5.9h-1.93l-2.21-5.91v5.91h-2.39v-9.83Z"/><path class="cls-2" d="M206.55,167.62h-3.67l-.59,1.74h-2.51l3.56-9.83h2.77l3.56,9.83h-2.54l-.59-1.74Zm-1.83-5.45l-1.2,3.6h2.42l-1.22-3.6Z"/><path class="cls-2" d="M215.28,159.42c2.34,0,4.1,1.32,4.66,3.45h-2.63c-.41-.84-1.15-1.26-2.06-1.26-1.47,0-2.48,1.09-2.48,2.83s1.01,2.83,2.48,2.83c.91,0,1.65-.42,2.06-1.26h2.63c-.5,1.89-1.95,3.14-3.91,3.39v.55c.84,0,1.82,.43,1.82,1.6s-.98,1.62-1.95,1.62h-2.16v-1.32h1.84c.35,0,.56-.08,.56-.36s-.21-.35-.56-.35h-1v-1.74c-2.54-.29-4.26-2.25-4.26-4.96,0-2.94,2.04-5.01,4.94-5.01Z"/><path class="cls-2" d="M227.53,167.62h-3.67l-.59,1.74h-2.51l3.56-9.83h2.77l3.56,9.83h-2.54l-.59-1.74Zm-2.69-10.86c.84,0,1.27,.63,1.83,.63,.32,0,.55-.2,.6-.63h1.23c-.24,1.47-.95,2.07-1.93,2.07-.84,0-1.27-.63-1.83-.63-.32,0-.55,.2-.62,.63h-1.22c.24-1.47,.94-2.07,1.93-2.07Zm.85,5.41l-1.21,3.6h2.42l-1.22-3.6Z"/><path class="cls-2" d="M236.38,169.46c-2.79,0-5.06-2.09-5.06-5.04s2.27-5.03,5.06-5.03,5.03,2.07,5.03,5.03-2.24,5.04-5.03,5.04Zm0-2.18c1.57,0,2.59-1.13,2.59-2.86s-1.02-2.86-2.59-2.86-2.61,1.11-2.61,2.86,1.01,2.86,2.61,2.86Z"/></g><circle id="Elipse_204" class="cls-1" cx="63.88" cy="63.88" r="63.87"/><g><path class="cls-2" d="M39.25,51.23c-1.45,0-2.57-.76-2.59-2.08h1.5c.04,.56,.41,.93,1.06,.93s1.05-.35,1.05-.85c0-1.51-3.6-.6-3.59-3.13,0-1.26,1.02-2.02,2.46-2.02s2.41,.73,2.5,1.99h-1.54c-.03-.46-.4-.82-1-.83-.55-.02-.96,.25-.96,.82,0,1.4,3.58,.62,3.58,3.08,0,1.1-.88,2.09-2.47,2.09Z"/><path class="cls-2" d="M42.93,44.19h1.4v6.98h-1.4v-6.98Z"/><path class="cls-2" d="M48.12,51.23c-1.45,0-2.57-.76-2.59-2.08h1.5c.04,.56,.41,.93,1.06,.93s1.05-.35,1.05-.85c0-1.51-3.6-.6-3.59-3.13,0-1.26,1.02-2.02,2.46-2.02s2.41,.73,2.5,1.99h-1.54c-.03-.46-.4-.82-1-.83-.55-.02-.96,.25-.96,.82,0,1.4,3.58,.62,3.58,3.08,0,1.1-.88,2.09-2.47,2.09Z"/><path class="cls-2" d="M51.43,44.19h5.12v1.13h-1.86v5.85h-1.4v-5.85h-1.86v-1.13Z"/><path class="cls-2" d="M61.62,45.32h-2.65v1.75h2.35v1.11h-2.35v1.85h2.65v1.14h-4.05v-6.99h4.05v1.14Z"/><path class="cls-2" d="M62.89,44.19h1.59l2.22,5.19,2.22-5.19h1.58v6.98h-1.4v-4.54l-1.87,4.54h-1.06l-1.88-4.54v4.54h-1.4v-6.98Z"/><path class="cls-2" d="M76.16,49.83h-2.78l-.46,1.33h-1.47l2.51-6.99h1.63l2.51,6.99h-1.48l-.46-1.33Zm-1.39-4.04l-1.01,2.92h2.02l-1.01-2.92Z"/><path class="cls-2" d="M87.54,47.68c0,2.11-1.45,3.48-3.68,3.48h-2.44v-6.98h2.44c2.23,0,3.68,1.38,3.68,3.5Zm-3.73,2.29c1.47,0,2.3-.84,2.3-2.29s-.83-2.32-2.3-2.32h-.99v4.61h.99Z"/><path class="cls-2" d="M92.64,45.32h-2.65v1.75h2.35v1.11h-2.35v1.85h2.65v1.14h-4.05v-6.99h4.05v1.14Z"/><path class="cls-2" d="M2.78,56.19h1.4v6.98h-1.4v-6.98Z"/><path class="cls-2" d="M11.52,56.18v6.99h-1.4l-3.17-4.79v4.79h-1.4v-6.99h1.4l3.17,4.8v-4.8h1.4Z"/><path class="cls-2" d="M12.91,56.19h4.31v1.13h-2.91v1.79h2.23v1.11h-2.23v2.95h-1.4v-6.98Z"/><path class="cls-2" d="M21.44,63.23c-1.97,0-3.58-1.48-3.58-3.58s1.61-3.57,3.58-3.57,3.57,1.48,3.57,3.57-1.59,3.58-3.57,3.58Zm0-1.25c1.26,0,2.13-.91,2.13-2.33s-.87-2.31-2.13-2.31-2.14,.89-2.14,2.31,.87,2.33,2.14,2.33Z"/><path class="cls-2" d="M28.67,56.19c1.68,0,2.52,.97,2.52,2.14,0,.85-.47,1.71-1.59,2.01l1.67,2.83h-1.62l-1.54-2.72h-.66v2.72h-1.4v-6.98h2.62Zm-.05,1.16h-1.17v2.05h1.17c.78,0,1.13-.41,1.13-1.04s-.35-1.01-1.13-1.01Z"/><path class="cls-2" d="M32.47,56.19h1.59l2.22,5.19,2.22-5.19h1.58v6.98h-1.4v-4.54l-1.87,4.54h-1.06l-1.88-4.54v4.54h-1.4v-6.98Z"/><path class="cls-2" d="M45.73,61.83h-2.78l-.46,1.33h-1.47l2.51-6.99h1.63l2.51,6.99h-1.48l-.46-1.33Zm-1.39-4.04l-1.01,2.92h2.02l-1.01-2.92Z"/><path class="cls-2" d="M51.81,56.1c1.55,0,2.81,.83,3.28,2.26h-1.61c-.33-.67-.93-1-1.68-1-1.22,0-2.09,.89-2.09,2.31s.87,2.31,2.09,2.31c.75,0,1.35-.33,1.68-1.01h1.61c-.42,1.3-1.49,2.1-2.84,2.24v.41c.67,0,1.3,.34,1.3,1.09s-.63,1.12-1.33,1.12h-1.42v-.82h1.19c.3,0,.49-.07,.49-.32s-.19-.31-.49-.31h-.62v-1.17c-1.79-.2-3.1-1.61-3.1-3.54,0-2.09,1.53-3.57,3.54-3.57Z"/><path class="cls-2" d="M60.57,61.83h-2.78l-.46,1.33h-1.47l2.51-6.99h1.63l2.51,6.99h-1.48l-.46-1.33Zm-1.95-7.5c.57,0,.83,.44,1.23,.44,.23,0,.39-.13,.43-.43h.75c-.13,.91-.6,1.31-1.24,1.31-.57,0-.83-.45-1.23-.45-.23,0-.39,.14-.44,.44h-.74c.13-.91,.6-1.31,1.24-1.31Zm.56,3.46l-1.01,2.92h2.02l-1.01-2.92Z"/><path class="cls-2" d="M66.69,63.23c-1.97,0-3.58-1.48-3.58-3.58s1.61-3.57,3.58-3.57,3.57,1.48,3.57,3.57-1.59,3.58-3.57,3.58Zm0-1.25c1.26,0,2.13-.91,2.13-2.33s-.87-2.31-2.13-2.31-2.14,.89-2.14,2.31,.87,2.33,2.14,2.33Z"/><path class="cls-2" d="M80.15,58.28h-1.61c-.32-.59-.9-.9-1.64-.9-1.25,0-2.12,.89-2.12,2.28s.88,2.3,2.18,2.3c1.08,0,1.77-.62,1.98-1.61h-2.4v-1.07h3.78v1.22c-.28,1.42-1.55,2.72-3.41,2.72-2.03,0-3.57-1.47-3.57-3.56s1.54-3.57,3.56-3.57c1.56,0,2.8,.79,3.25,2.19Z"/><path class="cls-2" d="M85.41,57.32h-2.65v1.75h2.35v1.11h-2.35v1.85h2.65v1.14h-4.05v-6.99h4.05v1.14Z"/><path class="cls-2" d="M89.3,56.19c1.68,0,2.52,.97,2.52,2.14,0,.85-.47,1.71-1.59,2.01l1.67,2.83h-1.62l-1.54-2.72h-.66v2.72h-1.4v-6.98h2.62Zm-.05,1.16h-1.17v2.05h1.17c.78,0,1.13-.41,1.13-1.04s-.35-1.01-1.13-1.01Z"/><path class="cls-2" d="M97.14,57.32h-2.65v1.75h2.35v1.11h-2.35v1.85h2.65v1.14h-4.05v-6.99h4.05v1.14Z"/><path class="cls-2" d="M104.38,56.18v6.99h-1.4l-3.17-4.79v4.79h-1.4v-6.99h1.4l3.17,4.8v-4.8h1.4Z"/><path class="cls-2" d="M108.96,56.1c1.55,0,2.81,.83,3.28,2.26h-1.61c-.33-.67-.93-1-1.68-1-1.22,0-2.09,.89-2.09,2.31s.87,2.31,2.09,2.31c.75,0,1.35-.33,1.68-1.01h1.61c-.47,1.44-1.73,2.26-3.28,2.26-2.01,0-3.54-1.47-3.54-3.56s1.53-3.57,3.54-3.57Z"/><path class="cls-2" d="M113.44,56.19h1.4v6.98h-1.4v-6.98Z"/><path class="cls-2" d="M120.5,61.83h-2.78l-.46,1.33h-1.47l2.51-6.99h1.63l2.51,6.99h-1.48l-.46-1.33Zm-1.39-4.04l-1.01,2.92h2.02l-1.01-2.92Z"/><path class="cls-2" d="M124.78,56.19v5.87h2.3v1.11h-3.7v-6.98h1.4Z"/><path class="cls-2" d="M23.56,69.32h-2.65v1.75h2.35v1.11h-2.35v1.85h2.65v1.14h-4.05v-6.99h4.05v1.14Z"/><path class="cls-2" d="M31.26,69.32h-2.65v1.75h2.35v1.11h-2.35v1.85h2.65v1.14h-4.05v-6.99h4.05v1.14Z"/><path class="cls-2" d="M35.1,72.48h-1.17v2.68h-1.4v-6.98h2.57c1.68,0,2.52,.95,2.52,2.16,0,1.06-.72,2.14-2.52,2.14Zm-.06-1.13c.79,0,1.14-.39,1.14-1.01s-.35-1.02-1.14-1.02h-1.11v2.03h1.11Z"/><path class="cls-2" d="M38.61,68.19h1.4v6.98h-1.4v-6.98Z"/><path class="cls-2" d="M47.51,71.68c0,2.11-1.45,3.48-3.68,3.48h-2.44v-6.98h2.44c2.23,0,3.68,1.38,3.68,3.5Zm-3.73,2.29c1.47,0,2.3-.84,2.3-2.29s-.83-2.32-2.3-2.32h-.99v4.61h.99Z"/><path class="cls-2" d="M52.61,69.32h-2.65v1.75h2.35v1.11h-2.35v1.85h2.65v1.14h-4.05v-6.99h4.05v1.14Z"/><path class="cls-2" d="M53.88,68.19h1.59l2.22,5.19,2.22-5.19h1.58v6.98h-1.4v-4.54l-1.87,4.54h-1.06l-1.88-4.54v4.54h-1.4v-6.98Z"/><path class="cls-2" d="M62.87,68.19h1.4v6.98h-1.4v-6.98Z"/><path class="cls-2" d="M68.89,75.23c-1.97,0-3.58-1.48-3.58-3.58s1.61-3.57,3.58-3.57,3.57,1.48,3.57,3.57-1.59,3.58-3.57,3.58Zm0-1.25c1.26,0,2.13-.91,2.13-2.33s-.87-2.31-2.13-2.31-2.14,.89-2.14,2.31,.87,2.33,2.14,2.33Z"/><path class="cls-2" d="M74.9,68.19v5.87h2.3v1.11h-3.7v-6.98h1.4Z"/><path class="cls-2" d="M81.33,75.23c-1.97,0-3.58-1.48-3.58-3.58s1.61-3.57,3.58-3.57,3.57,1.48,3.57,3.57-1.59,3.58-3.57,3.58Zm0-1.25c1.26,0,2.13-.91,2.13-2.33s-.87-2.31-2.13-2.31-2.14,.89-2.14,2.31,.87,2.33,2.14,2.33Zm1.09-8.39v1.14l-2.3,1.05v-1l2.3-1.19Z"/><path class="cls-2" d="M92.41,70.28h-1.61c-.32-.59-.9-.9-1.64-.9-1.25,0-2.12,.89-2.12,2.28s.88,2.3,2.18,2.3c1.08,0,1.77-.62,1.98-1.61h-2.4v-1.07h3.78v1.22c-.28,1.42-1.55,2.72-3.41,2.72-2.03,0-3.57-1.47-3.57-3.56s1.54-3.57,3.56-3.57c1.56,0,2.8,.79,3.25,2.19Z"/><path class="cls-2" d="M93.62,68.19h1.4v6.98h-1.4v-6.98Z"/><path class="cls-2" d="M99.6,68.1c1.55,0,2.81,.83,3.28,2.26h-1.61c-.33-.67-.93-1-1.68-1-1.22,0-2.09,.89-2.09,2.31s.87,2.31,2.09,2.31c.75,0,1.35-.33,1.68-1.01h1.61c-.47,1.44-1.73,2.26-3.28,2.26-2.01,0-3.54-1.47-3.54-3.56s1.53-3.57,3.54-3.57Z"/><path class="cls-2" d="M108.36,73.83h-2.78l-.46,1.33h-1.47l2.51-6.99h1.63l2.51,6.99h-1.48l-.46-1.33Zm-1.39-4.04l-1.01,2.92h2.02l-1.01-2.92Z"/><path class="cls-2" d="M45.29,83.68c0,2.11-1.45,3.48-3.68,3.48h-2.44v-6.98h2.44c2.23,0,3.68,1.38,3.68,3.5Zm-3.73,2.29c1.47,0,2.3-.84,2.3-2.29s-.83-2.32-2.3-2.32h-.99v4.61h.99Z"/><path class="cls-2" d="M50.39,81.32h-2.65v1.75h2.35v1.11h-2.35v1.85h2.65v1.14h-4.05v-6.99h4.05v1.14Z"/><path class="cls-2" d="M51.66,80.19h4.31v1.13h-2.91v1.79h2.23v1.11h-2.23v2.95h-1.4v-6.98Z"/><path class="cls-2" d="M56.96,80.19h1.4v6.98h-1.4v-6.98Z"/><path class="cls-2" d="M62.94,80.1c1.55,0,2.81,.83,3.28,2.26h-1.61c-.33-.67-.93-1-1.68-1-1.22,0-2.09,.89-2.09,2.31s.87,2.31,2.09,2.31c.75,0,1.35-.33,1.68-1.01h1.61c-.47,1.44-1.73,2.26-3.28,2.26-2.01,0-3.54-1.47-3.54-3.56s1.53-3.57,3.54-3.57Z"/><path class="cls-2" d="M67.42,80.19h1.4v6.98h-1.4v-6.98Z"/><path class="cls-2" d="M74.25,81.32h-2.65v1.75h2.35v1.11h-2.35v1.85h2.65v1.14h-4.05v-6.99h4.05v1.14Z"/><path class="cls-2" d="M81.49,80.18v6.99h-1.4l-3.17-4.79v4.79h-1.4v-6.99h1.4l3.17,4.8v-4.8h1.4Z"/><path class="cls-2" d="M82.5,80.19h5.12v1.13h-1.86v5.85h-1.4v-5.85h-1.86v-1.13Z"/><path class="cls-2" d="M92.69,81.32h-2.65v1.75h2.35v1.11h-2.35v1.85h2.65v1.14h-4.05v-6.99h4.05v1.14Z"/></g><circle id="Elipse_204-2" class="cls-5" cx="306.13" cy="63.88" r="63.87"/><g><path class="cls-2" d="M256.04,36.19c1.68,0,2.52,.97,2.52,2.14,0,.85-.47,1.71-1.59,2.01l1.67,2.83h-1.62l-1.54-2.72h-.66v2.72h-1.4v-6.98h2.62Zm-.05,1.16h-1.17v2.05h1.17c.78,0,1.13-.41,1.13-1.04s-.35-1.01-1.13-1.01Z"/><path class="cls-2" d="M263.88,37.32h-2.65v1.75h2.35v1.11h-2.35v1.85h2.65v1.14h-4.05v-6.99h4.05v1.14Z"/><path class="cls-2" d="M268.35,36.1c1.55,0,2.81,.83,3.28,2.26h-1.61c-.33-.67-.93-1-1.68-1-1.22,0-2.09,.89-2.09,2.31s.87,2.31,2.09,2.31c.75,0,1.35-.33,1.68-1.01h1.61c-.47,1.44-1.73,2.26-3.28,2.26-2.01,0-3.54-1.47-3.54-3.56s1.53-3.57,3.54-3.57Z"/><path class="cls-2" d="M272.81,36.19h1.4v4.32c0,.96,.52,1.46,1.41,1.46s1.42-.5,1.42-1.46v-4.32h1.41v4.31c0,1.84-1.32,2.74-2.85,2.74s-2.79-.9-2.79-2.74v-4.31Z"/><path class="cls-2" d="M282.42,36.19c1.68,0,2.52,.97,2.52,2.14,0,.85-.47,1.71-1.59,2.01l1.67,2.83h-1.62l-1.54-2.72h-.66v2.72h-1.4v-6.98h2.62Zm-.05,1.16h-1.17v2.05h1.17c.78,0,1.13-.41,1.13-1.04s-.35-1.01-1.13-1.01Z"/><path class="cls-2" d="M288.62,43.23c-1.45,0-2.57-.76-2.59-2.08h1.5c.04,.56,.41,.93,1.06,.93s1.05-.35,1.05-.85c0-1.51-3.6-.6-3.59-3.13,0-1.26,1.02-2.02,2.46-2.02s2.41,.73,2.5,1.99h-1.54c-.03-.46-.4-.82-1-.83-.55-.02-.96,.25-.96,.82,0,1.4,3.58,.62,3.58,3.08,0,1.1-.88,2.09-2.47,2.09Z"/><path class="cls-2" d="M295.54,43.23c-1.97,0-3.58-1.48-3.58-3.58s1.61-3.57,3.58-3.57,3.57,1.48,3.57,3.57-1.59,3.58-3.57,3.58Zm0-1.25c1.26,0,2.13-.91,2.13-2.33s-.87-2.31-2.13-2.31-2.14,.89-2.14,2.31,.87,2.33,2.14,2.33Z"/><path class="cls-2" d="M302.56,43.23c-1.45,0-2.57-.76-2.59-2.08h1.5c.04,.56,.41,.93,1.06,.93s1.05-.35,1.05-.85c0-1.51-3.6-.6-3.59-3.13,0-1.26,1.02-2.02,2.46-2.02s2.41,.73,2.5,1.99h-1.54c-.03-.46-.4-.82-1-.83-.55-.02-.96,.25-.96,.82,0,1.4,3.58,.62,3.58,3.08,0,1.1-.88,2.09-2.47,2.09Z"/><path class="cls-2" d="M313.01,40.19h-2.99v2.97h-1.4v-6.98h1.4v2.87h2.99v-2.87h1.4v6.98h-1.4v-2.97Z"/><path class="cls-2" d="M315.77,36.19h1.4v4.32c0,.96,.52,1.46,1.41,1.46s1.42-.5,1.42-1.46v-4.32h1.41v4.31c0,1.84-1.32,2.74-2.85,2.74s-2.79-.9-2.79-2.74v-4.31Z"/><path class="cls-2" d="M322.76,36.19h1.59l2.22,5.19,2.22-5.19h1.58v6.98h-1.4v-4.54l-1.87,4.54h-1.06l-1.88-4.54v4.54h-1.4v-6.98Z"/><path class="cls-2" d="M336.03,41.83h-2.78l-.46,1.33h-1.47l2.51-6.99h1.63l2.51,6.99h-1.48l-.46-1.33Zm-1.39-4.04l-1.01,2.92h2.02l-1.01-2.92Z"/><path class="cls-2" d="M344.88,36.18v6.99h-1.4l-3.17-4.79v4.79h-1.4v-6.99h1.4l3.17,4.8v-4.8h1.4Z"/><path class="cls-2" d="M349.5,43.23c-1.97,0-3.58-1.48-3.58-3.58s1.61-3.57,3.58-3.57,3.57,1.48,3.57,3.57-1.59,3.58-3.57,3.58Zm0-1.25c1.26,0,2.13-.91,2.13-2.33s-.87-2.31-2.13-2.31-2.14,.89-2.14,2.31,.87,2.33,2.14,2.33Z"/><path class="cls-2" d="M356.52,43.23c-1.45,0-2.57-.76-2.59-2.08h1.5c.04,.56,.41,.93,1.06,.93s1.05-.35,1.05-.85c0-1.51-3.6-.6-3.59-3.13,0-1.26,1.02-2.02,2.46-2.02s2.41,.73,2.5,1.99h-1.54c-.03-.46-.4-.82-1-.83-.55-.02-.96,.25-.96,.82,0,1.4,3.58,.62,3.58,3.08,0,1.1-.88,2.09-2.47,2.09Z"/><path class="cls-2" d="M265.74,51.68c0,2.11-1.45,3.48-3.68,3.48h-2.44v-6.98h2.44c2.23,0,3.68,1.38,3.68,3.5Zm-3.73,2.29c1.47,0,2.3-.84,2.3-2.29s-.83-2.32-2.3-2.32h-.99v4.61h.99Z"/><path class="cls-2" d="M270.84,49.32h-2.65v1.75h2.35v1.11h-2.35v1.85h2.65v1.14h-4.05v-6.99h4.05v1.14Z"/><path class="cls-2" d="M274.52,55.23c-1.45,0-2.57-.76-2.59-2.08h1.5c.04,.56,.41,.93,1.06,.93s1.05-.35,1.05-.85c0-1.51-3.6-.6-3.59-3.13,0-1.26,1.02-2.02,2.46-2.02s2.41,.73,2.5,1.99h-1.54c-.03-.46-.4-.82-1-.83-.55-.02-.96,.25-.96,.82,0,1.4,3.58,.62,3.58,3.08,0,1.1-.88,2.09-2.47,2.09Z"/><path class="cls-2" d="M280.77,52.48h-1.17v2.68h-1.4v-6.98h2.57c1.68,0,2.52,.95,2.52,2.16,0,1.06-.72,2.14-2.52,2.14Zm-.06-1.13c.79,0,1.14-.39,1.14-1.01s-.35-1.02-1.14-1.02h-1.11v2.03h1.11Z"/><path class="cls-2" d="M286.9,48.19c1.68,0,2.52,.97,2.52,2.14,0,.85-.47,1.71-1.59,2.01l1.67,2.83h-1.62l-1.54-2.72h-.66v2.72h-1.4v-6.98h2.62Zm-.05,1.16h-1.17v2.05h1.17c.78,0,1.13-.41,1.13-1.04s-.35-1.01-1.13-1.01Z"/><path class="cls-2" d="M294.74,49.32h-2.65v1.75h2.35v1.11h-2.35v1.85h2.65v1.14h-4.05v-6.99h4.05v1.14Z"/><path class="cls-2" d="M298.58,52.48h-1.17v2.68h-1.4v-6.98h2.57c1.68,0,2.52,.95,2.52,2.16,0,1.06-.72,2.14-2.52,2.14Zm-.06-1.13c.79,0,1.14-.39,1.14-1.01s-.35-1.02-1.14-1.02h-1.11v2.03h1.11Z"/><path class="cls-2" d="M306.37,53.83h-2.78l-.46,1.33h-1.47l2.51-6.99h1.63l2.51,6.99h-1.48l-.46-1.33Zm-1.39-4.04l-1.01,2.92h2.02l-1.01-2.92Z"/><path class="cls-2" d="M311.87,48.19c1.68,0,2.52,.97,2.52,2.14,0,.85-.47,1.71-1.59,2.01l1.67,2.83h-1.62l-1.54-2.72h-.66v2.72h-1.4v-6.98h2.62Zm-.05,1.16h-1.17v2.05h1.17c.78,0,1.13-.41,1.13-1.04s-.35-1.01-1.13-1.01Z"/><path class="cls-2" d="M319.94,53.83h-2.78l-.46,1.33h-1.47l2.51-6.99h1.63l2.51,6.99h-1.48l-.46-1.33Zm-1.39-4.04l-1.01,2.92h2.02l-1.01-2.92Z"/><path class="cls-2" d="M328.94,51.68c0,2.11-1.45,3.48-3.68,3.48h-2.44v-6.98h2.44c2.23,0,3.68,1.38,3.68,3.5Zm-3.73,2.29c1.47,0,2.3-.84,2.3-2.29s-.83-2.32-2.3-2.32h-.99v4.61h.99Z"/><path class="cls-2" d="M333.23,55.23c-1.97,0-3.58-1.48-3.58-3.58s1.61-3.57,3.58-3.57,3.57,1.48,3.57,3.57-1.59,3.58-3.57,3.58Zm0-1.25c1.26,0,2.13-.91,2.13-2.33s-.87-2.31-2.13-2.31-2.14,.89-2.14,2.31,.87,2.33,2.14,2.33Z"/><path class="cls-2" d="M340.25,55.23c-1.45,0-2.57-.76-2.59-2.08h1.5c.04,.56,.41,.93,1.06,.93s1.05-.35,1.05-.85c0-1.51-3.6-.6-3.59-3.13,0-1.26,1.02-2.02,2.46-2.02s2.41,.73,2.5,1.99h-1.54c-.03-.46-.4-.82-1-.83-.55-.02-.96,.25-.96,.82,0,1.4,3.58,.62,3.58,3.08,0,1.1-.88,2.09-2.47,2.09Z"/><path class="cls-2" d="M350.36,49.32h-2.65v1.75h2.35v1.11h-2.35v1.85h2.65v1.14h-4.05v-6.99h4.05v1.14Z"/><path class="cls-2" d="M281.83,60.19c1.68,0,2.52,.97,2.52,2.14,0,.85-.47,1.71-1.59,2.01l1.67,2.83h-1.62l-1.54-2.72h-.66v2.72h-1.4v-6.98h2.62Zm-.05,1.16h-1.17v2.05h1.17c.78,0,1.13-.41,1.13-1.04s-.35-1.01-1.13-1.01Z"/><path class="cls-2" d="M289.67,61.32h-2.65v1.75h2.35v1.11h-2.35v1.85h2.65v1.14h-4.05v-6.99h4.05v1.14Z"/><path class="cls-2" d="M294.14,60.1c1.55,0,2.81,.83,3.28,2.26h-1.61c-.33-.67-.93-1-1.68-1-1.22,0-2.09,.89-2.09,2.31s.87,2.31,2.09,2.31c.75,0,1.35-.33,1.68-1.01h1.61c-.47,1.44-1.73,2.26-3.28,2.26-2.01,0-3.54-1.47-3.54-3.56s1.53-3.57,3.54-3.57Z"/><path class="cls-2" d="M298.6,60.19h1.4v4.32c0,.96,.52,1.46,1.41,1.46s1.42-.5,1.42-1.46v-4.32h1.41v4.31c0,1.84-1.32,2.74-2.85,2.74s-2.79-.9-2.79-2.74v-4.31Z"/><path class="cls-2" d="M308.21,60.19c1.68,0,2.52,.97,2.52,2.14,0,.85-.47,1.71-1.59,2.01l1.67,2.83h-1.62l-1.54-2.72h-.66v2.72h-1.4v-6.98h2.62Zm-.05,1.16h-1.17v2.05h1.17c.78,0,1.13-.41,1.13-1.04s-.35-1.01-1.13-1.01Z"/><path class="cls-2" d="M314.41,67.23c-1.45,0-2.57-.76-2.59-2.08h1.5c.04,.56,.41,.93,1.06,.93s1.05-.35,1.05-.85c0-1.51-3.6-.6-3.59-3.13,0-1.26,1.02-2.02,2.46-2.02s2.41,.73,2.5,1.99h-1.54c-.03-.46-.4-.82-1-.83-.55-.02-.96,.25-.96,.82,0,1.4,3.58,.62,3.58,3.08,0,1.1-.88,2.09-2.47,2.09Z"/><path class="cls-2" d="M321.33,67.23c-1.97,0-3.58-1.48-3.58-3.58s1.61-3.57,3.58-3.57,3.57,1.48,3.57,3.57-1.59,3.58-3.57,3.58Zm0-1.25c1.26,0,2.13-.91,2.13-2.33s-.87-2.31-2.13-2.31-2.14,.89-2.14,2.31,.87,2.33,2.14,2.33Z"/><path class="cls-2" d="M328.35,67.23c-1.45,0-2.57-.76-2.59-2.08h1.5c.04,.56,.41,.93,1.06,.93s1.05-.35,1.05-.85c0-1.51-3.6-.6-3.59-3.13,0-1.26,1.02-2.02,2.46-2.02s2.41,.73,2.5,1.99h-1.54c-.03-.46-.4-.82-1-.83-.55-.02-.96,.25-.96,.82,0,1.4,3.58,.62,3.58,3.08,0,1.1-.88,2.09-2.47,2.09Z"/><path class="cls-2" d="M273.78,72.19h4.31v1.13h-2.91v1.79h2.23v1.11h-2.23v2.95h-1.4v-6.98Z"/><path class="cls-2" d="M279.08,72.19h1.4v6.98h-1.4v-6.98Z"/><path class="cls-2" d="M287.83,72.18v6.99h-1.4l-3.17-4.79v4.79h-1.4v-6.99h1.4l3.17,4.8v-4.8h1.4Z"/><path class="cls-2" d="M293.49,77.83h-2.78l-.46,1.33h-1.47l2.51-6.99h1.63l2.51,6.99h-1.48l-.46-1.33Zm-1.39-4.04l-1.01,2.92h2.02l-1.01-2.92Z"/><path class="cls-2" d="M302.34,72.18v6.99h-1.4l-3.17-4.79v4.79h-1.4v-6.99h1.4l3.17,4.8v-4.8h1.4Z"/><path class="cls-2" d="M306.92,72.1c1.55,0,2.81,.83,3.28,2.26h-1.61c-.33-.67-.93-1-1.68-1-1.22,0-2.09,.89-2.09,2.31s.87,2.31,2.09,2.31c.75,0,1.35-.33,1.68-1.01h1.61c-.47,1.44-1.73,2.26-3.28,2.26-2.01,0-3.54-1.47-3.54-3.56s1.53-3.57,3.54-3.57Z"/><path class="cls-2" d="M315.45,73.32h-2.65v1.75h2.35v1.11h-2.35v1.85h2.65v1.14h-4.05v-6.99h4.05v1.14Z"/><path class="cls-2" d="M316.72,72.19h1.4v6.98h-1.4v-6.98Z"/><path class="cls-2" d="M322.12,72.19c1.68,0,2.52,.97,2.52,2.14,0,.85-.47,1.71-1.59,2.01l1.67,2.83h-1.62l-1.54-2.72h-.66v2.72h-1.4v-6.98h2.62Zm-.05,1.16h-1.17v2.05h1.17c.78,0,1.13-.41,1.13-1.04s-.35-1.01-1.13-1.01Z"/><path class="cls-2" d="M329.15,79.23c-1.97,0-3.58-1.48-3.58-3.58s1.61-3.57,3.58-3.57,3.57,1.48,3.57,3.57-1.59,3.58-3.57,3.58Zm0-1.25c1.26,0,2.13-.91,2.13-2.33s-.87-2.31-2.13-2.31-2.14,.89-2.14,2.31,.87,2.33,2.14,2.33Z"/><path class="cls-2" d="M336.17,79.23c-1.45,0-2.57-.76-2.59-2.08h1.5c.04,.56,.41,.93,1.06,.93s1.05-.35,1.05-.85c0-1.51-3.6-.6-3.59-3.13,0-1.26,1.02-2.02,2.46-2.02s2.41,.73,2.5,1.99h-1.54c-.03-.46-.4-.82-1-.83-.55-.02-.96,.25-.96,.82,0,1.4,3.58,.62,3.58,3.08,0,1.1-.88,2.09-2.47,2.09Z"/><path class="cls-2" d="M271.02,84.19h1.4v6.98h-1.4v-6.98Z"/><path class="cls-2" d="M279.77,84.18v6.99h-1.4l-3.17-4.79v4.79h-1.4v-6.99h1.4l3.17,4.8v-4.8h1.4Z"/><path class="cls-2" d="M283.56,91.23c-1.45,0-2.57-.76-2.59-2.08h1.5c.04,.56,.41,.93,1.06,.93s1.05-.35,1.05-.85c0-1.51-3.6-.6-3.59-3.13,0-1.26,1.02-2.02,2.46-2.02s2.41,.73,2.5,1.99h-1.54c-.03-.46-.4-.82-1-.83-.55-.02-.96,.25-.96,.82,0,1.4,3.58,.62,3.58,3.08,0,1.1-.88,2.09-2.47,2.09Z"/><path class="cls-2" d="M287.22,84.19h1.4v4.32c0,.96,.52,1.46,1.41,1.46s1.42-.5,1.42-1.46v-4.32h1.41v4.31c0,1.84-1.32,2.74-2.85,2.74s-2.79-.9-2.79-2.74v-4.31Z"/><path class="cls-2" d="M294.21,84.19h4.31v1.13h-2.91v1.79h2.23v1.11h-2.23v2.95h-1.4v-6.98Z"/><path class="cls-2" d="M299.51,84.19h1.4v6.98h-1.4v-6.98Z"/><path class="cls-2" d="M305.49,84.1c1.55,0,2.81,.83,3.28,2.26h-1.61c-.33-.67-.93-1-1.68-1-1.22,0-2.09,.89-2.09,2.31s.87,2.31,2.09,2.31c.75,0,1.35-.33,1.68-1.01h1.61c-.47,1.44-1.73,2.26-3.28,2.26-2.01,0-3.54-1.47-3.54-3.56s1.53-3.57,3.54-3.57Z"/><path class="cls-2" d="M309.97,84.19h1.4v6.98h-1.4v-6.98Z"/><path class="cls-2" d="M316.8,85.32h-2.65v1.75h2.35v1.11h-2.35v1.85h2.65v1.14h-4.05v-6.99h4.05v1.14Z"/><path class="cls-2" d="M324.04,84.18v6.99h-1.4l-3.17-4.79v4.79h-1.4v-6.99h1.4l3.17,4.8v-4.8h1.4Z"/><path class="cls-2" d="M325.05,84.19h5.12v1.13h-1.86v5.85h-1.4v-5.85h-1.86v-1.13Z"/><path class="cls-2" d="M335.24,85.32h-2.65v1.75h2.35v1.11h-2.35v1.85h2.65v1.14h-4.05v-6.99h4.05v1.14Z"/><path class="cls-2" d="M338.92,91.23c-1.45,0-2.57-.76-2.59-2.08h1.5c.04,.56,.41,.93,1.06,.93s1.05-.35,1.05-.85c0-1.51-3.6-.6-3.59-3.13,0-1.26,1.02-2.02,2.46-2.02s2.41,.73,2.5,1.99h-1.54c-.03-.46-.4-.82-1-.83-.55-.02-.96,.25-.96,.82,0,1.4,3.58,.62,3.58,3.08,0,1.1-.88,2.09-2.47,2.09Z"/></g><circle id="Elipse_204-3" class="cls-4" cx="306.13" cy="251.87" r="63.87"/><g><path class="cls-2" d="M268.68,247.25c1.55,0,2.81,.83,3.28,2.26h-1.61c-.33-.67-.93-1-1.68-1-1.22,0-2.09,.89-2.09,2.31s.87,2.31,2.09,2.31c.75,0,1.35-.33,1.68-1.01h1.61c-.47,1.44-1.73,2.26-3.28,2.26-2.01,0-3.54-1.47-3.54-3.56s1.53-3.57,3.54-3.57Z"/><path class="cls-2" d="M277.21,248.47h-2.65v1.75h2.35v1.11h-2.35v1.85h2.65v1.14h-4.05v-6.99h4.05v1.14Z"/><path class="cls-2" d="M284.45,247.33v6.99h-1.4l-3.17-4.79v4.79h-1.4v-6.99h1.4l3.17,4.8v-4.8h1.4Z"/><path class="cls-2" d="M285.46,247.34h5.12v1.13h-1.86v5.85h-1.4v-5.85h-1.86v-1.13Z"/><path class="cls-2" d="M294.22,247.34c1.68,0,2.52,.97,2.52,2.14,0,.85-.47,1.71-1.59,2.01l1.67,2.83h-1.62l-1.54-2.72h-.66v2.72h-1.4v-6.98h2.62Zm-.05,1.16h-1.17v2.05h1.17c.78,0,1.13-.41,1.13-1.04s-.35-1.01-1.13-1.01Z"/><path class="cls-2" d="M302.29,252.99h-2.78l-.46,1.33h-1.47l2.51-6.99h1.63l2.51,6.99h-1.48l-.46-1.33Zm-1.39-4.04l-1.01,2.92h2.02l-1.01-2.92Z"/><path class="cls-2" d="M306.57,247.34v5.87h2.3v1.11h-3.7v-6.98h1.4Z"/><path class="cls-2" d="M309.76,247.34h1.4v6.98h-1.4v-6.98Z"/><path class="cls-2" d="M317.11,248.42l-3.14,4.72h3.14v1.18h-4.76v-1.08l3.12-4.72h-3.12v-1.18h4.76v1.08Z"/><path class="cls-2" d="M322.58,252.99h-2.78l-.46,1.33h-1.47l2.51-6.99h1.63l2.51,6.99h-1.48l-.46-1.33Zm-1.39-4.04l-1.01,2.92h2.02l-1.01-2.92Z"/><path class="cls-2" d="M328.66,247.25c1.55,0,2.81,.83,3.28,2.26h-1.61c-.33-.67-.93-1-1.68-1-1.22,0-2.09,.89-2.09,2.31s.87,2.31,2.09,2.31c.75,0,1.35-.33,1.68-1.01h1.61c-.42,1.3-1.49,2.1-2.84,2.24v.41c.67,0,1.3,.34,1.3,1.09s-.63,1.12-1.33,1.12h-1.42v-.82h1.19c.3,0,.49-.07,.49-.32s-.19-.31-.49-.31h-.62v-1.17c-1.79-.2-3.1-1.61-3.1-3.54,0-2.09,1.53-3.57,3.54-3.57Z"/><path class="cls-2" d="M337.42,252.99h-2.78l-.46,1.33h-1.47l2.51-6.99h1.63l2.51,6.99h-1.48l-.46-1.33Zm-1.95-7.5c.57,0,.83,.44,1.23,.44,.23,0,.39-.13,.43-.43h.75c-.13,.91-.6,1.31-1.24,1.31-.57,0-.83-.45-1.23-.45-.23,0-.39,.14-.44,.44h-.74c.13-.91,.6-1.31,1.24-1.31Zm.56,3.46l-1.01,2.92h2.02l-1.01-2.92Z"/><path class="cls-2" d="M343.54,254.39c-1.97,0-3.58-1.48-3.58-3.58s1.61-3.57,3.58-3.57,3.57,1.48,3.57,3.57-1.59,3.58-3.57,3.58Zm0-1.25c1.26,0,2.13-.91,2.13-2.33s-.87-2.31-2.13-2.31-2.14,.89-2.14,2.31,.87,2.33,2.14,2.33Z"/></g><circle id="Elipse_204-4" class="cls-3" cx="63.88" cy="251.87" r="63.87"/><g><path class="cls-2" d="M40.82,239.27h4.31v1.13h-2.91v1.79h2.23v1.11h-2.23v2.95h-1.4v-6.98Z"/><path class="cls-2" d="M50.4,244.91h-2.78l-.46,1.33h-1.47l2.51-6.99h1.63l2.51,6.99h-1.48l-.46-1.33Zm-1.39-4.04l-1.01,2.92h2.02l-1.01-2.92Z"/><path class="cls-2" d="M54.68,239.27v5.87h2.3v1.11h-3.7v-6.98h1.4Z"/><path class="cls-2" d="M57.51,239.27h5.12v1.13h-1.86v5.85h-1.4v-5.85h-1.86v-1.13Z"/><path class="cls-2" d="M67.92,244.91h-2.78l-.46,1.33h-1.47l2.51-6.99h1.63l2.51,6.99h-1.48l-.46-1.33Zm-1.39-4.04l-1.01,2.92h2.02l-1.01-2.92Z"/><path class="cls-2" d="M79.3,242.77c0,2.11-1.45,3.48-3.68,3.48h-2.44v-6.98h2.44c2.23,0,3.68,1.38,3.68,3.5Zm-3.73,2.29c1.47,0,2.3-.84,2.3-2.29s-.83-2.32-2.3-2.32h-.99v4.61h.99Z"/><path class="cls-2" d="M84.4,240.4h-2.65v1.75h2.35v1.11h-2.35v1.85h2.65v1.14h-4.05v-6.99h4.05v1.14Z"/><path class="cls-2" d="M15.64,251.18c1.55,0,2.81,.83,3.28,2.26h-1.61c-.33-.67-.93-1-1.68-1-1.22,0-2.09,.89-2.09,2.31s.87,2.31,2.09,2.31c.75,0,1.35-.33,1.68-1.01h1.61c-.47,1.44-1.73,2.26-3.28,2.26-2.01,0-3.54-1.47-3.54-3.56s1.53-3.57,3.54-3.57Z"/><path class="cls-2" d="M22.74,251.27c1.68,0,2.52,.97,2.52,2.14,0,.85-.47,1.71-1.59,2.01l1.67,2.83h-1.62l-1.54-2.72h-.66v2.72h-1.4v-6.98h2.62Zm-.05,1.16h-1.17v2.05h1.17c.78,0,1.13-.41,1.13-1.04s-.35-1.01-1.13-1.01Z"/><path class="cls-2" d="M26.53,251.27h1.4v6.98h-1.4v-6.98Z"/><path class="cls-2" d="M28.95,251.27h5.12v1.13h-1.86v5.85h-1.4v-5.85h-1.86v-1.13Z"/><path class="cls-2" d="M39.13,252.4h-2.65v1.75h2.35v1.11h-2.35v1.85h2.65v1.14h-4.05v-6.99h4.05v1.14Zm-.98-3.72v1.14l-2.3,1.05v-1l2.3-1.19Z"/><path class="cls-2" d="M43.02,251.27c1.68,0,2.52,.97,2.52,2.14,0,.85-.47,1.71-1.59,2.01l1.67,2.83h-1.62l-1.54-2.72h-.66v2.72h-1.4v-6.98h2.62Zm-.05,1.16h-1.17v2.05h1.17c.78,0,1.13-.41,1.13-1.04s-.35-1.01-1.13-1.01Z"/><path class="cls-2" d="M46.81,251.27h1.4v6.98h-1.4v-6.98Z"/><path class="cls-2" d="M52.83,258.31c-1.97,0-3.58-1.48-3.58-3.58s1.61-3.57,3.58-3.57,3.57,1.48,3.57,3.57-1.59,3.58-3.57,3.58Zm0-1.25c1.26,0,2.13-.91,2.13-2.33s-.87-2.31-2.13-2.31-2.14,.89-2.14,2.31,.87,2.33,2.14,2.33Z"/><path class="cls-2" d="M59.85,258.31c-1.45,0-2.57-.76-2.59-2.08h1.5c.04,.56,.41,.93,1.06,.93s1.05-.35,1.05-.85c0-1.51-3.6-.6-3.59-3.13,0-1.26,1.02-2.02,2.46-2.02s2.41,.73,2.5,1.99h-1.54c-.03-.46-.4-.82-1-.83-.55-.02-.96,.25-.96,.82,0,1.4,3.58,.62,3.58,3.08,0,1.1-.88,2.09-2.47,2.09Z"/><path class="cls-2" d="M65.54,251.27h5.12v1.13h-1.86v5.85h-1.4v-5.85h-1.86v-1.13Z"/><path class="cls-2" d="M75.73,252.4h-2.65v1.75h2.35v1.11h-2.35v1.85h2.65v1.14h-4.05v-6.99h4.05v1.14Zm-.98-3.72v1.14l-2.3,1.05v-1l2.3-1.19Z"/><path class="cls-2" d="M80.2,251.18c1.55,0,2.81,.83,3.28,2.26h-1.61c-.33-.67-.93-1-1.68-1-1.22,0-2.09,.89-2.09,2.31s.87,2.31,2.09,2.31c.75,0,1.35-.33,1.68-1.01h1.61c-.47,1.44-1.73,2.26-3.28,2.26-2.01,0-3.54-1.47-3.54-3.56s1.53-3.57,3.54-3.57Z"/><path class="cls-2" d="M90.65,251.26v6.99h-1.4l-3.17-4.79v4.79h-1.4v-6.99h1.4l3.17,4.8v-4.8h1.4Z"/><path class="cls-2" d="M92.03,251.27h1.4v6.98h-1.4v-6.98Z"/><path class="cls-2" d="M98.01,251.18c1.55,0,2.81,.83,3.28,2.26h-1.61c-.33-.67-.93-1-1.68-1-1.22,0-2.09,.89-2.09,2.31s.87,2.31,2.09,2.31c.75,0,1.35-.33,1.68-1.01h1.61c-.47,1.44-1.73,2.26-3.28,2.26-2.01,0-3.54-1.47-3.54-3.56s1.53-3.57,3.54-3.57Z"/><path class="cls-2" d="M105.73,258.31c-1.97,0-3.58-1.48-3.58-3.58s1.61-3.57,3.58-3.57,3.57,1.48,3.57,3.57-1.59,3.58-3.57,3.58Zm0-1.25c1.26,0,2.13-.91,2.13-2.33s-.87-2.31-2.13-2.31-2.14,.89-2.14,2.31,.87,2.33,2.14,2.33Z"/><path class="cls-2" d="M112.75,258.31c-1.45,0-2.57-.76-2.59-2.08h1.5c.04,.56,.41,.93,1.06,.93s1.05-.35,1.05-.85c0-1.51-3.6-.6-3.59-3.13,0-1.26,1.02-2.02,2.46-2.02s2.41,.73,2.5,1.99h-1.54c-.03-.46-.4-.82-1-.83-.55-.02-.96,.25-.96,.82,0,1.4,3.58,.62,3.58,3.08,0,1.1-.88,2.09-2.47,2.09Z"/></g></svg>