<?xml version="1.0" encoding="UTF-8"?><svg id="Icons" xmlns="http://www.w3.org/2000/svg" viewBox="0 0 656.03 608.67"><defs><style>.cls-1{fill:#54bfcd;}.cls-2{fill:#fff;}.cls-3{fill:#108141;}.cls-4{fill:#449ea5;}.cls-5{fill:#106833;}.cls-6{fill:#1b8992;}.cls-7{fill:#ffa800;}.cls-8{fill:#197a7c;}</style></defs><circle class="cls-4" cx="328.02" cy="151.32" r="151.32" transform="translate(-10.93 276.26) rotate(-45)"/><path class="cls-1" d="M328.02,204c39.97,0,76.31,15.5,103.36,40.81,22.38-24.72,36.01-57.51,36.01-93.49,0-76.97-62.4-139.37-139.37-139.37s-139.37,62.4-139.37,139.37c0,35.97,13.63,68.76,36.01,93.49,27.05-25.31,63.39-40.81,103.36-40.81Z"/><circle class="cls-5" cx="151.35" cy="457.32" r="151.32" transform="translate(-279.05 240.96) rotate(-45)"/><path class="cls-3" d="M196.97,430.98c-19.98-34.61-24.73-73.83-16.34-109.91-32.6-7.02-67.81-2.43-98.97,15.56C15,375.11-7.83,460.35,30.65,527s123.72,89.5,190.38,51.01c31.15-17.99,52.73-46.19,62.96-77.93-35.44-10.77-67.04-34.49-87.02-69.11Z"/><circle class="cls-8" cx="504.68" cy="457.32" r="151.32" transform="translate(-175.56 490.81) rotate(-45)"/><path class="cls-6" d="M459.06,430.98c-19.98,34.61-51.58,58.33-87.02,69.11,10.22,31.74,31.8,59.94,62.96,77.93,66.66,38.49,151.89,15.65,190.38-51.01s15.65-151.89-51.01-190.38c-31.15-17.99-66.37-22.58-98.97-15.56,8.39,36.08,3.65,75.3-16.34,109.91Z"/><circle class="cls-7" cx="328.02" cy="358.84" r="114.04"/><g><path class="cls-2" d="M294.3,339.16h-4.54c-.62-1.13-1.78-1.73-3.31-1.73-2.64,0-4.39,1.87-4.39,4.8,0,3.12,1.78,4.95,4.73,4.95,2.04,0,3.46-1.08,4.08-2.98h-5.21v-3.02h8.93v3.82c-.86,2.9-3.67,5.81-8.11,5.81-5.04,0-8.59-3.53-8.59-8.57s3.53-8.59,8.57-8.59c4.03,0,6.96,2.06,7.85,5.52Z"/><path class="cls-2" d="M307.18,337.12h-6.22v3.41h5.5v3.17h-5.5v3.7h6.22v3.29h-10.32v-16.85h10.32v3.29Z"/><path class="cls-2" d="M315.94,350.85c-3.62,0-6.46-1.8-6.58-5.21h4.37c.12,1.3,.94,1.92,2.09,1.92s1.97-.6,1.97-1.58c0-3.12-8.42-1.44-8.38-7.42,0-3.19,2.62-4.97,6.14-4.97s6.14,1.82,6.31,5.04h-4.44c-.07-1.08-.84-1.73-1.94-1.75-.98-.02-1.73,.48-1.73,1.54,0,2.93,8.33,1.61,8.33,7.25,0,2.83-2.21,5.18-6.14,5.18Z"/><path class="cls-2" d="M323.7,333.83h13.03v3.29h-4.46v13.56h-4.1v-13.56h-4.46v-3.29Z"/><path class="cls-2" d="M349.28,347.7h-6.29l-1.01,2.98h-4.3l6.1-16.85h4.75l6.1,16.85h-4.34l-1.01-2.98Zm-4.61-18.6c1.44,0,2.18,1.08,3.14,1.08,.55,0,.94-.34,1.03-1.08h2.11c-.41,2.52-1.63,3.55-3.31,3.55-1.44,0-2.18-1.08-3.14-1.08-.55,0-.94,.34-1.06,1.08h-2.09c.41-2.52,1.61-3.55,3.31-3.55Zm1.46,9.26l-2.06,6.17h4.15l-2.09-6.17Z"/><path class="cls-2" d="M364.45,350.85c-4.78,0-8.67-3.58-8.67-8.64s3.89-8.62,8.67-8.62,8.62,3.55,8.62,8.62-3.84,8.64-8.62,8.64Zm0-3.74c2.69,0,4.44-1.94,4.44-4.9s-1.75-4.9-4.44-4.9-4.46,1.9-4.46,4.9,1.73,4.9,4.46,4.9Z"/><path class="cls-2" d="M262.32,371.05c0,4.99-3.46,8.42-8.83,8.42h-6.31v-16.85h6.31c5.38,0,8.83,3.41,8.83,8.42Zm-9.1,4.87c3.1,0,4.92-1.78,4.92-4.87s-1.82-4.92-4.92-4.92h-1.94v9.79h1.94Z"/><path class="cls-2" d="M274.94,365.92h-6.22v3.41h5.5v3.17h-5.5v3.7h6.22v3.29h-10.32v-16.85h10.32v3.29Z"/><path class="cls-2" d="M282.69,362.63h4.85l4.73,11.67,4.68-11.67h4.82v16.85h-4.1v-10.1l-3.77,10.1h-3.31l-3.79-10.13v10.13h-4.1v-16.85Z"/><path class="cls-2" d="M315.21,376.5h-6.29l-1.01,2.98h-4.3l6.1-16.85h4.75l6.1,16.85h-4.34l-1.01-2.98Zm-3.14-9.34l-2.06,6.17h4.15l-2.09-6.17Z"/><path class="cls-2" d="M321.5,362.63h13.03v3.29h-4.46v13.56h-4.1v-13.56h-4.46v-3.29Z"/><path class="cls-2" d="M346.92,365.92h-6.22v3.41h5.5v3.17h-5.5v3.7h6.22v3.29h-10.32v-16.85h10.32v3.29Z"/><path class="cls-2" d="M356.47,362.63c4.13,0,6.19,2.38,6.19,5.3,0,2.11-1.15,4.1-3.74,4.87l3.89,6.67h-4.63l-3.5-6.36h-.98v6.36h-4.1v-16.85h6.89Zm-.24,3.41h-2.54v4.18h2.54c1.54,0,2.26-.79,2.26-2.11,0-1.25-.72-2.06-2.26-2.06Z"/><path class="cls-2" d="M365.23,362.63h4.1v16.85h-4.1v-16.85Z"/><path class="cls-2" d="M382.8,376.5h-6.29l-1.01,2.98h-4.3l6.1-16.85h4.75l6.1,16.85h-4.34l-1.01-2.98Zm-3.14-9.34l-2.06,6.17h4.15l-2.09-6.17Z"/><path class="cls-2" d="M389.99,362.63h4.1v16.85h-4.1v-16.85Z"/><path class="cls-2" d="M403.17,379.65c-3.62,0-6.46-1.8-6.58-5.21h4.37c.12,1.3,.94,1.92,2.09,1.92s1.97-.6,1.97-1.58c0-3.12-8.42-1.44-8.38-7.42,0-3.19,2.62-4.97,6.14-4.97s6.14,1.82,6.31,5.04h-4.44c-.07-1.08-.84-1.73-1.94-1.75-.98-.02-1.73,.48-1.73,1.54,0,2.93,8.33,1.61,8.33,7.25,0,2.83-2.21,5.18-6.14,5.18Z"/></g><g><path class="cls-2" d="M301.87,93.37h-4.54c-.62-1.13-1.78-1.73-3.31-1.73-2.64,0-4.39,1.87-4.39,4.8,0,3.12,1.78,4.95,4.73,4.95,2.04,0,3.46-1.08,4.08-2.98h-5.21v-3.02h8.93v3.82c-.86,2.9-3.67,5.81-8.11,5.81-5.04,0-8.59-3.53-8.59-8.57s3.53-8.59,8.57-8.59c4.03,0,6.96,2.06,7.85,5.52Z"/><path class="cls-2" d="M314.76,91.33h-6.22v3.41h5.5v3.17h-5.5v3.7h6.22v3.29h-10.32v-16.85h10.32v3.29Z"/><path class="cls-2" d="M323.52,105.06c-3.62,0-6.46-1.8-6.58-5.21h4.37c.12,1.3,.94,1.92,2.09,1.92s1.97-.6,1.97-1.58c0-3.12-8.42-1.44-8.38-7.42,0-3.19,2.62-4.97,6.14-4.97s6.14,1.82,6.31,5.04h-4.44c-.07-1.08-.84-1.73-1.94-1.75-.98-.02-1.73,.48-1.73,1.54,0,2.93,8.33,1.61,8.33,7.25,0,2.83-2.21,5.18-6.14,5.18Z"/><path class="cls-2" d="M331.27,88.04h13.03v3.29h-4.46v13.56h-4.1v-13.56h-4.46v-3.29Z"/><path class="cls-2" d="M356.85,101.92h-6.29l-1.01,2.98h-4.3l6.1-16.85h4.75l6.1,16.85h-4.34l-1.01-2.98Zm-4.61-18.6c1.44,0,2.18,1.08,3.14,1.08,.55,0,.94-.34,1.03-1.08h2.11c-.41,2.52-1.63,3.55-3.31,3.55-1.44,0-2.18-1.08-3.14-1.08-.55,0-.94,.34-1.06,1.08h-2.09c.41-2.52,1.61-3.55,3.31-3.55Zm1.46,9.26l-2.06,6.17h4.15l-2.09-6.17Z"/><path class="cls-2" d="M372.02,105.06c-4.78,0-8.67-3.58-8.67-8.64s3.89-8.62,8.67-8.62,8.62,3.55,8.62,8.62-3.84,8.64-8.62,8.64Zm0-3.74c2.69,0,4.44-1.94,4.44-4.9s-1.75-4.9-4.44-4.9-4.46,1.9-4.46,4.9,1.73,4.9,4.46,4.9Z"/><path class="cls-2" d="M261,125.27c0,4.99-3.46,8.42-8.83,8.42h-6.31v-16.85h6.31c5.38,0,8.83,3.41,8.83,8.42Zm-9.1,4.87c3.1,0,4.92-1.78,4.92-4.87s-1.82-4.92-4.92-4.92h-1.94v9.79h1.94Z"/><path class="cls-2" d="M273.79,130.72h-6.29l-1.01,2.98h-4.3l6.1-16.85h4.75l6.1,16.85h-4.34l-1.01-2.98Zm-3.14-9.34l-2.06,6.17h4.15l-2.09-6.17Z"/><path class="cls-2" d="M287.09,133.86c-3.62,0-6.46-1.8-6.58-5.21h4.37c.12,1.3,.94,1.92,2.09,1.92s1.97-.6,1.97-1.58c0-3.12-8.42-1.44-8.38-7.42,0-3.19,2.62-4.97,6.14-4.97s6.14,1.82,6.31,5.04h-4.44c-.07-1.08-.84-1.73-1.94-1.75-.98-.02-1.73,.48-1.73,1.54,0,2.93,8.33,1.61,8.33,7.25,0,2.83-2.21,5.18-6.14,5.18Z"/><path class="cls-2" d="M300.77,116.84h4.1v10.08c0,1.99,.98,3.14,2.93,3.14s2.98-1.15,2.98-3.14v-10.08h4.1v10.06c0,4.66-3.26,6.96-7.15,6.96s-6.96-2.3-6.96-6.96v-10.06Z"/><path class="cls-2" d="M332.83,116.84v16.85h-4.1l-6.86-10.39v10.39h-4.1v-16.85h4.1l6.86,10.44v-10.44h4.1Z"/><path class="cls-2" d="M335.81,116.84h4.1v16.85h-4.1v-16.85Z"/><path class="cls-2" d="M358.03,125.27c0,4.99-3.46,8.42-8.83,8.42h-6.31v-16.85h6.31c5.38,0,8.83,3.41,8.83,8.42Zm-9.1,4.87c3.1,0,4.92-1.78,4.92-4.87s-1.82-4.92-4.92-4.92h-1.94v9.79h1.94Z"/><path class="cls-2" d="M370.82,130.72h-6.29l-1.01,2.98h-4.3l6.1-16.85h4.75l6.1,16.85h-4.34l-1.01-2.98Zm-3.14-9.34l-2.06,6.17h4.15l-2.09-6.17Z"/><path class="cls-2" d="M393.17,125.27c0,4.99-3.46,8.42-8.83,8.42h-6.31v-16.85h6.31c5.38,0,8.83,3.41,8.83,8.42Zm-9.1,4.87c3.1,0,4.92-1.78,4.92-4.87s-1.82-4.92-4.92-4.92h-1.94v9.79h1.94Z"/><path class="cls-2" d="M405.79,120.13h-6.22v3.41h5.5v3.17h-5.5v3.7h6.22v3.29h-10.32v-16.85h10.32v3.29Z"/><path class="cls-2" d="M414.55,133.86c-3.62,0-6.46-1.8-6.58-5.21h4.37c.12,1.3,.94,1.92,2.09,1.92s1.97-.6,1.97-1.58c0-3.12-8.42-1.44-8.38-7.42,0-3.19,2.62-4.97,6.14-4.97s6.14,1.82,6.31,5.04h-4.44c-.07-1.08-.84-1.73-1.94-1.75-.98-.02-1.73,.48-1.73,1.54,0,2.93,8.33,1.61,8.33,7.25,0,2.83-2.21,5.18-6.14,5.18Z"/><path class="cls-2" d="M249.04,154.07c0,4.99-3.46,8.42-8.83,8.42h-6.31v-16.85h6.31c5.38,0,8.83,3.41,8.83,8.42Zm-9.1,4.87c3.1,0,4.92-1.78,4.92-4.87s-1.82-4.92-4.92-4.92h-1.94v9.79h1.94Z"/><path class="cls-2" d="M261.66,148.93h-6.22v3.41h5.5v3.17h-5.5v3.7h6.22v3.29h-10.32v-16.85h10.32v3.29Z"/><path class="cls-2" d="M284.55,154.07c0,4.99-3.46,8.42-8.83,8.42h-6.31v-16.85h6.31c5.38,0,8.83,3.41,8.83,8.42Zm-9.1,4.87c3.1,0,4.92-1.78,4.92-4.87s-1.82-4.92-4.92-4.92h-1.94v9.79h1.94Z"/><path class="cls-2" d="M286.86,145.64h4.1v16.85h-4.1v-16.85Z"/><path class="cls-2" d="M300.03,162.66c-3.62,0-6.46-1.8-6.58-5.21h4.37c.12,1.3,.94,1.92,2.09,1.92s1.97-.6,1.97-1.58c0-3.12-8.42-1.44-8.38-7.42,0-3.19,2.62-4.97,6.14-4.97s6.14,1.82,6.31,5.04h-4.44c-.07-1.08-.84-1.73-1.94-1.75-.98-.02-1.73,.48-1.73,1.54,0,2.93,8.33,1.61,8.33,7.25,0,2.83-2.21,5.18-6.14,5.18Z"/><path class="cls-2" d="M307.78,145.64h13.03v3.29h-4.46v13.56h-4.1v-13.56h-4.46v-3.29Z"/><path class="cls-2" d="M329.77,145.64c4.13,0,6.19,2.38,6.19,5.3,0,2.11-1.15,4.1-3.75,4.87l3.89,6.67h-4.63l-3.5-6.36h-.98v6.36h-4.1v-16.85h6.89Zm-.24,3.41h-2.54v4.18h2.54c1.54,0,2.26-.79,2.26-2.11,0-1.25-.72-2.06-2.26-2.06Z"/><path class="cls-2" d="M338.53,145.64h4.1v16.85h-4.1v-16.85Z"/><path class="cls-2" d="M353.46,162.49h-7.85v-16.85h7.58c3.43,0,5.47,1.7,5.47,4.37,0,2.04-1.22,3.36-2.86,3.84,1.97,.41,3.24,2.14,3.24,4.06,0,2.78-2.04,4.58-5.59,4.58Zm-1.06-13.56h-2.69v3.53h2.69c1.34,0,2.09-.6,2.09-1.75s-.74-1.78-2.09-1.78Zm.29,6.53h-2.98v3.72h3.02c1.37,0,2.16-.62,2.16-1.82s-.84-1.9-2.21-1.9Z"/><path class="cls-2" d="M361.35,145.64h4.1v10.08c0,1.99,.98,3.14,2.93,3.14s2.98-1.15,2.98-3.14v-10.08h4.1v10.06c0,4.66-3.26,6.96-7.15,6.96s-6.96-2.3-6.96-6.96v-10.06Z"/><path class="cls-2" d="M378.34,145.64h4.1v16.85h-4.1v-16.85Z"/><path class="cls-2" d="M393.2,145.45c4.01,0,7.03,2.26,7.99,5.9h-4.51c-.7-1.44-1.97-2.16-3.53-2.16-2.52,0-4.25,1.87-4.25,4.85s1.73,4.85,4.25,4.85c1.56,0,2.83-.72,3.53-2.16h4.51c-.86,3.24-3.34,5.38-6.7,5.81v.94c1.44,0,3.12,.74,3.12,2.74s-1.68,2.78-3.34,2.78h-3.7v-2.26h3.14c.6,0,.96-.14,.96-.62s-.36-.6-.96-.6h-1.7v-2.98c-4.35-.5-7.3-3.86-7.3-8.5,0-5.04,3.5-8.59,8.47-8.59Z"/><path class="cls-2" d="M414.2,159.52h-6.29l-1.01,2.98h-4.3l6.1-16.85h4.75l6.1,16.85h-4.34l-1.01-2.98Zm-4.61-18.6c1.44,0,2.18,1.08,3.14,1.08,.55,0,.94-.34,1.03-1.08h2.11c-.41,2.52-1.63,3.55-3.31,3.55-1.44,0-2.18-1.08-3.14-1.08-.55,0-.94,.34-1.06,1.08h-2.09c.41-2.52,1.61-3.55,3.31-3.55Zm1.46,9.26l-2.06,6.17h4.15l-2.09-6.17Z"/><path class="cls-2" d="M429.37,162.66c-4.78,0-8.67-3.58-8.67-8.64s3.89-8.62,8.67-8.62,8.62,3.55,8.62,8.62-3.84,8.64-8.62,8.64Zm0-3.74c2.69,0,4.44-1.94,4.44-4.9s-1.75-4.9-4.44-4.9-4.46,1.9-4.46,4.9,1.73,4.9,4.46,4.9Z"/></g><g><path class="cls-2" d="M493.11,450.93h-4.54c-.62-1.13-1.78-1.73-3.31-1.73-2.64,0-4.39,1.87-4.39,4.8,0,3.12,1.78,4.95,4.73,4.95,2.04,0,3.46-1.08,4.08-2.98h-5.21v-3.02h8.93v3.82c-.86,2.9-3.67,5.81-8.11,5.81-5.04,0-8.59-3.53-8.59-8.57s3.53-8.59,8.57-8.59c4.03,0,6.96,2.06,7.85,5.52Z"/><path class="cls-2" d="M506,448.89h-6.22v3.41h5.5v3.17h-5.5v3.7h6.22v3.29h-10.32v-16.85h10.32v3.29Z"/><path class="cls-2" d="M514.76,462.62c-3.62,0-6.46-1.8-6.58-5.21h4.37c.12,1.3,.94,1.92,2.09,1.92s1.97-.6,1.97-1.58c0-3.12-8.42-1.44-8.38-7.42,0-3.19,2.62-4.97,6.14-4.97s6.14,1.82,6.31,5.04h-4.44c-.07-1.08-.84-1.73-1.94-1.75-.98-.02-1.73,.48-1.73,1.54,0,2.93,8.33,1.61,8.33,7.25,0,2.83-2.21,5.18-6.14,5.18Z"/><path class="cls-2" d="M522.51,445.6h13.03v3.29h-4.46v13.56h-4.1v-13.56h-4.46v-3.29Z"/><path class="cls-2" d="M548.1,459.47h-6.29l-1.01,2.98h-4.3l6.1-16.85h4.75l6.1,16.85h-4.34l-1.01-2.98Zm-4.61-18.6c1.44,0,2.18,1.08,3.14,1.08,.55,0,.94-.34,1.03-1.08h2.11c-.41,2.52-1.63,3.55-3.31,3.55-1.44,0-2.18-1.08-3.14-1.08-.55,0-.94,.34-1.06,1.08h-2.09c.41-2.52,1.61-3.55,3.31-3.55Zm1.46,9.26l-2.06,6.17h4.15l-2.09-6.17Z"/><path class="cls-2" d="M563.27,462.62c-4.78,0-8.67-3.58-8.67-8.64s3.89-8.62,8.67-8.62,8.62,3.55,8.62,8.62-3.84,8.64-8.62,8.64Zm0-3.74c2.69,0,4.44-1.94,4.44-4.9s-1.75-4.9-4.44-4.9-4.46,1.9-4.46,4.9,1.73,4.9,4.46,4.9Z"/><path class="cls-2" d="M468.36,482.83c0,4.99-3.46,8.42-8.83,8.42h-6.31v-16.85h6.31c5.38,0,8.83,3.41,8.83,8.42Zm-9.1,4.87c3.1,0,4.92-1.78,4.92-4.87s-1.82-4.92-4.92-4.92h-1.95v9.79h1.95Z"/><path class="cls-2" d="M480.98,477.69h-6.22v3.41h5.5v3.17h-5.5v3.7h6.22v3.29h-10.32v-16.85h10.32v3.29Z"/><path class="cls-2" d="M499.05,477.69h-6.22v3.41h5.5v3.17h-5.5v3.7h6.22v3.29h-10.32v-16.85h10.32v3.29Z"/><path class="cls-2" d="M507.81,491.42c-3.62,0-6.46-1.8-6.58-5.21h4.37c.12,1.3,.94,1.92,2.09,1.92s1.97-.6,1.97-1.58c0-3.12-8.42-1.44-8.38-7.42,0-3.19,2.62-4.97,6.14-4.97s6.14,1.82,6.31,5.04h-4.44c-.07-1.08-.84-1.73-1.95-1.75-.98-.02-1.73,.48-1.73,1.54,0,2.93,8.33,1.61,8.33,7.25,0,2.83-2.21,5.18-6.14,5.18Z"/><path class="cls-2" d="M515.57,474.4h13.03v3.29h-4.46v13.56h-4.11v-13.56h-4.46v-3.29Z"/><path class="cls-2" d="M538.63,491.42c-4.78,0-8.67-3.58-8.67-8.64s3.89-8.62,8.67-8.62,8.62,3.55,8.62,8.62-3.84,8.64-8.62,8.64Zm0-3.74c2.69,0,4.44-1.94,4.44-4.9s-1.75-4.9-4.44-4.9-4.46,1.9-4.46,4.9,1.73,4.9,4.46,4.9Z"/><path class="cls-2" d="M562.8,489.69l3.7,4.44h-4.97l-2.16-2.9c-.6,.12-1.22,.19-1.87,.19-4.78,0-8.67-3.58-8.67-8.64s3.89-8.62,8.67-8.62,8.62,3.55,8.62,8.62c0,2.95-1.3,5.38-3.31,6.91Zm-5.3-2.02c2.69,0,4.44-1.94,4.44-4.9s-1.75-4.9-4.44-4.9-4.46,1.9-4.46,4.9,1.73,4.9,4.46,4.9Z"/><path class="cls-2" d="M568.36,474.4h4.1v10.08c0,1.99,.98,3.14,2.93,3.14s2.98-1.15,2.98-3.14v-10.08h4.11v10.06c0,4.66-3.26,6.96-7.15,6.96s-6.96-2.3-6.96-6.96v-10.06Z"/><path class="cls-2" d="M595.68,477.69h-6.22v3.41h5.5v3.17h-5.5v3.7h6.22v3.29h-10.32v-16.85h10.32v3.29Z"/></g><g><path class="cls-2" d="M93.36,450.93h-4.54c-.62-1.13-1.78-1.73-3.31-1.73-2.64,0-4.39,1.87-4.39,4.8,0,3.12,1.78,4.95,4.73,4.95,2.04,0,3.46-1.08,4.08-2.98h-5.21v-3.02h8.93v3.82c-.86,2.9-3.67,5.81-8.11,5.81-5.04,0-8.59-3.53-8.59-8.57s3.53-8.59,8.57-8.59c4.03,0,6.96,2.06,7.85,5.52Z"/><path class="cls-2" d="M106.25,448.89h-6.22v3.41h5.5v3.17h-5.5v3.7h6.22v3.29h-10.32v-16.85h10.32v3.29Z"/><path class="cls-2" d="M115.01,462.62c-3.62,0-6.46-1.8-6.58-5.21h4.37c.12,1.3,.94,1.92,2.09,1.92s1.97-.6,1.97-1.58c0-3.12-8.42-1.44-8.38-7.42,0-3.19,2.62-4.97,6.14-4.97s6.14,1.82,6.31,5.04h-4.44c-.07-1.08-.84-1.73-1.94-1.75-.98-.02-1.73,.48-1.73,1.54,0,2.93,8.33,1.61,8.33,7.25,0,2.83-2.21,5.18-6.14,5.18Z"/><path class="cls-2" d="M122.76,445.6h13.03v3.29h-4.46v13.56h-4.1v-13.56h-4.46v-3.29Z"/><path class="cls-2" d="M148.35,459.47h-6.29l-1.01,2.98h-4.3l6.1-16.85h4.75l6.1,16.85h-4.34l-1.01-2.98Zm-4.61-18.6c1.44,0,2.18,1.08,3.14,1.08,.55,0,.94-.34,1.03-1.08h2.11c-.41,2.52-1.63,3.55-3.31,3.55-1.44,0-2.18-1.08-3.14-1.08-.55,0-.94,.34-1.06,1.08h-2.09c.41-2.52,1.61-3.55,3.31-3.55Zm1.46,9.26l-2.06,6.17h4.15l-2.09-6.17Z"/><path class="cls-2" d="M163.52,462.62c-4.78,0-8.67-3.58-8.67-8.64s3.89-8.62,8.67-8.62,8.62,3.55,8.62,8.62-3.84,8.64-8.62,8.64Zm0-3.74c2.69,0,4.44-1.94,4.44-4.9s-1.75-4.9-4.44-4.9-4.46,1.9-4.46,4.9,1.73,4.9,4.46,4.9Z"/><path class="cls-2" d="M72.21,482.83c0,4.99-3.46,8.42-8.83,8.42h-6.31v-16.85h6.31c5.38,0,8.83,3.41,8.83,8.42Zm-9.1,4.87c3.1,0,4.92-1.78,4.92-4.87s-1.82-4.92-4.92-4.92h-1.94v9.79h1.94Z"/><path class="cls-2" d="M84.83,477.69h-6.22v3.41h5.5v3.17h-5.5v3.7h6.22v3.29h-10.32v-16.85h10.32v3.29Z"/><path class="cls-2" d="M100.36,474.21c4.01,0,7.03,2.26,7.99,5.9h-4.51c-.7-1.44-1.97-2.16-3.53-2.16-2.52,0-4.25,1.87-4.25,4.85s1.73,4.85,4.25,4.85c1.56,0,2.83-.72,3.53-2.16h4.51c-.96,3.65-3.98,5.88-7.99,5.88-4.97,0-8.47-3.53-8.47-8.57s3.5-8.59,8.47-8.59Z"/><path class="cls-2" d="M118.84,491.42c-4.78,0-8.67-3.58-8.67-8.64s3.89-8.62,8.67-8.62,8.62,3.55,8.62,8.62-3.84,8.64-8.62,8.64Zm0-3.74c2.69,0,4.44-1.94,4.44-4.9s-1.75-4.9-4.44-4.9-4.46,1.9-4.46,4.9,1.73,4.9,4.46,4.9Z"/><path class="cls-2" d="M129.73,474.4h4.85l4.73,11.67,4.68-11.67h4.82v16.85h-4.1v-10.1l-3.77,10.1h-3.31l-3.79-10.13v10.13h-4.1v-16.85Z"/><path class="cls-2" d="M158.41,485.2h-2.54v6.05h-4.1v-16.85h6.65c4.13,0,6.19,2.33,6.19,5.42,0,2.78-1.9,5.38-6.19,5.38Zm-.31-3.26c1.63,0,2.33-.82,2.33-2.11s-.7-2.11-2.33-2.11h-2.23v4.22h2.23Z"/><path class="cls-2" d="M173.63,474.4c4.13,0,6.19,2.38,6.19,5.3,0,2.11-1.15,4.1-3.74,4.87l3.89,6.67h-4.63l-3.5-6.36h-.98v6.36h-4.1v-16.85h6.89Zm-.24,3.41h-2.54v4.18h2.54c1.54,0,2.26-.79,2.26-2.11,0-1.25-.72-2.06-2.26-2.06Z"/><path class="cls-2" d="M192.88,488.27h-6.29l-1.01,2.98h-4.3l6.1-16.85h4.75l6.1,16.85h-4.34l-1.01-2.98Zm-3.14-9.34l-2.06,6.17h4.15l-2.09-6.17Z"/></g></svg>