<?xml version="1.0" encoding="UTF-8"?><svg id="Camada_1" xmlns="http://www.w3.org/2000/svg" viewBox="0 0 159 196"><defs><style>.cls-1{fill:#fff;}.cls-2{fill:#bee0ed;}.cls-3{fill:#dfebf0;}.cls-4{fill:#e8eeea;}.cls-5{fill:#e84e1b;}.cls-6{fill:#bfc5c9;}.cls-7{fill:#e64645;}.cls-8{fill:#faf8f1;}.cls-9{fill:#93a4d4;}.cls-10{fill:#90cfe9;}.cls-11{fill:#93ced5;}.cls-12{fill:#aec1d4;}.cls-13{fill:#d1dfe5;}.cls-14{fill:#e8edef;}.cls-15{fill:#deddde;}.cls-16{fill:#bdcfd7;}</style></defs><rect class="cls-11" x="0" y="0" width="159" height="196"/><g><rect class="cls-10" x="114.35" y="49.07" width="3.19" height="16.04"/><rect class="cls-10" x="51.16" y="49.07" width="3.33" height="16.04"/><path class="cls-3" d="M77.9,28.46v11.83c.18,.61,.28,1.25,.28,1.92s-.1,1.31-.28,1.92v14.7c.18,.61,.28,1.25,.28,1.92s-.1,1.31-.28,1.92v2.45h4.78V29.61c0-.54,.44-.98,.98-.98s.98,.44,.98,.98v35.5h7.61c-.98-1.19-1.57-2.71-1.57-4.37,0-.17,.01-.33,.02-.49-.15-1.79,.46-3.63,1.83-5,.15-.15,.3-.29,.46-.42,.13-.11,.26-.2,.4-.29,.03-.02,.06-.05,.09-.07,2.32-1.56,5.44-1.42,7.62,.42,.07,.04,.14,.08,.21,.13v-7.07c-1.08,.71-2.38,1.13-3.77,1.13-3.79,0-6.86-3.07-6.86-6.87,0-.17,.01-.33,.02-.49-.15-1.79,.46-3.63,1.83-5,.15-.15,.3-.29,.46-.42,.11-.09,.23-.18,.35-.26,.05-.03,.09-.07,.13-.1,.15-.1,.31-.2,.48-.29l.03-.02c2.25-1.23,5.09-.98,7.11,.72,.07,.04,.14,.08,.21,.13v-14.57h-16.85c-3.62,0-6.56,2.93-6.56,6.56Z"/><path class="cls-13" d="M66.31,36.71c.15-.15,.3-.29,.46-.42,.12-.1,.24-.18,.37-.27,.04-.03,.08-.06,.12-.09,.16-.11,.33-.21,.5-.3h0c2.25-1.23,5.09-.99,7.11,.72,1.45,.88,2.54,2.28,3.02,3.94v-11.83c0-3.62,2.94-6.56,6.56-6.56h-19.41v16.62c.3-.65,.72-1.27,1.26-1.81Z"/><path class="cls-13" d="M65.05,65.11h.97c-.39-.47-.72-1.01-.97-1.57v1.57Z"/><path class="cls-13" d="M76.61,65.11h1.29v-2.45c-.26,.91-.7,1.74-1.29,2.45Z"/><path class="cls-13" d="M66.77,54.82c.13-.11,.27-.21,.41-.31,.02-.02,.05-.03,.07-.05,2.32-1.56,5.44-1.42,7.62,.41,1.45,.88,2.54,2.28,3.02,3.94v-14.7c-.83,2.86-3.46,4.95-6.59,4.95-2.8,0-5.2-1.67-6.27-4.07v12.06c.3-.65,.72-1.27,1.26-1.81,.15-.15,.3-.29,.46-.42Z"/><path class="cls-1" d="M104.4,42.2c0,2.4-1.23,4.5-3.09,5.73v7.07c1.86,1.23,3.09,3.34,3.09,5.73,0,1.66-.59,3.18-1.57,4.37h9.98V28.46c0-3.62-2.94-6.56-6.56-6.56h-4.95v14.57c1.86,1.23,3.09,3.33,3.09,5.73Z"/><path class="cls-16" d="M65.05,65.11v-1.57c-.38-.85-.6-1.8-.6-2.79,0-.16,.01-.32,.02-.48-.09-1.09,.1-2.19,.57-3.2v-12.06c-.38-.85-.6-1.8-.6-2.79,0-.16,.01-.32,.02-.48-.09-1.09,.1-2.19,.57-3.2V21.9h-4c-3.62,0-6.56,2.93-6.56,6.56v36.65h10.55Z"/><path class="cls-12" d="M112.81,28.46v36.65h1.54V28.46c0-3.62-2.93-6.56-6.55-6.56h-1.54c3.62,0,6.56,2.94,6.56,6.56Z"/><path class="cls-12" d="M84.63,29.61c0-.54-.44-.98-.98-.98s-.98,.44-.98,.98v35.5h1.95V29.61Z"/><path class="cls-12" d="M71.31,49.07c3.12,0,5.76-2.09,6.59-4.95,.18-.61,.28-1.25,.28-1.92s-.1-1.31-.28-1.92c-.48-1.66-1.58-3.06-3.02-3.94,.14,.12,.27,.23,.4,.36,2.3,2.3,2.46,5.94,.48,8.43-.01,.02-.02,.03-.04,.05-.14,.17-.29,.34-.44,.49-2.48,2.48-6.49,2.48-8.97,0-1.11-1.1-1.71-2.52-1.83-3.96-.01,.16-.02,.32-.02,.48,0,1,.22,1.94,.6,2.79,1.07,2.4,3.47,4.07,6.27,4.07Z"/><path class="cls-1" d="M67.01,36.34c-2.38,2.38-2.38,6.23,0,8.61,2.38,2.38,6.23,2.38,8.61,0,.44-.44,.8-.93,1.07-1.45-.22,.58-.54,1.13-.94,1.63,1.98-2.49,1.82-6.12-.48-8.43-.13-.13-.27-.25-.4-.36-2.02-1.71-4.86-1.95-7.11-.72,.17-.09,.35-.18,.53-.26-.46,.26-.89,.58-1.28,.98Zm8.86,4.85h-.01l-.89,.43h-3.75v3.75l-.42,.9h0l-.42-.9v-3.75h-3.75l-.91-.42,.91-.42h3.75v-3.75l.42-.9,.42,.91v3.75h3.75l.91,.42Z"/><path class="cls-1" d="M66.77,36.29c.12-.1,.24-.19,.37-.27-.12,.09-.25,.17-.37,.27Z"/><path class="cls-1" d="M67.26,35.93c.16-.11,.33-.21,.5-.3-.17,.09-.34,.19-.5,.3Z"/><path class="cls-1" d="M75.72,45.18c-.14,.17-.29,.34-.44,.49,.16-.16,.31-.32,.44-.49Z"/><path class="cls-15" d="M66.31,45.68c2.48,2.48,6.49,2.48,8.97,0,.16-.16,.31-.32,.44-.49,.01-.02,.02-.03,.04-.05,.4-.5,.71-1.05,.94-1.63-.28,.52-.63,1.01-1.07,1.45-2.38,2.38-6.23,2.38-8.61,0-2.38-2.38-2.38-6.23,0-8.61,.39-.39,.82-.71,1.28-.98-.18,.08-.36,.16-.53,.26h0c-.17,.1-.34,.2-.5,.3-.04,.03-.08,.06-.12,.09-.12,.09-.25,.18-.37,.27-.16,.13-.32,.27-.46,.42-.54,.54-.96,1.16-1.26,1.81-.47,1.01-.66,2.11-.57,3.2,.12,1.44,.73,2.85,1.83,3.96Z"/><polygon class="cls-6" points="71.22 40.78 71.22 41.2 75.86 41.2 75.87 41.19 74.96 40.77 71.22 40.77 71.22 40.78"/><polygon class="cls-6" points="70.37 41.2 70.37 40.78 70.37 40.77 66.62 40.77 65.71 41.19 66.62 41.62 65.72 41.2 70.37 41.2"/><polygon class="cls-14" points="70.37 41.61 70.37 41.2 65.72 41.2 66.62 41.62 70.37 41.62 70.37 41.61"/><polygon class="cls-14" points="71.22 41.61 71.22 41.62 74.97 41.62 75.86 41.2 75.86 41.2 71.22 41.2 71.22 41.61"/><polygon class="cls-6" points="71.22 41.61 71.22 41.2 71.22 40.78 71.22 40.77 71.22 37.02 70.79 36.12 70.37 37.02 70.79 36.13 70.79 46.26 70.79 46.27 71.22 45.37 71.22 41.62 71.22 41.61"/><polygon class="cls-14" points="70.79 36.13 70.37 37.02 70.37 40.77 70.37 40.78 70.37 41.2 70.37 41.61 70.37 41.62 70.37 45.37 70.79 46.26 70.79 46.26 70.79 36.13"/><path class="cls-12" d="M78.18,60.74c0-.67-.1-1.31-.28-1.92-.48-1.66-1.58-3.06-3.02-3.94,.14,.12,.27,.23,.4,.36,2.31,2.31,2.46,5.95,.47,8.44,0,.01-.02,.02-.03,.03-.14,.17-.29,.34-.45,.5-.35,.35-.73,.64-1.13,.89h2.46c.59-.71,1.03-1.54,1.29-2.45,.18-.61,.28-1.25,.28-1.92Z"/><path class="cls-12" d="M64.47,60.26c-.01,.16-.02,.32-.02,.48,0,.99,.22,1.94,.6,2.79,.25,.57,.58,1.1,.97,1.57h1.42c-.4-.25-.78-.54-1.13-.89-1.1-1.1-1.71-2.52-1.83-3.96Z"/><path class="cls-1" d="M67.18,54.52c-.14,.1-.28,.2-.41,.31,.13-.11,.27-.21,.41-.31Z"/><path class="cls-1" d="M75.72,63.72c-.14,.17-.29,.34-.45,.5,.16-.16,.31-.32,.45-.5Z"/><path class="cls-1" d="M76.69,62.04c-.23,.58-.54,1.14-.94,1.65,1.99-2.49,1.84-6.13-.47-8.44-.13-.13-.26-.25-.4-.36-2.18-1.84-5.3-1.98-7.62-.41,.33-.22,.68-.41,1.04-.56-.46,.26-.89,.58-1.28,.97-2.38,2.38-2.38,6.23,0,8.61,.83,.83,1.85,1.37,2.92,1.62h2.77c1.07-.25,2.09-.78,2.92-1.62,.44-.44,.8-.93,1.07-1.45Zm-5.48,1.86l-.42,.91h0l-.42-.91v-3.75h-3.75l-.89-.42h-.01l.91-.43h3.75v-3.75l.42-.9,.42,.9v3.75h3.75l.91,.42h-.01l-.89,.42h-3.75v3.75Z"/><path class="cls-15" d="M67.01,54.88c.39-.39,.82-.71,1.28-.97-.36,.15-.71,.34-1.04,.56-.02,.02-.05,.03-.07,.05-.14,.1-.28,.2-.41,.31-.16,.13-.32,.27-.46,.42-.54,.54-.96,1.16-1.26,1.81-.47,1.01-.66,2.11-.57,3.2,.12,1.44,.73,2.85,1.83,3.96,.35,.35,.73,.64,1.13,.89h2.5c-1.07-.25-2.09-.78-2.92-1.62-2.38-2.38-2.38-6.23,0-8.61Z"/><path class="cls-15" d="M75.72,63.72s.02-.02,.03-.03c.4-.51,.72-1.06,.94-1.65-.28,.52-.63,1.01-1.07,1.45-.83,.83-1.85,1.37-2.92,1.62h1.45c.4-.25,.78-.54,1.13-.89,.16-.16,.31-.32,.45-.5Z"/><polygon class="cls-6" points="70.37 59.32 70.37 59.31 66.62 59.31 65.71 59.73 65.73 59.74 70.37 59.74 70.37 59.32"/><polygon class="cls-6" points="71.22 59.74 75.86 59.74 75.87 59.73 74.96 59.31 71.22 59.31 71.22 59.32 71.22 59.74"/><polygon class="cls-14" points="75.86 59.74 75.86 59.74 71.22 59.74 71.22 60.15 71.22 60.15 74.97 60.15 75.86 59.74"/><polygon class="cls-14" points="70.37 59.74 65.73 59.74 65.72 59.74 66.62 60.15 70.37 60.15 70.37 60.15 70.37 59.74"/><polygon class="cls-6" points="71.22 59.74 71.22 59.32 71.22 59.31 71.22 55.56 70.79 54.65 70.37 55.56 70.79 54.66 70.79 64.8 70.79 64.81 71.22 63.9 71.22 60.15 71.22 60.15 71.22 59.74"/><polygon class="cls-14" points="70.79 54.66 70.37 55.56 70.37 59.31 70.37 59.32 70.37 59.74 70.37 60.15 70.37 60.15 70.37 63.9 70.79 64.8 70.79 64.8 70.79 54.66"/><path class="cls-12" d="M104.4,42.2c0-2.4-1.23-4.5-3.09-5.73-.07-.05-.14-.08-.21-.13,.14,.12,.27,.23,.4,.36,2.32,2.31,2.47,5.97,.46,8.46h-.01c-.14,.19-.29,.35-.45,.51-2.48,2.48-6.49,2.48-8.97,0-1.11-1.11-1.72-2.52-1.83-3.97-.01,.16-.02,.33-.02,.49,0,3.79,3.07,6.87,6.86,6.87,1.39,0,2.69-.42,3.77-1.13,1.86-1.23,3.09-3.34,3.09-5.73Z"/><path class="cls-1" d="M92.99,36.29c.11-.09,.23-.18,.35-.26-.12,.08-.24,.17-.35,.26Z"/><path class="cls-1" d="M93.48,35.93c.15-.1,.31-.2,.48-.29-.16,.09-.32,.18-.48,.29Z"/><path class="cls-1" d="M93.23,36.34c-2.38,2.38-2.38,6.23,0,8.61,2.38,2.38,6.23,2.38,8.61,0,.44-.44,.8-.93,1.07-1.45-.23,.59-.55,1.15-.96,1.67,2.01-2.49,1.86-6.15-.46-8.46-.13-.13-.27-.25-.4-.36-2.02-1.71-4.86-1.95-7.11-.72,.17-.09,.35-.18,.53-.25-.46,.26-.89,.58-1.28,.98Zm8.86,4.85h0l-.89,.43h-3.75v3.75l-.42,.9h0l-.42-.9v-3.75h-3.75l-.9-.42,.91-.42h3.75v-3.75l.43-.9,.42,.91v3.75h3.75l.9,.42Z"/><path class="cls-1" d="M101.95,45.18c-.14,.17-.29,.34-.45,.5,.16-.16,.31-.33,.45-.5Z"/><path class="cls-15" d="M101.5,45.68c.16-.16,.31-.33,.45-.5h.01c.41-.53,.73-1.09,.96-1.68-.28,.52-.63,1.01-1.07,1.45-2.38,2.38-6.23,2.38-8.61,0-2.38-2.38-2.38-6.23,0-8.61,.39-.39,.82-.71,1.28-.98-.18,.08-.36,.16-.53,.25l-.03,.02c-.16,.09-.32,.18-.48,.29-.05,.03-.09,.07-.13,.1-.12,.08-.24,.17-.35,.26-.16,.13-.32,.27-.46,.42-1.37,1.37-1.98,3.21-1.83,5,.12,1.45,.73,2.86,1.83,3.97,2.48,2.48,6.49,2.48,8.97,0Z"/><polygon class="cls-6" points="96.59 41.2 96.59 40.78 96.59 40.77 92.84 40.77 91.94 41.19 92.84 41.62 91.95 41.2 96.59 41.2"/><polygon class="cls-6" points="97.44 40.78 97.44 41.2 102.08 41.2 102.09 41.19 101.19 40.77 97.44 40.77 97.44 40.78"/><polygon class="cls-14" points="97.44 41.2 97.44 41.61 97.44 41.62 101.19 41.62 102.08 41.2 102.08 41.2 97.44 41.2"/><polygon class="cls-14" points="96.59 41.61 96.59 41.2 91.95 41.2 92.84 41.62 96.59 41.62 96.59 41.61"/><polygon class="cls-6" points="97.44 41.61 97.44 41.2 97.44 40.78 97.44 40.77 97.44 37.02 97.02 36.12 96.59 37.02 97.01 36.13 97.01 46.26 97.02 46.27 97.44 45.37 97.44 41.62 97.44 41.61"/><polygon class="cls-14" points="97.01 36.13 96.59 37.02 96.59 40.77 96.59 40.78 96.59 41.2 96.59 41.61 96.59 41.62 96.59 45.37 97.01 46.26 97.01 46.26 97.01 36.13"/><path class="cls-12" d="M90.7,60.25c-.01,.16-.02,.33-.02,.49,0,1.66,.59,3.18,1.57,4.37h1.42c-.4-.25-.78-.54-1.13-.89-1.11-1.11-1.72-2.52-1.83-3.97Z"/><path class="cls-12" d="M101.31,55.01c-.07-.05-.14-.08-.21-.13,.14,.12,.27,.23,.4,.36,2.48,2.48,2.48,6.49,0,8.97-.35,.35-.73,.64-1.13,.89h2.46c.98-1.19,1.57-2.71,1.57-4.37,0-2.4-1.23-4.5-3.09-5.73Z"/><path class="cls-1" d="M92.99,54.82c.13-.1,.26-.2,.4-.29-.13,.09-.27,.19-.4,.29Z"/><path class="cls-1" d="M101.84,63.49c.44-.44,.8-.93,1.07-1.45-.31,.79-.78,1.54-1.42,2.18,2.48-2.48,2.48-6.49,0-8.97-.13-.13-.27-.25-.4-.36-2.18-1.84-5.3-1.98-7.62-.42,.33-.22,.68-.41,1.04-.56-.46,.26-.89,.58-1.28,.97-2.38,2.38-2.38,6.23,0,8.61,.83,.83,1.85,1.37,2.92,1.62h2.77c1.07-.25,2.08-.78,2.92-1.62Zm-4.41,.41l-.42,.91h0l-.42-.91v-3.75h-3.75l-.89-.42h-.01l.91-.43h3.75v-3.75l.43-.9,.42,.9v3.75h3.75l.9,.42h0l-.89,.42h-3.75v3.75Z"/><path class="cls-15" d="M93.23,54.88c.39-.39,.82-.71,1.28-.97-.36,.15-.71,.34-1.04,.56-.03,.02-.06,.04-.09,.07-.13,.09-.27,.19-.4,.29-.16,.13-.32,.27-.46,.42-1.37,1.37-1.98,3.21-1.83,5,.12,1.45,.73,2.86,1.83,3.97,.35,.35,.73,.64,1.13,.89h2.5c-1.07-.25-2.09-.78-2.92-1.62-2.38-2.38-2.38-6.23,0-8.61Z"/><path class="cls-15" d="M101.5,64.22c.64-.64,1.11-1.38,1.42-2.18-.28,.52-.63,1.01-1.07,1.45-.83,.83-1.85,1.37-2.92,1.62h1.45c.4-.25,.78-.54,1.13-.89Z"/><polygon class="cls-6" points="97.44 59.74 102.08 59.74 102.09 59.73 101.19 59.31 97.44 59.31 97.44 59.32 97.44 59.74"/><polygon class="cls-6" points="96.59 59.32 96.59 59.31 92.84 59.31 91.94 59.73 91.95 59.74 96.59 59.74 96.59 59.32"/><polygon class="cls-14" points="102.08 59.74 102.08 59.74 97.44 59.74 97.44 60.15 97.44 60.15 101.19 60.15 102.08 59.74"/><polygon class="cls-14" points="96.59 59.74 91.95 59.74 91.95 59.74 92.84 60.15 96.59 60.15 96.59 60.15 96.59 59.74"/><polygon class="cls-6" points="97.44 59.74 97.44 59.32 97.44 59.31 97.44 55.56 97.02 54.65 96.59 55.56 97.01 54.66 97.01 64.8 97.02 64.81 97.44 63.9 97.44 60.15 97.44 60.15 97.44 59.74"/><polygon class="cls-14" points="97.01 54.66 96.59 55.56 96.59 59.31 96.59 59.32 96.59 59.74 96.59 60.15 96.59 60.15 96.59 63.9 97.01 64.8 97.01 64.8 97.01 54.66"/><path class="cls-8" d="M63.82,112.38v-20.24c0-1.08,.87-1.95,1.95-1.95s1.95,.87,1.95,1.95v20.24h5.92v-19.47h1.69v19.47h2.67v-6.18h1.69v6.18h2.47v-.49h1.69v.49h2.49v-8h1.69v8h11.68v-17.97h1.69v17.97h1.38v-9.92h1.69v9.92h4.08v-29.45H51.16v29.45h12.66Zm18.36-16.55h1.69v13.85h-1.69v-13.85Zm-2.47-2.92v10.28h-1.69v-10.28h1.69Z"/><polygon class="cls-1" points="108.59 82.93 108.59 65.11 102.83 65.11 100.37 65.11 98.93 65.11 96.15 65.11 93.66 65.11 92.24 65.11 84.63 65.11 82.68 65.11 77.9 65.11 76.61 65.11 74.15 65.11 72.7 65.11 69.93 65.11 67.43 65.11 66.02 65.11 65.05 65.11 54.49 65.11 51.16 65.11 51.16 82.93 108.59 82.93"/><path class="cls-4" d="M117.55,122.56v-57.45h-8.96v47.27h-4.08v12.9h-1.69v-12.9h-1.38v20.95h-1.69v-20.95h-11.68v3.47h-1.69v-3.47h-2.49v22.45h-1.69v-22.45h-2.47v11.69h-1.69v-11.69h-2.67v3.47h-1.69v-3.47h-5.92v23.22c0,1.08-.87,1.95-1.95,1.95s-1.95-.87-1.95-1.95v-23.22h-12.66v40.3s55.9,3.29,66.39-30.12Zm-29.49-3.86v16.14h-1.69v-16.14h1.69Zm-8.35,8.07v8.07h-1.69v-8.07h1.69Zm-6.06-8.07h1.69v16.14h-1.69v-16.14Z"/><path class="cls-2" d="M85.72,166.49l1.36-1.78-2.03-.95,1.75-1.4-1.75-1.4,2.03-.94-1.36-1.78,2.2-.43-.89-2.05,2.23,.11-.38-2.21,2.14,.64,.16-2.23,1.93,1.13,.69-2.13,1.6,1.56,1.18-1.9,1.18,1.9,1.6-1.56,.69,2.13,1.93-1.13,.16,2.23,2.14-.64-.38,2.21,2.24-.11-.89,2.05,2.2,.43-1.36,1.78,2.03,.95-1.75,1.4,1.75,1.4-2.03,.95,1.36,1.78-1.52,.3h11.6v-44.23c-10.49,33.41-66.39,30.12-66.39,30.12v14.11h36.07l-1.52-.3Z"/><polygon class="cls-10" points="117.55 189.38 117.55 182.43 117.55 166.79 105.95 166.79 105.27 166.92 106.16 168.97 103.92 168.87 104.3 171.07 102.16 170.43 102 172.67 100.07 171.53 99.37 173.66 97.77 172.1 96.59 174 95.41 172.1 93.81 173.66 93.12 171.53 91.19 172.67 91.03 170.43 88.88 171.07 89.26 168.87 87.02 168.97 87.91 166.92 87.23 166.79 51.16 166.79 51.16 179.19 51.16 189.38 117.55 189.38"/><path class="cls-7" d="M67.72,92.14c0-1.08-.87-1.95-1.95-1.95s-1.95,.87-1.95,1.95v43.46c0,1.08,.87,1.95,1.95,1.95s1.95-.87,1.95-1.95v-43.46Z"/><rect class="cls-9" x="73.64" y="118.7" width="1.69" height="16.14"/><rect class="cls-9" x="82.17" y="95.83" width="1.69" height="13.85"/><polygon class="cls-9" points="75.34 92.91 73.64 92.91 73.64 112.38 73.64 115.85 75.34 115.85 75.34 112.38 75.34 92.91"/><rect class="cls-9" x="86.36" y="118.7" width="1.69" height="16.14"/><polygon class="cls-9" points="86.36 104.38 86.36 112.38 86.36 115.85 88.05 115.85 88.05 112.38 88.05 104.38 86.36 104.38"/><polygon class="cls-9" points="82.17 111.89 82.17 112.38 82.17 134.83 83.87 134.83 83.87 112.38 83.87 111.89 82.17 111.89"/><rect class="cls-9" x="78.01" y="126.77" width="1.69" height="8.07"/><rect class="cls-9" x="78.01" y="92.91" width="1.69" height="10.28"/><polygon class="cls-9" points="78.01 106.2 78.01 112.38 78.01 124.08 79.7 124.08 79.7 112.38 79.7 106.2 78.01 106.2"/><polygon class="cls-16" points="101.43 94.41 99.74 94.41 99.74 112.38 99.74 133.34 101.43 133.34 101.43 112.38 101.43 94.41"/><polygon class="cls-16" points="102.81 102.47 102.81 112.38 102.81 125.28 104.5 125.28 104.5 112.38 104.5 102.47 102.81 102.47"/><polygon class="cls-5" points="106.11 164.72 108.13 163.77 106.39 162.37 108.13 160.97 106.11 160.02 107.46 158.25 105.27 157.82 106.16 155.76 103.92 155.87 104.3 153.67 102.16 154.31 102 152.07 100.07 153.21 99.37 151.08 97.77 152.64 96.59 150.74 95.41 152.64 93.81 151.08 93.12 153.21 91.19 152.07 91.03 154.31 88.88 153.67 89.26 155.87 87.02 155.76 87.91 157.82 85.72 158.25 87.08 160.02 85.05 160.97 86.79 162.37 85.05 163.77 87.08 164.72 85.72 166.49 87.23 166.79 87.91 166.92 87.02 168.97 89.26 168.87 88.88 171.07 91.03 170.43 91.19 172.67 93.12 171.53 93.81 173.66 95.41 172.1 96.59 174 97.77 172.1 99.37 173.66 100.07 171.53 102 172.67 102.16 170.43 104.3 171.07 103.92 168.87 106.16 168.97 105.27 166.92 105.95 166.79 107.46 166.49 106.11 164.72"/></g></svg>