<?xml version="1.0" encoding="UTF-8"?><svg xmlns="http://www.w3.org/2000/svg" viewBox="0 0 159 196"><defs><style>.cls-1{fill:#fff;}.cls-2{fill:#d9d9d9;}.cls-2,.cls-3,.cls-4,.cls-5{mix-blend-mode:multiply;}.cls-6{isolation:isolate;}.cls-3{fill:#c6c6c5;}.cls-7{fill:#db4123;}.cls-8{fill:#d5d5d5;}.cls-9{fill:#003354;}.cls-4{fill:#e3e3e2;}.cls-10{fill:#90cfd5;}</style></defs><g class="cls-6"><g id="Camada_1"><rect class="cls-9" width="159" height="196"/><g><g><path class="cls-1" d="M98.27,39.72l-9.88,10.88,41.59,37.75,9.88-10.88c1.82-2,1.65-5.1-.36-6.93l-34.3-31.13c-2.01-1.83-5.11-1.69-6.93,.31Z"/><rect class="cls-8" x="108.88" y="40.7" width="1.88" height="56.16" transform="translate(-14.93 103.85) rotate(-47.76)"/></g><g><path class="cls-10" d="M87.6,135.11c-2.63,2.9-7.1,3.13-9.99,.51l-31.23-28.34c-2.88-2.61-3.08-7.08-.44-9.98L108.95,27.89c2.63-2.9,7.09-3.13,9.97-.52l31.23,28.34c2.88,2.61,3.08,7.09,.45,9.98l-63,69.41Z"/><g><g><path class="cls-7" d="M112.65,47.43l4.4,3.99c1.36,1.23,3.46,1.13,4.7-.24,1.24-1.36,1.14-3.47-.21-4.7l-4.4-3.99-4.48,4.94Z"/><path class="cls-1" d="M117.21,42.56l-4.33-3.93c-1.36-1.23-3.46-1.12-4.7,.24-1.24,1.36-1.15,3.46,.21,4.7l4.33,3.93,4.48-4.94Z"/></g><g><path class="cls-7" d="M130.63,63.76l4.4,4c1.36,1.24,3.46,1.12,4.7-.24,1.24-1.36,1.15-3.46-.21-4.7l-4.4-4-4.48,4.94Z"/><path class="cls-1" d="M135.2,58.89l-4.33-3.93c-1.35-1.23-3.46-1.12-4.7,.24-1.24,1.37-1.14,3.47,.21,4.7l4.33,3.93,4.49-4.94Z"/></g><g><path class="cls-7" d="M102.37,58.75l4.4,3.99c1.36,1.24,3.46,1.13,4.7-.24,1.24-1.36,1.15-3.47-.21-4.7l-4.4-3.99-4.49,4.94Z"/><path class="cls-1" d="M106.94,53.88l-4.33-3.93c-1.36-1.23-3.46-1.12-4.7,.25-1.24,1.37-1.14,3.47,.21,4.7l4.33,3.93,4.49-4.94Z"/></g><g><path class="cls-7" d="M120.36,75.08l4.4,4c1.36,1.23,3.46,1.12,4.7-.24,1.24-1.36,1.15-3.47-.21-4.7l-4.4-4-4.49,4.94Z"/><path class="cls-1" d="M124.93,70.21l-4.33-3.93c-1.35-1.23-3.46-1.12-4.7,.24-1.24,1.37-1.14,3.47,.21,4.7l4.33,3.93,4.49-4.94Z"/></g><g><path class="cls-7" d="M92.1,70.07l4.4,3.99c1.36,1.23,3.46,1.12,4.7-.24,1.24-1.37,1.15-3.47-.21-4.7l-4.4-3.99-4.49,4.94Z"/><path class="cls-1" d="M96.66,65.2l-4.33-3.93c-1.36-1.23-3.46-1.12-4.7,.25-1.24,1.36-1.15,3.46,.21,4.7l4.33,3.93,4.48-4.94Z"/></g><g><path class="cls-7" d="M110.09,86.4l4.4,4c1.36,1.23,3.46,1.12,4.7-.24,1.24-1.37,1.15-3.47-.21-4.7l-4.4-4-4.49,4.94Z"/><path class="cls-1" d="M114.65,81.53l-4.33-3.93c-1.35-1.23-3.46-1.12-4.7,.24-1.24,1.36-1.14,3.47,.21,4.7l4.33,3.93,4.49-4.94Z"/></g><g><path class="cls-7" d="M81.82,81.39l4.4,3.99c1.36,1.23,3.46,1.12,4.7-.24,1.24-1.36,1.15-3.47-.21-4.7l-4.4-3.99-4.49,4.94Z"/><path class="cls-1" d="M86.39,76.52l-4.33-3.93c-1.36-1.23-3.46-1.12-4.7,.25-1.24,1.37-1.15,3.47,.21,4.7l4.33,3.93,4.49-4.94Z"/></g><g><path class="cls-7" d="M99.81,97.72l4.4,4c1.36,1.24,3.46,1.12,4.7-.24,1.24-1.36,1.15-3.47-.21-4.7l-4.4-4-4.49,4.94Z"/><path class="cls-1" d="M104.38,92.85l-4.33-3.93c-1.36-1.23-3.46-1.12-4.7,.24-1.24,1.37-1.14,3.47,.21,4.7l4.33,3.93,4.49-4.95Z"/></g><g><path class="cls-7" d="M71.55,92.71l4.4,3.99c1.36,1.23,3.46,1.12,4.7-.24,1.24-1.36,1.15-3.47-.21-4.7l-4.4-3.99-4.49,4.95Z"/><path class="cls-1" d="M76.11,87.84l-4.33-3.93c-1.36-1.23-3.46-1.12-4.7,.25-1.24,1.36-1.15,3.46,.21,4.7l4.33,3.93,4.49-4.95Z"/></g><g><path class="cls-7" d="M89.53,109.04l4.4,4c1.36,1.23,3.46,1.12,4.7-.24,1.24-1.37,1.15-3.47-.21-4.7l-4.4-4-4.49,4.94Z"/><path class="cls-1" d="M94.1,104.17l-4.33-3.93c-1.35-1.23-3.46-1.12-4.7,.25-1.24,1.36-1.14,3.47,.21,4.7l4.33,3.93,4.49-4.95Z"/></g><g><path class="cls-7" d="M61.27,104.03l4.4,3.99c1.36,1.23,3.46,1.12,4.7-.24,1.24-1.37,1.15-3.47-.21-4.7l-4.4-3.99-4.49,4.94Z"/><path class="cls-1" d="M65.84,99.16l-4.33-3.93c-1.36-1.23-3.46-1.12-4.7,.25-1.24,1.36-1.15,3.47,.21,4.7l4.33,3.93,4.49-4.95Z"/></g><g><path class="cls-7" d="M79.26,120.36l4.4,4c1.36,1.23,3.46,1.12,4.7-.24,1.24-1.37,1.15-3.47-.21-4.7l-4.4-4-4.49,4.94Z"/><path class="cls-1" d="M83.83,115.49l-4.33-3.93c-1.35-1.23-3.46-1.12-4.7,.24-1.24,1.36-1.14,3.47,.21,4.7l4.33,3.93,4.49-4.95Z"/></g></g><path class="cls-2" d="M77.62,135.62l-1.91-1.74c.4-.38,.8-.75,1.2-1.13,4.67-4.53,9.63-8.8,14.03-13.61,7.34-8.03,15.11-17.26,18.87-27.5,2.54-6.88,6.02-13.98,6.69-21.42,.77-8.72,1.22-14.55,.75-22.55-.2-3.43,.11-6.77,.21-10.2,.12-3.84-.24-7.69-.84-11.5,.84,.3,1.63,.76,2.32,1.4l31.23,28.34c2.88,2.61,3.08,7.09,.45,9.99l-63,69.41c-2.63,2.9-7.1,3.12-9.98,.51Z"/><path class="cls-2" d="M77.87,135.83c1.31-.9,2.61-1.84,3.86-2.88,13.18-11.01,52.67-49.4,39.87-101.88-.13-.51-.21-1.04-.32-1.56l28.87,26.21c2.88,2.61,3.08,7.09,.45,9.99l-63,69.41c-2.56,2.82-6.85,3.1-9.73,.72Z"/></g><rect class="cls-1" x="12.81" y="82.23" width="115.27" height="59.86" transform="translate(-59.95 88.94) rotate(-47.77)"/><rect class="cls-10" x="34.19" y="102.54" width="35.63" height="59.86" transform="translate(-81.03 81.94) rotate(-47.77)"/><polygon class="cls-1" points="58.86 121.38 52.67 128.2 45.8 121.97 40.95 127.3 47.82 133.54 41.62 140.36 47 145.24 53.19 138.42 60.06 144.65 64.91 139.32 58.04 133.08 64.23 126.26 58.86 121.38"/><g class="cls-5"><rect class="cls-3" x="44.24" y="83.02" width="40.45" height="3.09" transform="translate(-41.48 75.47) rotate(-47.77)"/><rect class="cls-3" x="48.17" y="86.58" width="40.45" height="3.09" transform="translate(-42.83 79.54) rotate(-47.77)"/><rect class="cls-3" x="55.13" y="97.01" width="21.91" height="3.09" transform="translate(-51.31 81.25) rotate(-47.77)"/></g><path class="cls-4" d="M79.46,57.68c18.89,32.69,2.84,85.96-31.17,112.21l5.58,5.06,77.5-85.38-44.33-40.24-7.58,8.35Z"/><path class="cls-4" d="M50.2,171.62l3.67,3.33,77.5-85.38-35-31.78c15.9,47.09-40.19,109.19-46.16,113.82Z"/></g></g></g></svg>