<?xml version="1.0" encoding="UTF-8"?><svg xmlns="http://www.w3.org/2000/svg" viewBox="0 0 159 196"><defs><style>.cls-1{fill:#c3c4ca;}.cls-1,.cls-2,.cls-3{mix-blend-mode:multiply;}.cls-4{fill:#fff;}.cls-2{fill:#d7d9dd;}.cls-5{isolation:isolate;}.cls-6{fill:#54b5af;}.cls-7{fill:#db5421;}.cls-3{fill:#e2e4e7;}.cls-8{fill:#00395b;}.cls-9{fill:#93ced5;}.cls-10{fill:#d3d5d9;}</style></defs><g class="cls-5"><g id="Camada_1"><rect class="cls-8" x="0" width="159" height="196"/><g><g><path class="cls-9" d="M75.93,119.04c-3.15,1.36-6.81-.09-8.16-3.22l-14.62-33.98c-1.35-3.13,.12-6.77,3.27-8.13l75.53-32.5c3.15-1.36,6.8,.08,8.15,3.21l14.62,33.98c1.35,3.14-.11,6.78-3.27,8.14l-75.53,32.5Z"/><g><g><path class="cls-7" d="M127.81,58.16l2.06,4.79c.64,1.48,2.35,2.16,3.84,1.52,1.48-.64,2.17-2.35,1.54-3.83l-2.06-4.79-5.38,2.31Z"/><path class="cls-4" d="M133.22,55.93l-2.03-4.71c-.64-1.48-2.35-2.15-3.84-1.51-1.49,.64-2.18,2.35-1.54,3.83l2.03,4.71,5.38-2.31Z"/></g><g><path class="cls-7" d="M136.23,77.73l2.06,4.79c.64,1.48,2.35,2.15,3.84,1.51,1.48-.64,2.17-2.35,1.54-3.83l-2.06-4.79-5.38,2.31Z"/><path class="cls-4" d="M141.64,75.51l-2.03-4.71c-.63-1.48-2.35-2.15-3.84-1.52-1.49,.64-2.18,2.36-1.54,3.83l2.03,4.71,5.38-2.31Z"/></g><g><path class="cls-7" d="M115.49,63.46l2.06,4.79c.64,1.48,2.35,2.16,3.84,1.52,1.48-.64,2.18-2.35,1.54-3.83l-2.06-4.79-5.38,2.32Z"/><path class="cls-4" d="M120.9,61.23l-2.03-4.71c-.64-1.48-2.36-2.15-3.84-1.51-1.49,.64-2.18,2.35-1.54,3.83l2.03,4.71,5.38-2.32Z"/></g><g><path class="cls-7" d="M123.91,83.03l2.06,4.79c.64,1.48,2.35,2.15,3.84,1.51,1.48-.64,2.18-2.35,1.54-3.83l-2.06-4.79-5.38,2.32Z"/><path class="cls-4" d="M129.33,80.8l-2.03-4.71c-.63-1.47-2.36-2.15-3.84-1.52-1.49,.64-2.18,2.36-1.54,3.83l2.03,4.71,5.38-2.32Z"/></g><g><path class="cls-7" d="M103.17,68.76l2.06,4.79c.64,1.48,2.35,2.16,3.84,1.52,1.49-.64,2.18-2.35,1.54-3.83l-2.06-4.79-5.38,2.32Z"/><path class="cls-4" d="M108.58,66.53l-2.03-4.71c-.64-1.48-2.35-2.15-3.84-1.51-1.49,.64-2.18,2.35-1.54,3.83l2.03,4.71,5.38-2.32Z"/></g><g><path class="cls-7" d="M111.59,88.33l2.06,4.79c.64,1.48,2.35,2.15,3.84,1.51,1.49-.64,2.18-2.35,1.54-3.83l-2.06-4.79-5.38,2.32Z"/><path class="cls-4" d="M117.01,86.11l-2.03-4.71c-.63-1.48-2.36-2.15-3.84-1.51-1.49,.64-2.18,2.36-1.54,3.83l2.03,4.71,5.38-2.32Z"/></g><g><path class="cls-7" d="M90.85,74.06l2.06,4.79c.64,1.48,2.36,2.16,3.84,1.52,1.48-.64,2.17-2.35,1.54-3.83l-2.06-4.79-5.38,2.31Z"/><path class="cls-4" d="M96.27,71.83l-2.03-4.71c-.64-1.48-2.35-2.15-3.84-1.51-1.48,.64-2.18,2.35-1.54,3.83l2.03,4.71,5.38-2.31Z"/></g><g><path class="cls-7" d="M99.27,93.63l2.06,4.79c.64,1.48,2.36,2.15,3.84,1.51,1.49-.64,2.18-2.35,1.54-3.83l-2.06-4.79-5.38,2.31Z"/><path class="cls-4" d="M104.69,91.41l-2.03-4.71c-.63-1.48-2.35-2.15-3.84-1.52-1.48,.64-2.18,2.36-1.54,3.83l2.03,4.71,5.38-2.31Z"/></g><g><path class="cls-7" d="M78.53,79.36l2.06,4.79c.64,1.48,2.35,2.16,3.84,1.52,1.49-.64,2.18-2.36,1.54-3.83l-2.06-4.79-5.38,2.32Z"/><path class="cls-4" d="M83.95,77.13l-2.03-4.71c-.64-1.48-2.36-2.15-3.84-1.51-1.49,.64-2.18,2.35-1.54,3.83l2.03,4.71,5.38-2.32Z"/></g><g><path class="cls-7" d="M86.95,98.94l2.06,4.79c.64,1.48,2.35,2.15,3.84,1.51,1.49-.64,2.18-2.35,1.54-3.83l-2.06-4.79-5.38,2.32Z"/><path class="cls-4" d="M92.37,96.71l-2.03-4.71c-.63-1.47-2.36-2.15-3.84-1.51-1.49,.64-2.17,2.35-1.54,3.83l2.03,4.71,5.38-2.32Z"/></g><g><path class="cls-7" d="M66.21,84.66l2.06,4.79c.64,1.48,2.36,2.16,3.84,1.52,1.49-.64,2.18-2.35,1.54-3.83l-2.06-4.79-5.38,2.32Z"/><path class="cls-4" d="M71.63,82.43l-2.03-4.71c-.64-1.48-2.35-2.15-3.84-1.51-1.49,.64-2.18,2.35-1.54,3.83l2.03,4.71,5.38-2.32Z"/></g><g><path class="cls-7" d="M74.64,104.24l2.06,4.79c.64,1.48,2.35,2.15,3.84,1.51,1.49-.64,2.18-2.35,1.54-3.83l-2.06-4.79-5.38,2.32Z"/><path class="cls-4" d="M80.05,102.01l-2.03-4.71c-.63-1.47-2.35-2.15-3.84-1.51-1.48,.64-2.18,2.36-1.54,3.83l2.03,4.71,5.38-2.32Z"/></g></g><path class="cls-2" d="M154.74,78.4l-.9-2.08c-.43,.22-.85,.45-1.28,.67-5.09,2.59-10.04,5.48-15.29,7.76-8.75,3.8-18.63,7.62-28.19,7.82-6.43,.15-13.31,1.01-19.67-.56-7.45-1.84-12.42-3.13-18.92-5.8-2.79-1.15-5.65-1.84-8.52-2.73-3.22-1-6.31-2.39-9.31-3.98,.01,.78,.17,1.57,.5,2.33l14.62,33.98c1.35,3.14,5,4.58,8.16,3.22l75.53-32.5c3.15-1.36,4.62-5,3.27-8.14Z"/><path class="cls-2" d="M154.84,78.67c-1.12,.83-2.27,1.64-3.49,2.38-12.89,7.8-55.98,29.63-95.89,4.06-.39-.25-.8-.47-1.2-.71l13.52,31.42c1.35,3.14,5,4.58,8.16,3.22l75.53-32.5c3.07-1.32,4.53-4.8,3.37-7.87Z"/></g><g><rect class="cls-4" x="16.16" y="89.93" width="96.1" height="58.47"/><rect class="cls-9" x="16.16" y="133.18" width="96.1" height="15.22"/><rect class="cls-6" x="16.16" y="128.36" width="96.1" height="2.86"/><g><path class="cls-4" d="M127.09,90.84h-14.83v56.65h14.83c2.73,0,4.93-2.22,4.93-4.97v-46.72c0-2.74-2.21-4.97-4.93-4.97Z"/><rect class="cls-10" x="112.26" y="90.84" width="1.9" height="56.65"/></g><g><rect class="cls-1" x="22.28" y="95.5" width="35.03" height="2.67"/><rect class="cls-1" x="22.28" y="100.09" width="35.03" height="2.68"/><rect class="cls-1" x="22.28" y="104.68" width="18.97" height="2.68"/></g><path class="cls-3" d="M25.56,89.93c9.59,35.12,51.46,58.47,86.71,51.11v7.36H16.16v-58.47h9.39Z"/><path class="cls-3" d="M112.26,143.57v4.83H16.16v-46.16c20.15,42.4,89.9,42.61,96.1,41.33Z"/></g></g></g></g></svg>